ComicNeue-Regular.ufo
<glyph name="quotedbl" format="1">
  <advance width="313"/>
  <unicode hex="0022"/>
  <outline>
    <contour>
      <point x="97" y="500" type="curve" smooth="yes"/>
      <point x="81" y="500"/>
      <point x="69" y="512"/>
      <point x="69" y="528" type="curve" smooth="yes"/>
      <point x="69" y="662" type="line" smooth="yes"/>
      <point x="69" y="677"/>
      <point x="81" y="690"/>
      <point x="97" y="690" type="curve" smooth="yes"/>
      <point x="112" y="690"/>
      <point x="125" y="677"/>
      <point x="125" y="662" type="curve" smooth="yes"/>
      <point x="125" y="528" type="line" smooth="yes"/>
      <point x="125" y="512"/>
      <point x="112" y="500"/>
    </contour>
    <contour>
      <point x="216" y="500" type="curve" smooth="yes"/>
      <point x="200" y="500"/>
      <point x="188" y="512"/>
      <point x="188" y="528" type="curve" smooth="yes"/>
      <point x="188" y="662" type="line" smooth="yes"/>
      <point x="188" y="677"/>
      <point x="200" y="690"/>
      <point x="216" y="690" type="curve" smooth="yes"/>
      <point x="231" y="690"/>
      <point x="244" y="677"/>
      <point x="244" y="662" type="curve" smooth="yes"/>
      <point x="244" y="528" type="line" smooth="yes"/>
      <point x="244" y="512"/>
      <point x="231" y="500"/>
    </contour>
  </outline>
</glyph>
<glyph name="percent" format="1">
  <advance width="728"/>
  <unicode hex="0025"/>
  <outline>
    <contour>
      <point x="197" y="422" type="curve" smooth="yes"/>
      <point x="122" y="422"/>
      <point x="61" y="483"/>
      <point x="61" y="558" type="curve" smooth="yes"/>
      <point x="61" y="633"/>
      <point x="122" y="694"/>
      <point x="197" y="694" type="curve" smooth="yes"/>
      <point x="272" y="694"/>
      <point x="333" y="633"/>
      <point x="333" y="558" type="curve" smooth="yes"/>
      <point x="333" y="483"/>
      <point x="272" y="422"/>
    </contour>
    <contour>
      <point x="197" y="640" type="curve" smooth="yes"/>
      <point x="152" y="640"/>
      <point x="115" y="603"/>
      <point x="115" y="558" type="curve" smooth="yes"/>
      <point x="115" y="512"/>
      <point x="152" y="476"/>
      <point x="197" y="476" type="curve" smooth="yes"/>
      <point x="242" y="476"/>
      <point x="279" y="512"/>
      <point x="279" y="558" type="curve" smooth="yes"/>
      <point x="279" y="603"/>
      <point x="242" y="640"/>
    </contour>
    <contour>
      <point x="523" y="-8" type="curve" smooth="yes"/>
      <point x="448" y="-8"/>
      <point x="387" y="53"/>
      <point x="387" y="128" type="curve" smooth="yes"/>
      <point x="387" y="203"/>
      <point x="448" y="264"/>
      <point x="523" y="264" type="curve" smooth="yes"/>
      <point x="598" y="264"/>
      <point x="659" y="203"/>
      <point x="659" y="128" type="curve" smooth="yes"/>
      <point x="659" y="53"/>
      <point x="598" y="-8"/>
    </contour>
    <contour>
      <point x="523" y="210" type="curve" smooth="yes"/>
      <point x="478" y="210"/>
      <point x="441" y="173"/>
      <point x="441" y="128" type="curve" smooth="yes"/>
      <point x="441" y="82"/>
      <point x="478" y="46"/>
      <point x="523" y="46" type="curve" smooth="yes"/>
      <point x="568" y="46"/>
      <point x="605" y="82"/>
      <point x="605" y="128" type="curve" smooth="yes"/>
      <point x="605" y="173"/>
      <point x="568" y="210"/>
    </contour>
    <contour>
      <point x="185" y="0" type="curve" smooth="yes"/>
      <point x="170" y="0"/>
      <point x="160" y="12"/>
      <point x="160" y="24" type="curve" smooth="yes"/>
      <point x="160" y="28"/>
      <point x="161" y="34"/>
      <point x="165" y="41" type="curve" smooth="yes"/>
      <point x="517" y="677" type="line" smooth="yes"/>
      <point x="522" y="685"/>
      <point x="530" y="690"/>
      <point x="539" y="690" type="curve" smooth="yes"/>
      <point x="554" y="690"/>
      <point x="565" y="677"/>
      <point x="565" y="664" type="curve" smooth="yes"/>
      <point x="565" y="660"/>
      <point x="564" y="656"/>
      <point x="562" y="652" type="curve" smooth="yes"/>
      <point x="208" y="13" type="line" smooth="yes"/>
      <point x="203" y="4"/>
      <point x="194" y="0"/>
    </contour>
  </outline>
</glyph>
<glyph name="parenleft" format="1">
  <advance width="369"/>
  <unicode hex="0028"/>
  <outline>
    <contour>
      <point x="294" y="746" type="curve" smooth="yes"/>
      <point x="290" y="743"/>
      <point x="121" y="592"/>
      <point x="121" y="351" type="curve" smooth="yes"/>
      <point x="121" y="107"/>
      <point x="278" y="-57"/>
      <point x="281" y="-60" type="curve" smooth="yes"/>
      <point x="287" y="-66"/>
      <point x="290" y="-73"/>
      <point x="290" y="-81" type="curve" smooth="yes"/>
      <point x="290" y="-96"/>
      <point x="276" y="-108"/>
      <point x="263" y="-108" type="curve" smooth="yes"/>
      <point x="251" y="-108"/>
      <point x="243" y="-102"/>
      <point x="238" y="-96" type="curve" smooth="yes"/>
      <point x="221" y="-74"/>
      <point x="65" y="91"/>
      <point x="65" y="351" type="curve" smooth="yes"/>
      <point x="65" y="522"/>
      <point x="141" y="678"/>
      <point x="253" y="783" type="curve" smooth="yes"/>
      <point x="263" y="792"/>
      <point x="270" y="795"/>
      <point x="276" y="795" type="curve" smooth="yes"/>
      <point x="291" y="795"/>
      <point x="304" y="782"/>
      <point x="304" y="767" type="curve" smooth="yes"/>
      <point x="304" y="759"/>
      <point x="300" y="752"/>
    </contour>
  </outline>
</glyph>
<glyph name="plus" format="1">
  <advance width="443"/>
  <unicode hex="002B"/>
  <outline>
    <contour>
      <point x="362" y="224" type="curve" smooth="yes"/>
      <point x="248" y="224" type="line"/>
      <point x="248" y="112" type="line" smooth="yes"/>
      <point x="248" y="97"/>
      <point x="236" y="85"/>
      <point x="221" y="85" type="curve" smooth="yes"/>
      <point x="206" y="85"/>
      <point x="194" y="97"/>
      <point x="194" y="112" type="curve" smooth="yes"/>
      <point x="194" y="224" type="line"/>
      <point x="81" y="224" type="line" smooth="yes"/>
      <point x="66" y="224"/>
      <point x="54" y="236"/>
      <point x="54" y="251" type="curve" smooth="yes"/>
      <point x="54" y="266"/>
      <point x="66" y="278"/>
      <point x="81" y="278" type="curve" smooth="yes"/>
      <point x="194" y="278" type="line"/>
      <point x="194" y="380" type="line" smooth="yes"/>
      <point x="194" y="395"/>
      <point x="206" y="407"/>
      <point x="221" y="407" type="curve" smooth="yes"/>
      <point x="236" y="407"/>
      <point x="248" y="395"/>
      <point x="248" y="380" type="curve" smooth="yes"/>
      <point x="248" y="278" type="line"/>
      <point x="362" y="278" type="line" smooth="yes"/>
      <point x="377" y="278"/>
      <point x="389" y="266"/>
      <point x="389" y="251" type="curve" smooth="yes"/>
      <point x="389" y="236"/>
      <point x="377" y="224"/>
    </contour>
  </outline>
</glyph>
<glyph name="comma" format="1">
  <advance width="261"/>
  <unicode hex="002C"/>
  <outline>
    <contour>
      <point x="144" y="77" type="curve" smooth="yes"/>
      <point x="162" y="77"/>
      <point x="176" y="60"/>
      <point x="176" y="45" type="curve" smooth="yes"/>
      <point x="176" y="26"/>
      <point x="172" y="17"/>
      <point x="157" y="-19" type="curve" smooth="yes"/>
      <point x="133" y="-77"/>
      <point x="132" y="-93"/>
      <point x="113" y="-93" type="curve" smooth="yes"/>
      <point x="100" y="-93"/>
      <point x="90" y="-83"/>
      <point x="90" y="-71" type="curve" smooth="yes"/>
      <point x="90" y="-68"/>
      <point x="91" y="-65"/>
      <point x="92" y="-62" type="curve" smooth="yes"/>
      <point x="116" y="2" type="line"/>
      <point x="109" y="9"/>
      <point x="104" y="20"/>
      <point x="104" y="32" type="curve" smooth="yes"/>
      <point x="104" y="56"/>
      <point x="123" y="77"/>
    </contour>
  </outline>
</glyph>
<glyph name="one" format="1">
  <advance width="404"/>
  <unicode hex="0031"/>
  <outline>
    <contour>
      <point x="237" y="56" type="line"/>
      <point x="308" y="56" type="line" smooth="yes"/>
      <point x="327" y="56"/>
      <point x="338" y="43"/>
      <point x="338" y="28" type="curve" smooth="yes"/>
      <point x="338" y="12"/>
      <point x="325" y="0"/>
      <point x="310" y="0" type="curve" smooth="yes"/>
      <point x="92" y="0" type="line" smooth="yes"/>
      <point x="76" y="0"/>
      <point x="64" y="12"/>
      <point x="64" y="28" type="curve" smooth="yes"/>
      <point x="64" y="43"/>
      <point x="76" y="56"/>
      <point x="92" y="56" type="curve" smooth="yes"/>
      <point x="181" y="56" type="line"/>
      <point x="189" y="579" type="line"/>
      <point x="110" y="494" type="line" smooth="yes"/>
      <point x="104" y="488"/>
      <point x="96" y="485"/>
      <point x="89" y="485" type="curve" smooth="yes"/>
      <point x="73" y="485"/>
      <point x="61" y="498"/>
      <point x="61" y="513" type="curve" smooth="yes"/>
      <point x="61" y="520"/>
      <point x="64" y="527"/>
      <point x="69" y="532" type="curve" smooth="yes"/>
      <point x="197" y="671" type="line" smooth="yes"/>
      <point x="202" y="677"/>
      <point x="210" y="680"/>
      <point x="217" y="680" type="curve" smooth="yes"/>
      <point x="235" y="680"/>
      <point x="246" y="666"/>
      <point x="246" y="652" type="curve" smooth="yes"/>
    </contour>
  </outline>
</glyph>
<glyph name="four" format="1">
  <advance width="508"/>
  <unicode hex="0034"/>
  <outline>
    <contour>
      <point x="362" y="-1" type="curve" smooth="yes"/>
      <point x="346" y="-1"/>
      <point x="334" y="12"/>
      <point x="334" y="27" type="curve" smooth="yes"/>
      <point x="334" y="166" type="line"/>
      <point x="83" y="170" type="line" smooth="yes"/>
      <point x="69" y="170"/>
      <point x="55" y="183"/>
      <point x="55" y="198" type="curve" smooth="yes"/>
      <point x="55" y="204"/>
      <point x="57" y="208"/>
      <point x="60" y="213" type="curve" smooth="yes"/>
      <point x="338" y="671" type="line" smooth="yes"/>
      <point x="343" y="679"/>
      <point x="351" y="684"/>
      <point x="360" y="684" type="curve" smooth="yes"/>
      <point x="376" y="684"/>
      <point x="390" y="672"/>
      <point x="390" y="656" type="curve" smooth="yes"/>
      <point x="390" y="221" type="line"/>
      <point x="425" y="220" type="line" smooth="yes"/>
      <point x="441" y="219"/>
      <point x="452" y="207"/>
      <point x="452" y="192" type="curve" smooth="yes"/>
      <point x="452" y="176.58"/>
      <point x="439.925" y="163.946"/>
      <point x="425.622" y="163.946" type="curve" smooth="yes"/>
      <point x="425.084" y="163.946"/>
      <point x="424.543" y="163.964"/>
      <point x="424" y="164" type="curve" smooth="yes"/>
      <point x="390" y="165" type="line"/>
      <point x="390" y="27" type="line" smooth="yes"/>
      <point x="390" y="12"/>
      <point x="377" y="-1"/>
    </contour>
    <contour>
      <point x="334" y="556" type="line"/>
      <point x="133" y="225" type="line"/>
      <point x="334" y="222" type="line"/>
    </contour>
  </outline>
</glyph>
<glyph name="six" format="1">
  <advance width="546"/>
  <unicode hex="0036"/>
  <outline>
    <contour>
      <point x="118" y="320" type="curve"/>
      <point x="114" y="296"/>
      <point x="113" y="272"/>
      <point x="113" y="247" type="curve" smooth="yes"/>
      <point x="113" y="84"/>
      <point x="203" y="50"/>
      <point x="279" y="50" type="curve" smooth="yes"/>
      <point x="321" y="50"/>
      <point x="428" y="84"/>
      <point x="428" y="242" type="curve" smooth="yes"/>
      <point x="428" y="380"/>
      <point x="322" y="391"/>
      <point x="289" y="391" type="curve" smooth="yes"/>
      <point x="196" y="391"/>
      <point x="137" y="339"/>
    </contour>
    <contour>
      <point x="328" y="676" type="curve" smooth="yes"/>
      <point x="334" y="679"/>
      <point x="339" y="681"/>
      <point x="346" y="681" type="curve" smooth="yes"/>
      <point x="361" y="681"/>
      <point x="372" y="670"/>
      <point x="372" y="655" type="curve" smooth="yes"/>
      <point x="372" y="644"/>
      <point x="366" y="635"/>
      <point x="357" y="631" type="curve" smooth="yes"/>
      <point x="258" y="583"/>
      <point x="174" y="501"/>
      <point x="139" y="402" type="curve"/>
      <point x="176" y="424"/>
      <point x="226" y="444"/>
      <point x="289" y="444" type="curve" smooth="yes"/>
      <point x="394" y="444"/>
      <point x="480" y="375"/>
      <point x="480" y="242" type="curve" smooth="yes"/>
      <point x="480" y="40"/>
      <point x="333" y="-3"/>
      <point x="279" y="-3" type="curve" smooth="yes"/>
      <point x="173" y="-3"/>
      <point x="61" y="57"/>
      <point x="61" y="247" type="curve" smooth="yes"/>
      <point x="61" y="539"/>
      <point x="282" y="653"/>
    </contour>
  </outline>
</glyph>
<glyph name="semicolon" format="1">
  <advance width="271"/>
  <unicode hex="003B"/>
  <outline>
    <contour>
      <point x="168" y="358" type="curve" smooth="yes"/>
      <point x="149" y="358"/>
      <point x="136" y="375"/>
      <point x="136" y="396" type="curve" smooth="yes"/>
      <point x="136" y="419"/>
      <point x="155" y="441"/>
      <point x="176" y="441" type="curve" smooth="yes"/>
      <point x="194" y="441"/>
      <point x="208" y="425"/>
      <point x="208" y="405" type="curve" smooth="yes"/>
      <point x="208" y="379"/>
      <point x="189" y="358"/>
    </contour>
    <contour>
      <point x="140" y="77" type="curve" smooth="yes"/>
      <point x="158" y="77"/>
      <point x="172" y="60"/>
      <point x="172" y="45" type="curve" smooth="yes"/>
      <point x="172" y="26"/>
      <point x="168" y="17"/>
      <point x="153" y="-19" type="curve" smooth="yes"/>
      <point x="129" y="-77"/>
      <point x="128" y="-93"/>
      <point x="109" y="-93" type="curve" smooth="yes"/>
      <point x="96" y="-93"/>
      <point x="86" y="-83"/>
      <point x="86" y="-71" type="curve" smooth="yes"/>
      <point x="86" y="-68"/>
      <point x="87" y="-65"/>
      <point x="88" y="-62" type="curve" smooth="yes"/>
      <point x="112" y="2" type="line"/>
      <point x="105" y="9"/>
      <point x="100" y="20"/>
      <point x="100" y="32" type="curve" smooth="yes"/>
      <point x="100" y="56"/>
      <point x="119" y="77"/>
    </contour>
  </outline>
</glyph>
<glyph name="less" format="1">
  <advance width="540"/>
  <unicode hex="003C"/>
  <outline>
    <contour>
      <point x="419" y="8" type="curve" smooth="yes"/>
      <point x="414" y="8"/>
      <point x="408" y="10"/>
      <point x="403" y="13" type="curve" smooth="yes"/>
      <point x="84" y="224" type="line" smooth="yes"/>
      <point x="76" y="229"/>
      <point x="72" y="238"/>
      <point x="72" y="248" type="curve" smooth="yes"/>
      <point x="72" y="257"/>
      <point x="77" y="266"/>
      <point x="85" y="271" type="curve" smooth="yes"/>
      <point x="423" y="487" type="line" smooth="yes"/>
      <point x="428" y="490"/>
      <point x="433" y="492"/>
      <point x="438" y="492" type="curve" smooth="yes"/>
      <point x="453" y="492"/>
      <point x="466" y="479"/>
      <point x="466" y="463" type="curve" smooth="yes"/>
      <point x="466" y="454"/>
      <point x="461" y="445"/>
      <point x="453" y="440" type="curve" smooth="yes"/>
      <point x="151" y="247" type="line"/>
      <point x="434" y="60" type="line" smooth="yes"/>
      <point x="442" y="54"/>
      <point x="447" y="45"/>
      <point x="447" y="36" type="curve" smooth="yes"/>
      <point x="447" y="21"/>
      <point x="434" y="8"/>
    </contour>
  </outline>
</glyph>
<glyph name="greater" format="1">
  <advance width="540"/>
  <unicode hex="003E"/>
  <outline>
    <contour>
      <point x="123" y="8" type="curve" smooth="yes"/>
      <point x="108" y="8"/>
      <point x="95" y="21"/>
      <point x="95" y="36" type="curve" smooth="yes"/>
      <point x="95" y="45"/>
      <point x="100" y="54"/>
      <point x="108" y="60" type="curve" smooth="yes"/>
      <point x="391" y="247" type="line"/>
      <point x="89" y="440" type="line" smooth="yes"/>
      <point x="81" y="445"/>
      <point x="76" y="454"/>
      <point x="76" y="463" type="curve" smooth="yes"/>
      <point x="76" y="479"/>
      <point x="89" y="492"/>
      <point x="104" y="492" type="curve" smooth="yes"/>
      <point x="109" y="492"/>
      <point x="114" y="490"/>
      <point x="119" y="487" type="curve" smooth="yes"/>
      <point x="457" y="271" type="line" smooth="yes"/>
      <point x="465" y="266"/>
      <point x="470" y="257"/>
      <point x="470" y="248" type="curve" smooth="yes"/>
      <point x="470" y="238"/>
      <point x="466" y="229"/>
      <point x="458" y="224" type="curve" smooth="yes"/>
      <point x="139" y="13" type="line" smooth="yes"/>
      <point x="134" y="10"/>
      <point x="128" y="8"/>
    </contour>
  </outline>
</glyph>
<glyph name="question" format="1">
  <advance width="533"/>
  <unicode hex="003F"/>
  <outline>
    <contour>
      <point x="215" y="183" type="curve" smooth="yes"/>
      <point x="210" y="178"/>
      <point x="203" y="175"/>
      <point x="196" y="175" type="curve" smooth="yes"/>
      <point x="181" y="175"/>
      <point x="169" y="187"/>
      <point x="169" y="202" type="curve" smooth="yes"/>
      <point x="169" y="210"/>
      <point x="173" y="217"/>
      <point x="179" y="222" type="curve" smooth="yes"/>
      <point x="199" y="239"/>
      <point x="253" y="287"/>
      <point x="299" y="330" type="curve" smooth="yes"/>
      <point x="346" y="373"/>
      <point x="413" y="422"/>
      <point x="413" y="505" type="curve" smooth="yes"/>
      <point x="413" y="578"/>
      <point x="369" y="657"/>
      <point x="245" y="657" type="curve" smooth="yes"/>
      <point x="177" y="657"/>
      <point x="135" y="616"/>
      <point x="105" y="582" type="curve" smooth="yes"/>
      <point x="101" y="578"/>
      <point x="94" y="575"/>
      <point x="88" y="575" type="curve" smooth="yes"/>
      <point x="73" y="575"/>
      <point x="60" y="586"/>
      <point x="60" y="602" type="curve" smooth="yes"/>
      <point x="60" y="612"/>
      <point x="69" y="623"/>
      <point x="81" y="636" type="curve" smooth="yes"/>
      <point x="113" y="671"/>
      <point x="169" y="711"/>
      <point x="245" y="711" type="curve" smooth="yes"/>
      <point x="377" y="711"/>
      <point x="466" y="628"/>
      <point x="466" y="505" type="curve" smooth="yes"/>
      <point x="466" y="395"/>
      <point x="384" y="330"/>
      <point x="332" y="287" type="curve"/>
      <point x="289" y="249"/>
      <point x="237" y="202"/>
    </contour>
    <contour>
      <point x="162" y="0" type="curve" smooth="yes"/>
      <point x="143" y="0"/>
      <point x="130" y="17"/>
      <point x="130" y="38" type="curve" smooth="yes"/>
      <point x="130" y="61"/>
      <point x="149" y="83"/>
      <point x="170" y="83" type="curve" smooth="yes"/>
      <point x="188" y="83"/>
      <point x="202" y="67"/>
      <point x="202" y="47" type="curve" smooth="yes"/>
      <point x="202" y="21"/>
      <point x="183" y="0"/>
    </contour>
  </outline>
</glyph>
<glyph name="at" format="1">
  <advance width="828"/>
  <unicode hex="0040"/>
  <outline>
    <contour>
      <point x="605" y="15" type="curve" smooth="yes"/>
      <point x="615" y="22"/>
      <point x="620" y="24"/>
      <point x="626" y="24" type="curve" smooth="yes"/>
      <point x="641" y="24"/>
      <point x="653" y="12"/>
      <point x="653" y="-3" type="curve" smooth="yes"/>
      <point x="653" y="-12"/>
      <point x="649" y="-19"/>
      <point x="636" y="-29" type="curve" smooth="yes"/>
      <point x="596" y="-58"/>
      <point x="521" y="-94"/>
      <point x="422" y="-94" type="curve" smooth="yes"/>
      <point x="236" y="-94"/>
      <point x="68" y="55"/>
      <point x="68" y="253" type="curve" smooth="yes"/>
      <point x="68" y="462"/>
      <point x="222" y="618"/>
      <point x="431" y="618" type="curve" smooth="yes"/>
      <point x="618" y="618"/>
      <point x="765" y="475"/>
      <point x="765" y="286" type="curve" smooth="yes"/>
      <point x="765" y="109"/>
      <point x="637" y="95"/>
      <point x="604" y="95" type="curve" smooth="yes"/>
      <point x="596" y="95"/>
      <point x="498" y="99"/>
      <point x="466" y="180" type="curve"/>
      <point x="438" y="143"/>
      <point x="398" y="109"/>
      <point x="349" y="109" type="curve" smooth="yes"/>
      <point x="239" y="109"/>
      <point x="233" y="217"/>
      <point x="233" y="238" type="curve" smooth="yes"/>
      <point x="233" y="337"/>
      <point x="307" y="429"/>
      <point x="403" y="429" type="curve" smooth="yes"/>
      <point x="434" y="429"/>
      <point x="465" y="420"/>
      <point x="495" y="401" type="curve" smooth="yes"/>
      <point x="512" y="390"/>
      <point x="517" y="382"/>
      <point x="517" y="373" type="curve" smooth="yes"/>
      <point x="517" y="358"/>
      <point x="504" y="346"/>
      <point x="489" y="346" type="curve" smooth="yes"/>
      <point x="484" y="346"/>
      <point x="479" y="347"/>
      <point x="469" y="354" type="curve" smooth="yes"/>
      <point x="447" y="368"/>
      <point x="425" y="376"/>
      <point x="404" y="376" type="curve" smooth="yes"/>
      <point x="337" y="376"/>
      <point x="287" y="309"/>
      <point x="287" y="238" type="curve" smooth="yes"/>
      <point x="287" y="220"/>
      <point x="292" y="162"/>
      <point x="349" y="162" type="curve" smooth="yes"/>
      <point x="404" y="162"/>
      <point x="454" y="256"/>
      <point x="467" y="289" type="curve" smooth="yes"/>
      <point x="472" y="302"/>
      <point x="481" y="306"/>
      <point x="493" y="306" type="curve" smooth="yes"/>
      <point x="507" y="306"/>
      <point x="519" y="294"/>
      <point x="519" y="279" type="curve" smooth="yes"/>
      <point x="519" y="263"/>
      <point x="511" y="258"/>
      <point x="511" y="228" type="curve" smooth="yes"/>
      <point x="511" y="150"/>
      <point x="607" y="149"/>
      <point x="607" y="149" type="curve" smooth="yes"/>
      <point x="635" y="149"/>
      <point x="711" y="161"/>
      <point x="711" y="286" type="curve" smooth="yes"/>
      <point x="711" y="424"/>
      <point x="615" y="564"/>
      <point x="431" y="564" type="curve" smooth="yes"/>
      <point x="277" y="564"/>
      <point x="122" y="457"/>
      <point x="122" y="253" type="curve" smooth="yes"/>
      <point x="122" y="61"/>
      <point x="296" y="-41"/>
      <point x="422" y="-41" type="curve" smooth="yes"/>
      <point x="506" y="-41"/>
      <point x="570" y="-8"/>
    </contour>
  </outline>
</glyph>
<glyph name="B" format="1">
  <advance width="603"/>
  <unicode hex="0042"/>
  <outline>
    <contour>
      <point x="104" y="-2" type="curve" smooth="yes"/>
      <point x="81" y="-2"/>
      <point x="65" y="4"/>
      <point x="65" y="32" type="curve" smooth="yes"/>
      <point x="65" y="653" type="line" smooth="yes"/>
      <point x="65" y="668"/>
      <point x="78" y="681"/>
      <point x="93" y="681" type="curve" smooth="yes"/>
      <point x="275" y="681" type="line" smooth="yes"/>
      <point x="472" y="681"/>
      <point x="494" y="543"/>
      <point x="494" y="513" type="curve" smooth="yes"/>
      <point x="494" y="439"/>
      <point x="459" y="395"/>
      <point x="424" y="370" type="curve"/>
      <point x="507" y="341"/>
      <point x="553" y="286"/>
      <point x="553" y="204" type="curve" smooth="yes"/>
      <point x="553" y="74"/>
      <point x="408" y="-2"/>
    </contour>
    <contour>
      <point x="122" y="330" type="line"/>
      <point x="122" y="54" type="line"/>
      <point x="325" y="54"/>
      <point x="497" y="99"/>
      <point x="497" y="204" type="curve" smooth="yes"/>
      <point x="497" y="294"/>
      <point x="404" y="330"/>
      <point x="328" y="330" type="curve" smooth="yes"/>
    </contour>
    <contour>
      <point x="122" y="624" type="line"/>
      <point x="122" y="387" type="line"/>
      <point x="318" y="387" type="line" smooth="yes"/>
      <point x="387" y="387"/>
      <point x="438" y="448"/>
      <point x="438" y="510" type="curve" smooth="yes"/>
      <point x="438" y="528"/>
      <point x="427" y="624"/>
      <point x="275" y="624" type="curve" smooth="yes"/>
    </contour>
  </outline>
</glyph>
<glyph name="F" format="1">
  <advance width="545"/>
  <unicode hex="0046"/>
  <outline>
    <contour>
      <point x="117" y="323" type="line"/>
      <point x="117" y="28" type="line" smooth="yes"/>
      <point x="117" y="12"/>
      <point x="105" y="-1"/>
      <point x="89" y="-1" type="curve" smooth="yes"/>
      <point x="73" y="-1"/>
      <point x="60" y="12"/>
      <point x="60" y="28" type="curve" smooth="yes"/>
      <point x="60" y="652" type="line" smooth="yes"/>
      <point x="60" y="668"/>
      <point x="73" y="681"/>
      <point x="89" y="681" type="curve" smooth="yes"/>
      <point x="517" y="681" type="line" smooth="yes"/>
      <point x="533" y="681"/>
      <point x="545" y="668"/>
      <point x="545" y="652" type="curve" smooth="yes"/>
      <point x="545" y="637"/>
      <point x="533" y="624"/>
      <point x="517" y="624" type="curve" smooth="yes"/>
      <point x="117" y="624" type="line"/>
      <point x="117" y="380" type="line"/>
      <point x="428" y="380" type="line" smooth="yes"/>
      <point x="444" y="380"/>
      <point x="456" y="367"/>
      <point x="456" y="351" type="curve" smooth="yes"/>
      <point x="456" y="336"/>
      <point x="444" y="323"/>
      <point x="428" y="323" type="curve" smooth="yes"/>
    </contour>
  </outline>
</glyph>
<glyph name="K" format="1">
  <advance width="570"/>
  <unicode hex="004B"/>
  <outline>
    <contour>
      <point x="141" y="335" type="line"/>
      <point x="509" y="49" type="line" smooth="yes"/>
      <point x="517" y="42"/>
      <point x="519" y="35"/>
      <point x="519" y="27" type="curve" smooth="yes"/>
      <point x="519" y="11"/>
      <point x="507" y="-1"/>
      <point x="492" y="-1" type="curve" smooth="yes"/>
      <point x="486" y="-1"/>
      <point x="480" y="1"/>
      <point x="475" y="5" type="curve" smooth="yes"/>
      <point x="120" y="282" type="line"/>
      <point x="120" y="28" type="line" smooth="yes"/>
      <point x="120" y="13"/>
      <point x="107" y="0"/>
      <point x="92" y="0" type="curve" smooth="yes"/>
      <point x="77" y="0"/>
      <point x="65" y="13"/>
      <point x="65" y="28" type="curve" smooth="yes"/>
      <point x="65" y="654" type="line" smooth="yes"/>
      <point x="65" y="669"/>
      <point x="77" y="681"/>
      <point x="92" y="681" type="curve" smooth="yes"/>
      <point x="107" y="681"/>
      <point x="120" y="669"/>
      <point x="120" y="654" type="curve" smooth="yes"/>
      <point x="120" y="389" type="line"/>
      <point x="454" y="675" type="line" smooth="yes"/>
      <point x="459" y="679"/>
      <point x="465" y="682"/>
      <point x="472" y="682" type="curve" smooth="yes"/>
      <point x="486" y="682"/>
      <point x="499" y="668"/>
      <point x="499" y="654" type="curve" smooth="yes"/>
      <point x="499" y="646"/>
      <point x="496" y="638"/>
      <point x="490" y="633" type="curve" smooth="yes"/>
    </contour>
  </outline>
</glyph>
<glyph name="M" format="1">
  <advance width="857"/>
  <unicode hex="004D"/>
  <outline>
    <contour>
      <point x="413" y="0" type="curve" smooth="yes"/>
      <point x="401" y="0"/>
      <point x="390" y="8"/>
      <point x="387" y="19" type="curve" smooth="yes"/>
      <point x="220" y="545" type="line"/>
      <point x="105" y="22" type="line" smooth="yes"/>
      <point x="102" y="8"/>
      <point x="90" y="0"/>
      <point x="77" y="0" type="curve" smooth="yes"/>
      <point x="59" y="0"/>
      <point x="50" y="15"/>
      <point x="50" y="25" type="curve" smooth="yes"/>
      <point x="50" y="30"/>
      <point x="52" y="41"/>
      <point x="54" y="49" type="curve" smooth="yes"/>
      <point x="188" y="659" type="line" smooth="yes"/>
      <point x="191" y="673"/>
      <point x="202" y="681"/>
      <point x="216" y="681" type="curve" smooth="yes"/>
      <point x="228" y="681"/>
      <point x="238" y="673"/>
      <point x="242" y="662" type="curve" smooth="yes"/>
      <point x="415" y="115" type="line"/>
      <point x="613" y="663" type="line" smooth="yes"/>
      <point x="617" y="675"/>
      <point x="628" y="681"/>
      <point x="641" y="681" type="curve" smooth="yes"/>
      <point x="654" y="680"/>
      <point x="663" y="672"/>
      <point x="666" y="659" type="curve" smooth="yes"/>
      <point x="802" y="52" type="line" smooth="yes"/>
      <point x="805" y="40"/>
      <point x="806" y="31"/>
      <point x="806" y="24" type="curve" smooth="yes"/>
      <point x="806" y="12"/>
      <point x="795" y="0"/>
      <point x="779" y="0" type="curve" smooth="yes"/>
      <point x="764" y="0"/>
      <point x="754" y="9"/>
      <point x="751" y="22" type="curve" smooth="yes"/>
      <point x="633" y="553" type="line"/>
      <point x="440" y="18" type="line" smooth="yes"/>
      <point x="436" y="7"/>
      <point x="425" y="0"/>
    </contour>
  </outline>
</glyph>
<glyph name="N" format="1">
  <advance width="619"/>
  <unicode hex="004E"/>
  <outline>
    <contour>
      <point x="526" y="0" type="curve" smooth="yes"/>
      <point x="517" y="0"/>
      <point x="508" y="4"/>
      <point x="503" y="12" type="curve" smooth="yes"/>
      <point x="122" y="563" type="line"/>
      <point x="121" y="28" type="line" smooth="yes"/>
      <point x="121" y="12"/>
      <point x="109" y="0"/>
      <point x="93" y="0" type="curve" smooth="yes"/>
      <point x="78" y="0"/>
      <point x="65" y="13"/>
      <point x="65" y="28" type="curve" smooth="yes"/>
      <point x="66" y="653" type="line" smooth="yes"/>
      <point x="66" y="667"/>
      <point x="77" y="681"/>
      <point x="93" y="681" type="curve" smooth="yes"/>
      <point x="102" y="681"/>
      <point x="111" y="677"/>
      <point x="117" y="669" type="curve" smooth="yes"/>
      <point x="498" y="117" type="line"/>
      <point x="498" y="654" type="line" smooth="yes"/>
      <point x="498" y="669"/>
      <point x="510" y="682"/>
      <point x="526" y="682" type="curve" smooth="yes"/>
      <point x="541" y="682"/>
      <point x="554" y="669"/>
      <point x="554" y="654" type="curve" smooth="yes"/>
      <point x="554" y="28" type="line" smooth="yes"/>
      <point x="554" y="13"/>
      <point x="542" y="0"/>
    </contour>
  </outline>
</glyph>
<glyph name="O" format="1">
  <advance width="660"/>
  <unicode hex="004F"/>
  <outline>
    <contour>
      <point x="309" y="-2" type="curve" smooth="yes"/>
      <point x="465" y="-2"/>
      <point x="600" y="167"/>
      <point x="600" y="367" type="curve" smooth="yes"/>
      <point x="600" y="539"/>
      <point x="495" y="682"/>
      <point x="351" y="682" type="curve" smooth="yes"/>
      <point x="195" y="682"/>
      <point x="60" y="513"/>
      <point x="60" y="313" type="curve" smooth="yes"/>
      <point x="60" y="143"/>
      <point x="164" y="-2"/>
    </contour>
    <contour>
      <point x="309" y="50" type="curve" smooth="yes"/>
      <point x="195" y="50"/>
      <point x="113" y="169"/>
      <point x="113" y="313" type="curve" smooth="yes"/>
      <point x="113" y="489"/>
      <point x="221" y="630"/>
      <point x="344" y="630" type="curve" smooth="yes"/>
      <point x="463" y="630"/>
      <point x="547" y="498"/>
      <point x="547" y="363" type="curve" smooth="yes"/>
      <point x="547" y="193"/>
      <point x="432" y="50"/>
    </contour>
  </outline>
</glyph>
<glyph name="Q" format="1">
  <advance width="714"/>
  <unicode hex="0051"/>
  <outline>
    <contour>
      <point x="550" y="93" type="curve"/>
      <point x="651" y="27" type="line" smooth="yes"/>
      <point x="660" y="21"/>
      <point x="663" y="12"/>
      <point x="663" y="3" type="curve" smooth="yes"/>
      <point x="663" y="-14"/>
      <point x="649" y="-24"/>
      <point x="635" y="-24" type="curve" smooth="yes"/>
      <point x="630" y="-24"/>
      <point x="625" y="-23"/>
      <point x="620" y="-20" type="curve" smooth="yes"/>
      <point x="506" y="56" type="line"/>
      <point x="455" y="19"/>
      <point x="395" y="-2"/>
      <point x="333" y="-2" type="curve" smooth="yes"/>
      <point x="169" y="-2"/>
      <point x="51" y="142"/>
      <point x="51" y="311" type="curve" smooth="yes"/>
      <point x="51" y="512"/>
      <point x="204" y="680"/>
      <point x="380" y="680" type="curve" smooth="yes"/>
      <point x="543" y="680"/>
      <point x="662" y="536"/>
      <point x="662" y="366" type="curve" smooth="yes"/>
      <point x="662" y="260"/>
      <point x="618" y="161"/>
    </contour>
    <contour>
      <point x="333" y="52" type="curve" smooth="yes"/>
      <point x="376" y="52"/>
      <point x="418" y="65"/>
      <point x="456" y="89" type="curve"/>
      <point x="377" y="141" type="line" smooth="yes"/>
      <point x="369" y="146"/>
      <point x="364" y="155"/>
      <point x="364" y="164" type="curve" smooth="yes"/>
      <point x="364" y="180"/>
      <point x="377" y="192"/>
      <point x="391" y="192" type="curve" smooth="yes"/>
      <point x="397" y="192"/>
      <point x="402" y="191"/>
      <point x="407" y="188" type="curve" smooth="yes"/>
      <point x="502" y="125" type="line"/>
      <point x="560" y="182"/>
      <point x="601" y="269"/>
      <point x="601" y="363" type="curve" smooth="yes"/>
      <point x="601" y="497"/>
      <point x="505" y="626"/>
      <point x="372" y="626" type="curve" smooth="yes"/>
      <point x="235" y="626"/>
      <point x="111" y="487"/>
      <point x="111" y="315" type="curve" smooth="yes"/>
      <point x="111" y="168"/>
      <point x="204" y="52"/>
    </contour>
  </outline>
</glyph>
<glyph name="V" format="1">
  <advance width="535"/>
  <unicode hex="0056"/>
  <outline>
    <contour>
      <point x="250" y="0" type="curve" smooth="yes"/>
      <point x="238" y="0"/>
      <point x="227" y="8"/>
      <point x="223" y="19" type="curve" smooth="yes"/>
      <point x="14" y="638" type="line" smooth="yes"/>
      <point x="12" y="643"/>
      <point x="11" y="650"/>
      <point x="11" y="653" type="curve" smooth="yes"/>
      <point x="11" y="668"/>
      <point x="21" y="680"/>
      <point x="39" y="680" type="curve" smooth="yes"/>
      <point x="51" y="680"/>
      <point x="62" y="673"/>
      <point x="66" y="661" type="curve" smooth="yes"/>
      <point x="252" y="110" type="line"/>
      <point x="470" y="663" type="line" smooth="yes"/>
      <point x="475" y="674"/>
      <point x="485" y="680"/>
      <point x="497" y="680" type="curve" smooth="yes"/>
      <point x="513" y="680"/>
      <point x="524" y="667"/>
      <point x="524" y="653" type="curve" smooth="yes"/>
      <point x="524" y="649"/>
      <point x="523" y="646"/>
      <point x="522" y="642" type="curve" smooth="yes"/>
      <point x="276" y="18" type="line" smooth="yes"/>
      <point x="271" y="7"/>
      <point x="261" y="0"/>
    </contour>
  </outline>
</glyph>
<glyph name="W" format="1">
  <advance width="867"/>
  <unicode hex="0057"/>
  <outline>
    <contour>
      <point x="603" y="0" type="curve" smooth="yes"/>
      <point x="589" y="0"/>
      <point x="579" y="7"/>
      <point x="576" y="20" type="curve" smooth="yes"/>
      <point x="428" y="556" type="line"/>
      <point x="255" y="19" type="line" smooth="yes"/>
      <point x="251" y="6"/>
      <point x="241" y="0"/>
      <point x="228" y="0" type="curve" smooth="yes"/>
      <point x="216" y="0"/>
      <point x="205" y="8"/>
      <point x="202" y="19" type="curve" smooth="yes"/>
      <point x="16" y="632" type="line" smooth="yes"/>
      <point x="12" y="645"/>
      <point x="11" y="651"/>
      <point x="11" y="654" type="curve" smooth="yes"/>
      <point x="11" y="670"/>
      <point x="23" y="681"/>
      <point x="38" y="681" type="curve" smooth="yes"/>
      <point x="51" y="681"/>
      <point x="61" y="673"/>
      <point x="65" y="661" type="curve" smooth="yes"/>
      <point x="229" y="121" type="line"/>
      <point x="404" y="662" type="line" smooth="yes"/>
      <point x="408" y="675"/>
      <point x="418" y="681"/>
      <point x="431" y="681" type="curve" smooth="yes"/>
      <point x="443" y="681"/>
      <point x="454" y="673"/>
      <point x="457" y="661" type="curve" smooth="yes"/>
      <point x="606" y="120" type="line"/>
      <point x="802" y="663" type="line" smooth="yes"/>
      <point x="806" y="674"/>
      <point x="817" y="681"/>
      <point x="828" y="681" type="curve" smooth="yes"/>
      <point x="844" y="681"/>
      <point x="856" y="667"/>
      <point x="856" y="655" type="curve" smooth="yes"/>
      <point x="856" y="651"/>
      <point x="855" y="647"/>
      <point x="854" y="644" type="curve" smooth="yes"/>
      <point x="629" y="18" type="line" smooth="yes"/>
      <point x="625" y="7"/>
      <point x="615" y="0"/>
    </contour>
  </outline>
</glyph>
<glyph name="Y" format="1">
  <advance width="593"/>
  <unicode hex="0059"/>
  <outline>
    <contour>
      <point x="564" y="681" type="curve" smooth="yes"/>
      <point x="578" y="681"/>
      <point x="592" y="669"/>
      <point x="592" y="653" type="curve" smooth="yes"/>
      <point x="592" y="648"/>
      <point x="591" y="644"/>
      <point x="584" y="632" type="curve" smooth="yes"/>
      <point x="217" y="14" type="line" smooth="yes"/>
      <point x="212" y="5"/>
      <point x="203" y="0"/>
      <point x="193" y="0" type="curve" smooth="yes"/>
      <point x="177" y="0"/>
      <point x="165" y="14"/>
      <point x="165" y="28" type="curve" smooth="yes"/>
      <point x="165" y="34"/>
      <point x="168" y="41"/>
      <point x="171" y="46" type="curve" smooth="yes"/>
      <point x="271" y="214" type="line"/>
      <point x="26" y="635" type="line" smooth="yes"/>
      <point x="22" y="642"/>
      <point x="20" y="648"/>
      <point x="20" y="653" type="curve" smooth="yes"/>
      <point x="20" y="668"/>
      <point x="33" y="681"/>
      <point x="49" y="681" type="curve" smooth="yes"/>
      <point x="58" y="681"/>
      <point x="67" y="676"/>
      <point x="72" y="667" type="curve" smooth="yes"/>
      <point x="304" y="269" type="line"/>
      <point x="540" y="667" type="line" smooth="yes"/>
      <point x="545" y="676"/>
      <point x="554" y="681"/>
    </contour>
  </outline>
</glyph>
<glyph name="Z" format="1">
  <advance width="639"/>
  <unicode hex="005A"/>
  <outline>
    <contour>
      <point x="126" y="60" type="line"/>
      <point x="543" y="60" type="line" smooth="yes"/>
      <point x="559" y="60"/>
      <point x="572" y="47"/>
      <point x="572" y="30" type="curve" smooth="yes"/>
      <point x="572" y="14"/>
      <point x="559" y="0"/>
      <point x="543" y="0" type="curve" smooth="yes"/>
      <point x="81" y="0" type="line" smooth="yes"/>
      <point x="64" y="0"/>
      <point x="49" y="12"/>
      <point x="48" y="30" type="curve" smooth="yes"/>
      <point x="48" y="40"/>
      <point x="51" y="48"/>
      <point x="56" y="55" type="curve" smooth="yes"/>
      <point x="511" y="619" type="line"/>
      <point x="94" y="619" type="line" smooth="yes"/>
      <point x="78" y="619"/>
      <point x="65" y="633"/>
      <point x="65" y="650" type="curve" smooth="yes"/>
      <point x="65" y="666"/>
      <point x="78" y="680"/>
      <point x="94" y="680" type="curve" smooth="yes"/>
      <point x="556" y="680" type="line" smooth="yes"/>
      <point x="574" y="680"/>
      <point x="589" y="666"/>
      <point x="589" y="648" type="curve" smooth="yes"/>
      <point x="589" y="639"/>
      <point x="585" y="632"/>
      <point x="581" y="626" type="curve" smooth="yes"/>
    </contour>
  </outline>
</glyph>
<glyph name="bracketleft" format="1">
  <advance width="315"/>
  <unicode hex="005B"/>
  <outline>
    <contour>
      <point x="215" y="-124" type="curve" smooth="yes"/>
      <point x="94" y="-124" type="line" smooth="yes"/>
      <point x="78" y="-124"/>
      <point x="66" y="-112"/>
      <point x="66" y="-96" type="curve" smooth="yes"/>
      <point x="66" y="778" type="line" smooth="yes"/>
      <point x="66" y="793"/>
      <point x="78" y="806"/>
      <point x="94" y="806" type="curve" smooth="yes"/>
      <point x="231" y="806" type="line" smooth="yes"/>
      <point x="246" y="806"/>
      <point x="259" y="793"/>
      <point x="259" y="778" type="curve" smooth="yes"/>
      <point x="259" y="762"/>
      <point x="246" y="750"/>
      <point x="231" y="750" type="curve" smooth="yes"/>
      <point x="122" y="750" type="line"/>
      <point x="122" y="-68" type="line"/>
      <point x="215" y="-68" type="line" smooth="yes"/>
      <point x="230" y="-68"/>
      <point x="243" y="-81"/>
      <point x="243" y="-96" type="curve" smooth="yes"/>
      <point x="243" y="-112"/>
      <point x="230" y="-124"/>
    </contour>
  </outline>
</glyph>
<glyph name="backslash" format="1">
  <advance width="545"/>
  <unicode hex="005C"/>
  <outline>
    <contour>
      <point x="448" y="-1" type="curve" smooth="yes"/>
      <point x="438" y="-1"/>
      <point x="429" y="4"/>
      <point x="424" y="13" type="curve" smooth="yes"/>
      <point x="76" y="641" type="line" smooth="yes"/>
      <point x="72" y="648"/>
      <point x="67" y="657"/>
      <point x="67" y="666" type="curve" smooth="yes"/>
      <point x="67" y="679"/>
      <point x="79" y="692"/>
      <point x="95" y="692" type="curve" smooth="yes"/>
      <point x="105" y="692"/>
      <point x="115" y="687"/>
      <point x="120" y="678" type="curve" smooth="yes"/>
      <point x="473" y="41" type="line" smooth="yes"/>
      <point x="475" y="37"/>
      <point x="476" y="32"/>
      <point x="476" y="27" type="curve" smooth="yes"/>
      <point x="476" y="12"/>
      <point x="465" y="-1"/>
    </contour>
  </outline>
</glyph>
<glyph name="grave" format="1">
  <advance width="500"/>
  <unicode hex="0060"/>
  <outline>
    <contour>
      <point x="291" y="583" type="curve" smooth="yes"/>
      <point x="173" y="704" type="line" smooth="yes"/>
      <point x="166" y="711"/>
      <point x="162" y="719"/>
      <point x="162" y="729" type="curve" smooth="yes"/>
      <point x="162" y="747"/>
      <point x="179" y="763"/>
      <point x="197" y="763" type="curve" smooth="yes"/>
      <point x="208" y="763"/>
      <point x="219" y="756"/>
      <point x="226" y="748" type="curve" smooth="yes"/>
      <point x="331" y="618" type="line" smooth="yes"/>
      <point x="336" y="611"/>
      <point x="338" y="606"/>
      <point x="338" y="600" type="curve" smooth="yes"/>
      <point x="338" y="585"/>
      <point x="324" y="574"/>
      <point x="310" y="574" type="curve" smooth="yes"/>
      <point x="302" y="574"/>
      <point x="296" y="578"/>
    </contour>
  </outline>
</glyph>
<glyph name="a" format="1">
  <advance width="505"/>
  <unicode hex="0061"/>
  <outline>
    <contour>
      <point x="440" y="473" type="curve"/>
      <point x="440" y="30" type="line" smooth="yes"/>
      <point x="440" y="14"/>
      <point x="428" y="0"/>
      <point x="412" y="0" type="curve" smooth="yes"/>
      <point x="393" y="0"/>
      <point x="384" y="15"/>
      <point x="384" y="32" type="curve" smooth="yes"/>
      <point x="384" y="55" type="line"/>
      <point x="348" y="33"/>
      <point x="293" y="8"/>
      <point x="238" y="8" type="curve" smooth="yes"/>
      <point x="130" y="8"/>
      <point x="50" y="95"/>
      <point x="50" y="224" type="curve" smooth="yes"/>
      <point x="50" y="328"/>
      <point x="115" y="514"/>
      <point x="289" y="514" type="curve" smooth="yes"/>
      <point x="363" y="514"/>
      <point x="425" y="481"/>
    </contour>
    <contour>
      <point x="382" y="121" type="curve"/>
      <point x="386" y="438" type="line"/>
      <point x="367" y="446"/>
      <point x="326" y="459"/>
      <point x="292" y="459" type="curve" smooth="yes"/>
      <point x="155" y="459"/>
      <point x="107" y="309"/>
      <point x="107" y="226" type="curve" smooth="yes"/>
      <point x="107" y="156"/>
      <point x="141" y="63"/>
      <point x="236" y="63" type="curve" smooth="yes"/>
      <point x="297" y="63"/>
      <point x="359" y="105"/>
    </contour>
  </outline>
</glyph>
<glyph name="b" format="1">
  <advance width="524"/>
  <unicode hex="0062"/>
  <outline>
    <contour>
      <point x="300" y="491" type="curve" smooth="yes"/>
      <point x="428" y="491"/>
      <point x="474" y="374"/>
      <point x="474" y="271" type="curve" smooth="yes"/>
      <point x="474" y="125"/>
      <point x="411" y="7"/>
      <point x="257" y="7" type="curve" smooth="yes"/>
      <point x="205" y="7"/>
      <point x="151" y="22"/>
      <point x="120" y="35" type="curve"/>
      <point x="120" y="26" type="line" smooth="yes"/>
      <point x="120" y="13"/>
      <point x="108" y="0"/>
      <point x="93" y="0" type="curve" smooth="yes"/>
      <point x="78" y="0"/>
      <point x="65" y="12"/>
      <point x="65" y="26" type="curve" smooth="yes"/>
      <point x="65" y="665" type="line" smooth="yes"/>
      <point x="65" y="680"/>
      <point x="78" y="690"/>
      <point x="93" y="690" type="curve" smooth="yes"/>
      <point x="107" y="690"/>
      <point x="120" y="680"/>
      <point x="120" y="665" type="curve" smooth="yes"/>
      <point x="120" y="410" type="line"/>
      <point x="163" y="460"/>
      <point x="231" y="491"/>
    </contour>
    <contour>
      <point x="249" y="60" type="curve" smooth="yes"/>
      <point x="375" y="60"/>
      <point x="421" y="144"/>
      <point x="421" y="271" type="curve" smooth="yes"/>
      <point x="421" y="340"/>
      <point x="395" y="435"/>
      <point x="304" y="435" type="curve" smooth="yes"/>
      <point x="199" y="435"/>
      <point x="120" y="372"/>
      <point x="120" y="294" type="curve" smooth="yes"/>
      <point x="120" y="87" type="line"/>
      <point x="137" y="79"/>
      <point x="192" y="60"/>
    </contour>
  </outline>
</glyph>
<glyph name="c" format="1">
  <advance width="509"/>
  <unicode hex="0063"/>
  <outline>
    <contour>
      <point x="459" y="112" type="curve" smooth="yes"/>
      <point x="459" y="105"/>
      <point x="455" y="99"/>
      <point x="451" y="93" type="curve" smooth="yes"/>
      <point x="418" y="43"/>
      <point x="351" y="3"/>
      <point x="277" y="0" type="curve" smooth="yes"/>
      <point x="273.459" y="-0.18006"/>
      <point x="269.926" y="-0.26916"/>
      <point x="266.403" y="-0.26916" type="curve" smooth="yes"/>
      <point x="152.556" y="-0.26916"/>
      <point x="50" y="92.8113"/>
      <point x="50" y="216" type="curve" smooth="yes"/>
      <point x="50" y="265"/>
      <point x="64" y="309"/>
      <point x="74" y="335" type="curve" smooth="yes"/>
      <point x="100" y="401"/>
      <point x="175" y="500"/>
      <point x="272" y="500" type="curve" smooth="yes"/>
      <point x="346" y="500"/>
      <point x="384" y="474"/>
      <point x="422" y="430" type="curve" smooth="yes"/>
      <point x="426" y="426"/>
      <point x="429" y="418"/>
      <point x="429" y="411" type="curve" smooth="yes"/>
      <point x="429" y="396"/>
      <point x="417" y="384"/>
      <point x="402" y="384" type="curve" smooth="yes"/>
      <point x="394" y="384"/>
      <point x="387" y="388"/>
      <point x="382" y="393" type="curve" smooth="yes"/>
      <point x="355" y="426"/>
      <point x="326" y="448"/>
      <point x="274" y="448" type="curve" smooth="yes"/>
      <point x="207" y="448"/>
      <point x="146" y="373"/>
      <point x="123" y="316" type="curve" smooth="yes"/>
      <point x="108" y="278"/>
      <point x="103" y="245"/>
      <point x="103" y="218" type="curve" smooth="yes"/>
      <point x="103" y="90"/>
      <point x="218" y="52"/>
      <point x="262" y="52" type="curve" smooth="yes"/>
      <point x="334" y="52"/>
      <point x="377" y="84"/>
      <point x="406" y="123" type="curve" smooth="yes"/>
      <point x="410" y="129"/>
      <point x="419" y="139"/>
      <point x="432" y="139" type="curve" smooth="yes"/>
      <point x="447" y="139"/>
      <point x="459" y="127"/>
    </contour>
  </outline>
</glyph>
<glyph name="h" format="1">
  <advance width="503"/>
  <unicode hex="0068"/>
  <outline>
    <contour>
      <point x="450" y="27" type="curve" smooth="yes"/>
      <point x="449" y="12"/>
      <point x="438" y="0"/>
      <point x="423" y="0" type="curve" smooth="yes"/>
      <point x="410" y="0"/>
      <point x="396" y="12"/>
      <point x="396" y="27" type="curve" smooth="yes"/>
      <point x="396" y="42"/>
      <point x="398" y="94"/>
      <point x="398" y="154" type="curve" smooth="yes"/>
      <point x="398" y="415"/>
      <point x="352" y="447"/>
      <point x="316" y="447" type="curve" smooth="yes"/>
      <point x="231" y="447"/>
      <point x="152" y="316"/>
      <point x="136" y="282" type="curve" smooth="yes"/>
      <point x="124" y="257"/>
      <point x="121" y="227"/>
      <point x="121" y="193" type="curve" smooth="yes"/>
      <point x="121" y="29" type="line" smooth="yes"/>
      <point x="121" y="10"/>
      <point x="108" y="-1"/>
      <point x="93" y="-1" type="curve" smooth="yes"/>
      <point x="78" y="-1"/>
      <point x="65" y="12"/>
      <point x="65" y="27" type="curve" smooth="yes"/>
      <point x="65" y="661" type="line" smooth="yes"/>
      <point x="65" y="676"/>
      <point x="77" y="690"/>
      <point x="93" y="690" type="curve" smooth="yes"/>
      <point x="110" y="690"/>
      <point x="121" y="676"/>
      <point x="121" y="661" type="curve" smooth="yes"/>
      <point x="121" y="336" type="line"/>
      <point x="157" y="416"/>
      <point x="238" y="502"/>
      <point x="321" y="502" type="curve" smooth="yes"/>
      <point x="420" y="502"/>
      <point x="453" y="388"/>
      <point x="453" y="162" type="curve" smooth="yes"/>
      <point x="453" y="96"/>
      <point x="453" y="57"/>
    </contour>
  </outline>
</glyph>
<glyph name="i" format="1">
  <advance width="194"/>
  <unicode hex="0069"/>
  <outline>
    <contour>
      <point x="129" y="467" type="curve"/>
      <point x="129" y="467"/>
      <point x="123" y="29"/>
      <point x="123" y="29" type="curve" smooth="yes"/>
      <point x="123" y="13"/>
      <point x="110" y="0"/>
      <point x="94" y="0" type="curve" smooth="yes"/>
      <point x="78" y="0"/>
      <point x="65" y="13"/>
      <point x="65" y="29" type="curve"/>
      <point x="65" y="29"/>
      <point x="71" y="467"/>
      <point x="71" y="467" type="curve" smooth="yes"/>
      <point x="71" y="483"/>
      <point x="84" y="496"/>
      <point x="100" y="496" type="curve" smooth="yes"/>
      <point x="116" y="496"/>
      <point x="129" y="483"/>
    </contour>
    <contour>
      <point x="100" y="585" type="curve" smooth="yes"/>
      <point x="85" y="585"/>
      <point x="73" y="598"/>
      <point x="73" y="613" type="curve" smooth="yes"/>
      <point x="74" y="654" type="line" smooth="yes"/>
      <point x="74" y="669"/>
      <point x="87" y="681"/>
      <point x="102" y="681" type="curve" smooth="yes"/>
      <point x="117" y="681"/>
      <point x="129" y="667"/>
      <point x="129" y="653" type="curve" smooth="yes"/>
      <point x="128" y="612" type="line" smooth="yes"/>
      <point x="127" y="596"/>
      <point x="115" y="585"/>
    </contour>
  </outline>
</glyph>
<glyph name="l" format="1">
  <advance width="226"/>
  <unicode hex="006C"/>
  <outline>
    <contour>
      <point x="141" y="663" type="curve" smooth="yes"/>
      <point x="141" y="25" type="line" smooth="yes"/>
      <point x="141" y="11"/>
      <point x="127" y="0"/>
      <point x="113" y="0" type="curve" smooth="yes"/>
      <point x="99" y="0"/>
      <point x="85" y="11"/>
      <point x="85" y="25" type="curve" smooth="yes"/>
      <point x="85" y="663" type="line" smooth="yes"/>
      <point x="85" y="678"/>
      <point x="97" y="690"/>
      <point x="113" y="690" type="curve" smooth="yes"/>
      <point x="128" y="690"/>
      <point x="141" y="678"/>
    </contour>
  </outline>
</glyph>
<glyph name="n" format="1">
  <advance width="535"/>
  <unicode hex="006E"/>
  <outline>
    <contour>
      <point x="93" y="0" type="curve" smooth="yes"/>
      <point x="110" y="0"/>
      <point x="120" y="13"/>
      <point x="120" y="30" type="curve" smooth="yes"/>
      <point x="121" y="111" type="line" smooth="yes"/>
      <point x="122" y="181"/>
      <point x="141" y="264"/>
      <point x="175" y="326" type="curve" smooth="yes"/>
      <point x="228" y="424"/>
      <point x="281" y="445"/>
      <point x="325" y="445" type="curve" smooth="yes"/>
      <point x="430" y="445"/>
      <point x="411" y="305"/>
      <point x="416" y="28" type="curve" smooth="yes"/>
      <point x="416" y="13"/>
      <point x="428" y="0"/>
      <point x="443" y="0" type="curve" smooth="yes"/>
      <point x="459" y="0"/>
      <point x="469" y="13"/>
      <point x="469" y="29" type="curve" smooth="yes"/>
      <point x="469.551" y="73.3819"/>
      <point x="470.008" y="114.458"/>
      <point x="470.008" y="152.297" type="curve" smooth="yes"/>
      <point x="470.008" y="388.987"/>
      <point x="452.152" y="499"/>
      <point x="328" y="499" type="curve" smooth="yes"/>
      <point x="222" y="499"/>
      <point x="141" y="406"/>
      <point x="121" y="292" type="curve"/>
      <point x="121" y="473" type="line" smooth="yes"/>
      <point x="121" y="488"/>
      <point x="108" y="500"/>
      <point x="93" y="500" type="curve" smooth="yes"/>
      <point x="78" y="500"/>
      <point x="65" y="488"/>
      <point x="65" y="473" type="curve" smooth="yes"/>
      <point x="65" y="26" type="line" smooth="yes"/>
      <point x="65" y="12"/>
      <point x="78" y="0"/>
    </contour>
  </outline>
</glyph>
<glyph name="q" format="1">
  <advance width="514"/>
  <unicode hex="0071"/>
  <outline>
    <contour>
      <point x="372" y="-158" type="curve" smooth="yes"/>
      <point x="380" y="61" type="line"/>
      <point x="380" y="61"/>
      <point x="355" y="-6"/>
      <point x="260" y="-6" type="curve" smooth="yes"/>
      <point x="134" y="-6"/>
      <point x="50" y="88"/>
      <point x="50" y="211" type="curve" smooth="yes"/>
      <point x="50" y="381"/>
      <point x="159" y="489"/>
      <point x="321" y="489" type="curve" smooth="yes"/>
      <point x="344" y="489"/>
      <point x="368" y="487"/>
      <point x="395" y="482" type="curve"/>
      <point x="395" y="491" type="line" smooth="yes"/>
      <point x="395" y="506"/>
      <point x="407" y="518"/>
      <point x="422" y="518" type="curve" smooth="yes"/>
      <point x="437" y="518"/>
      <point x="450" y="506"/>
      <point x="449" y="491" type="curve" smooth="yes"/>
      <point x="426" y="-160" type="line" smooth="yes"/>
      <point x="425" y="-180"/>
      <point x="413" y="-189"/>
      <point x="397" y="-189" type="curve" smooth="yes"/>
      <point x="382" y="-189"/>
      <point x="371" y="-173"/>
    </contour>
    <contour>
      <point x="251" y="44" type="curve" smooth="yes"/>
      <point x="330" y="44"/>
      <point x="383" y="87"/>
      <point x="385" y="164" type="curve" smooth="yes"/>
      <point x="393" y="433" type="line"/>
      <point x="367" y="437"/>
      <point x="343" y="439"/>
      <point x="321" y="439" type="curve" smooth="yes"/>
      <point x="191" y="439"/>
      <point x="100" y="356"/>
      <point x="100" y="209" type="curve" smooth="yes"/>
      <point x="100" y="112"/>
      <point x="168" y="44"/>
    </contour>
  </outline>
</glyph>
<glyph name="r" format="1">
  <advance width="416"/>
  <unicode hex="0072"/>
  <outline>
    <contour>
      <point x="376" y="422" type="curve" smooth="yes"/>
      <point x="376" y="389" type="line" smooth="yes"/>
      <point x="376" y="374"/>
      <point x="364" y="362"/>
      <point x="348" y="362" type="curve" smooth="yes"/>
      <point x="328" y="362"/>
      <point x="322" y="377"/>
      <point x="322" y="390" type="curve" smooth="yes"/>
      <point x="322" y="415" type="line" smooth="yes"/>
      <point x="322" y="432"/>
      <point x="315" y="447"/>
      <point x="286" y="447" type="curve" smooth="yes"/>
      <point x="238" y="447"/>
      <point x="193" y="407"/>
      <point x="156" y="357" type="curve" smooth="yes"/>
      <point x="137" y="332"/>
      <point x="122" y="285"/>
      <point x="122" y="253" type="curve" smooth="yes"/>
      <point x="121" y="26" type="line" smooth="yes"/>
      <point x="121" y="12"/>
      <point x="108" y="0"/>
      <point x="93" y="0" type="curve" smooth="yes"/>
      <point x="79" y="0"/>
      <point x="65" y="12"/>
      <point x="65" y="26" type="curve" smooth="yes"/>
      <point x="65" y="472" type="line" smooth="yes"/>
      <point x="65" y="487"/>
      <point x="78" y="499"/>
      <point x="93" y="499" type="curve" smooth="yes"/>
      <point x="109" y="499"/>
      <point x="122" y="487"/>
      <point x="122" y="472" type="curve" smooth="yes"/>
      <point x="122" y="376" type="line"/>
      <point x="152" y="430"/>
      <point x="207" y="502"/>
      <point x="295" y="502" type="curve" smooth="yes"/>
      <point x="358" y="502"/>
      <point x="376" y="458"/>
    </contour>
  </outline>
</glyph>
<glyph name="v" format="1">
  <advance width="436"/>
  <unicode hex="0076"/>
  <outline>
    <contour>
      <point x="423" y="460" type="curve" smooth="yes"/>
      <point x="244" y="17" type="line" smooth="yes"/>
      <point x="239" y="6"/>
      <point x="231" y="-1"/>
      <point x="218" y="-1" type="curve" smooth="yes"/>
      <point x="206" y="-1"/>
      <point x="196" y="8"/>
      <point x="192" y="19" type="curve" smooth="yes"/>
      <point x="12" y="462" type="line" smooth="yes"/>
      <point x="11" y="465"/>
      <point x="10" y="468"/>
      <point x="10" y="471" type="curve" smooth="yes"/>
      <point x="10" y="487"/>
      <point x="23" y="499"/>
      <point x="39" y="499" type="curve" smooth="yes"/>
      <point x="52" y="499"/>
      <point x="60" y="492"/>
      <point x="65" y="480" type="curve" smooth="yes"/>
      <point x="218" y="94" type="line"/>
      <point x="372" y="483" type="line" smooth="yes"/>
      <point x="376" y="493"/>
      <point x="386" y="500"/>
      <point x="398" y="500" type="curve" smooth="yes"/>
      <point x="413" y="500"/>
      <point x="426" y="487"/>
      <point x="426" y="472" type="curve" smooth="yes"/>
      <point x="426" y="467"/>
      <point x="424" y="463"/>
    </contour>
  </outline>
</glyph>
<glyph name="w" format="1">
  <advance width="594"/>
  <unicode hex="0077"/>
  <outline>
    <contour>
      <point x="584" y="471" type="curve" smooth="yes"/>
      <point x="584" y="468"/>
      <point x="583" y="465"/>
      <point x="582" y="462" type="curve" smooth="yes"/>
      <point x="441" y="22" type="line" smooth="yes"/>
      <point x="437" y="9"/>
      <point x="428" y="0"/>
      <point x="414" y="0" type="curve" smooth="yes"/>
      <point x="401" y="0"/>
      <point x="390" y="9"/>
      <point x="387" y="22" type="curve" smooth="yes"/>
      <point x="293" y="391" type="line"/>
      <point x="159" y="21" type="line" smooth="yes"/>
      <point x="155" y="9"/>
      <point x="145" y="0"/>
      <point x="133" y="0" type="curve" smooth="yes"/>
      <point x="119" y="0"/>
      <point x="107" y="11"/>
      <point x="104" y="24" type="curve" smooth="yes"/>
      <point x="12" y="458" type="line" smooth="yes"/>
      <point x="11" y="462"/>
      <point x="10" y="469"/>
      <point x="10" y="472" type="curve" smooth="yes"/>
      <point x="10" y="487"/>
      <point x="22" y="500"/>
      <point x="37" y="500" type="curve" smooth="yes"/>
      <point x="52" y="500"/>
      <point x="62" y="490"/>
      <point x="65" y="476" type="curve" smooth="yes"/>
      <point x="138" y="104" type="line"/>
      <point x="268" y="479" type="line" smooth="yes"/>
      <point x="271" y="489"/>
      <point x="283" y="500"/>
      <point x="297" y="500" type="curve" smooth="yes"/>
      <point x="311" y="500"/>
      <point x="323" y="487"/>
      <point x="326" y="474" type="curve" smooth="yes"/>
      <point x="416" y="99" type="line"/>
      <point x="529" y="477" type="line" smooth="yes"/>
      <point x="532" y="489"/>
      <point x="543" y="499"/>
      <point x="556" y="499" type="curve" smooth="yes"/>
      <point x="571" y="499"/>
      <point x="584" y="486"/>
    </contour>
  </outline>
</glyph>
<glyph name="x" format="1">
  <advance width="510"/>
  <unicode hex="0078"/>
  <outline>
    <contour>
      <point x="491" y="451" type="curve"/>
      <point x="299" y="255" type="line"/>
      <point x="474" y="45" type="line" smooth="yes"/>
      <point x="478" y="40"/>
      <point x="480" y="34"/>
      <point x="480" y="28" type="curve" smooth="yes"/>
      <point x="480" y="12"/>
      <point x="467" y="0"/>
      <point x="452" y="0" type="curve" smooth="yes"/>
      <point x="445" y="0"/>
      <point x="437" y="2"/>
      <point x="432" y="8" type="curve" smooth="yes"/>
      <point x="259" y="220" type="line"/>
      <point x="58" y="9" type="line" smooth="yes"/>
      <point x="52" y="3"/>
      <point x="45" y="1"/>
      <point x="38" y="1" type="curve" smooth="yes"/>
      <point x="23" y="1"/>
      <point x="11" y="14"/>
      <point x="11" y="29" type="curve" smooth="yes"/>
      <point x="11" y="36"/>
      <point x="13" y="43"/>
      <point x="19" y="49" type="curve" smooth="yes"/>
      <point x="223" y="258" type="line"/>
      <point x="60" y="452" type="line" smooth="yes"/>
      <point x="55" y="458"/>
      <point x="52" y="465"/>
      <point x="52" y="472" type="curve" smooth="yes"/>
      <point x="52" y="487"/>
      <point x="64" y="500"/>
      <point x="79" y="500" type="curve" smooth="yes"/>
      <point x="86" y="500"/>
      <point x="94" y="499"/>
      <point x="99" y="492" type="curve" smooth="yes"/>
      <point x="262" y="293" type="line"/>
      <point x="451" y="490" type="line" smooth="yes"/>
      <point x="456" y="495"/>
      <point x="464" y="498"/>
      <point x="471" y="498" type="curve" smooth="yes"/>
      <point x="486" y="498"/>
      <point x="499" y="485"/>
      <point x="499" y="470" type="curve" smooth="yes"/>
      <point x="499" y="463"/>
      <point x="496" y="456"/>
    </contour>
  </outline>
</glyph>
<glyph name="y" format="1">
  <advance width="489"/>
  <unicode hex="0079"/>
  <outline>
    <contour>
      <point x="467" y="461" type="curve" smooth="yes"/>
      <point x="173" y="-179" type="line" smooth="yes"/>
      <point x="169" y="-189"/>
      <point x="159" y="-197"/>
      <point x="146" y="-197" type="curve" smooth="yes"/>
      <point x="131" y="-197"/>
      <point x="118" y="-184"/>
      <point x="118" y="-168" type="curve" smooth="yes"/>
      <point x="118" y="-164"/>
      <point x="119" y="-160"/>
      <point x="121" y="-156" type="curve" smooth="yes"/>
      <point x="220" y="61" type="line"/>
      <point x="24" y="456" type="line" smooth="yes"/>
      <point x="22" y="460"/>
      <point x="20" y="466"/>
      <point x="20" y="471" type="curve" smooth="yes"/>
      <point x="20" y="487"/>
      <point x="32" y="500"/>
      <point x="48" y="500" type="curve" smooth="yes"/>
      <point x="60" y="500"/>
      <point x="70" y="491"/>
      <point x="75" y="481" type="curve" smooth="yes"/>
      <point x="251" y="127" type="line"/>
      <point x="414" y="483" type="line" smooth="yes"/>
      <point x="418" y="493"/>
      <point x="428" y="501"/>
      <point x="441" y="501" type="curve" smooth="yes"/>
      <point x="456" y="501"/>
      <point x="469" y="489"/>
      <point x="469" y="473" type="curve" smooth="yes"/>
      <point x="469" y="469"/>
      <point x="469" y="465"/>
    </contour>
  </outline>
</glyph>
<glyph name="z" format="1">
  <advance width="509"/>
  <unicode hex="007A"/>
  <outline>
    <contour>
      <point x="459" y="28" type="curve" smooth="yes"/>
      <point x="459" y="13"/>
      <point x="446" y="0"/>
      <point x="431" y="0" type="curve" smooth="yes"/>
      <point x="78" y="0" type="line" smooth="yes"/>
      <point x="63" y="0"/>
      <point x="50" y="13"/>
      <point x="50" y="28" type="curve" smooth="yes"/>
      <point x="50" y="35"/>
      <point x="52" y="40"/>
      <point x="56" y="45" type="curve" smooth="yes"/>
      <point x="373" y="445" type="line"/>
      <point x="89" y="445" type="line" smooth="yes"/>
      <point x="73" y="445"/>
      <point x="61" y="457"/>
      <point x="61" y="473" type="curve" smooth="yes"/>
      <point x="61" y="488"/>
      <point x="73" y="501"/>
      <point x="89" y="501" type="curve" smooth="yes"/>
      <point x="426" y="501" type="line" smooth="yes"/>
      <point x="441" y="501"/>
      <point x="454" y="488"/>
      <point x="454" y="473" type="curve" smooth="yes"/>
      <point x="454" y="466"/>
      <point x="453" y="462"/>
      <point x="448" y="456" type="curve" smooth="yes"/>
      <point x="131" y="56" type="line"/>
      <point x="431" y="56" type="line" smooth="yes"/>
      <point x="446" y="56"/>
      <point x="459" y="43"/>
    </contour>
  </outline>
</glyph>
<glyph name="braceright" format="1">
  <advance width="376"/>
  <unicode hex="007D"/>
  <outline>
    <contour>
      <point x="176" y="458" type="curve" smooth="yes"/>
      <point x="176" y="662" type="line" smooth="yes"/>
      <point x="176" y="727"/>
      <point x="115" y="747"/>
      <point x="80" y="754" type="curve"/>
      <point x="64" y="756"/>
      <point x="54" y="767"/>
      <point x="54" y="781" type="curve" smooth="yes"/>
      <point x="54" y="797.383"/>
      <point x="65.8953" y="807.817"/>
      <point x="82.6345" y="807.817" type="curve" smooth="yes"/>
      <point x="85.3089" y="807.817"/>
      <point x="88.107" y="807.551"/>
      <point x="91" y="807" type="curve" smooth="yes"/>
      <point x="152" y="795"/>
      <point x="230" y="757"/>
      <point x="230" y="662" type="curve" smooth="yes"/>
      <point x="230" y="457" type="line" smooth="yes"/>
      <point x="230" y="406"/>
      <point x="260" y="373"/>
      <point x="297" y="359" type="curve" smooth="yes"/>
      <point x="310" y="354"/>
      <point x="315" y="343"/>
      <point x="315" y="334" type="curve" smooth="yes"/>
      <point x="315" y="320"/>
      <point x="311" y="316"/>
      <point x="298" y="310" type="curve" smooth="yes"/>
      <point x="244" y="283"/>
      <point x="230" y="252"/>
      <point x="230" y="211" type="curve" smooth="yes"/>
      <point x="230" y="22" type="line" smooth="yes"/>
      <point x="230" y="-74"/>
      <point x="148" y="-114"/>
      <point x="86" y="-124" type="curve" smooth="yes"/>
      <point x="84.4281" y="-124.248"/>
      <point x="82.8973" y="-124.366"/>
      <point x="81.4116" y="-124.366" type="curve" smooth="yes"/>
      <point x="64.938" y="-124.366"/>
      <point x="54" y="-109.842"/>
      <point x="54" y="-97" type="curve" smooth="yes"/>
      <point x="54" y="-83"/>
      <point x="62" y="-73"/>
      <point x="80" y="-70" type="curve" smooth="yes"/>
      <point x="115" y="-64"/>
      <point x="176" y="-43"/>
      <point x="176" y="22" type="curve" smooth="yes"/>
      <point x="176" y="210" type="line" smooth="yes"/>
      <point x="176" y="265"/>
      <point x="200" y="306"/>
      <point x="235" y="334" type="curve"/>
      <point x="202" y="359"/>
      <point x="176" y="400"/>
    </contour>
  </outline>
</glyph>
<glyph name="exclamdown" format="1">
  <advance width="196"/>
  <unicode hex="00A1"/>
  <outline>
    <contour>
      <point x="115" y="315" type="curve" smooth="yes"/>
      <point x="114" y="-167" type="line" smooth="yes"/>
      <point x="114" y="-183"/>
      <point x="101" y="-197"/>
      <point x="85" y="-197" type="curve" smooth="yes"/>
      <point x="69" y="-197"/>
      <point x="56" y="-183"/>
      <point x="56" y="-167" type="curve" smooth="yes"/>
      <point x="57" y="315" type="line" smooth="yes"/>
      <point x="57" y="331"/>
      <point x="70" y="344"/>
      <point x="86" y="344" type="curve" smooth="yes"/>
      <point x="102" y="344"/>
      <point x="115" y="331"/>
    </contour>
    <contour>
      <point x="55" y="449" type="curve" smooth="yes"/>
      <point x="55" y="476"/>
      <point x="75" y="496"/>
      <point x="95" y="496" type="curve" smooth="yes"/>
      <point x="114" y="496"/>
      <point x="127" y="480"/>
      <point x="127" y="459" type="curve" smooth="yes"/>
      <point x="127" y="435"/>
      <point x="108" y="413"/>
      <point x="87" y="413" type="curve" smooth="yes"/>
      <point x="68" y="413"/>
      <point x="55" y="430"/>
    </contour>
  </outline>
</glyph>
<glyph name="yen" format="1">
  <advance width="573"/>
  <unicode hex="00A5"/>
  <outline>
    <contour>
      <point x="469" y="694" type="curve" smooth="yes"/>
      <point x="484" y="694"/>
      <point x="498" y="681"/>
      <point x="498" y="665" type="curve" smooth="yes"/>
      <point x="498" y="661"/>
      <point x="497" y="656"/>
      <point x="495" y="652" type="curve" smooth="yes"/>
      <point x="326" y="342" type="line"/>
      <point x="420" y="342" type="line" smooth="yes"/>
      <point x="435" y="342"/>
      <point x="447" y="330"/>
      <point x="447" y="315" type="curve" smooth="yes"/>
      <point x="447" y="300"/>
      <point x="435" y="288"/>
      <point x="420" y="288" type="curve" smooth="yes"/>
      <point x="303" y="288" type="line"/>
      <point x="303" y="188" type="line"/>
      <point x="420" y="188" type="line" smooth="yes"/>
      <point x="435" y="188"/>
      <point x="447" y="176"/>
      <point x="447" y="161" type="curve" smooth="yes"/>
      <point x="447" y="146"/>
      <point x="435" y="134"/>
      <point x="420" y="134" type="curve" smooth="yes"/>
      <point x="303" y="134" type="line"/>
      <point x="303" y="28" type="line" smooth="yes"/>
      <point x="303" y="13"/>
      <point x="291" y="0"/>
      <point x="275" y="0" type="curve" smooth="yes"/>
      <point x="260" y="0"/>
      <point x="247" y="13"/>
      <point x="247" y="28" type="curve" smooth="yes"/>
      <point x="247" y="134" type="line"/>
      <point x="131" y="134" type="line" smooth="yes"/>
      <point x="116" y="134"/>
      <point x="104" y="146"/>
      <point x="104" y="161" type="curve" smooth="yes"/>
      <point x="104" y="176"/>
      <point x="116" y="188"/>
      <point x="131" y="188" type="curve" smooth="yes"/>
      <point x="247" y="188" type="line"/>
      <point x="247" y="288" type="line"/>
      <point x="131" y="288" type="line" smooth="yes"/>
      <point x="116" y="288"/>
      <point x="104" y="300"/>
      <point x="104" y="315" type="curve" smooth="yes"/>
      <point x="104" y="330"/>
      <point x="116" y="342"/>
      <point x="131" y="342" type="curve" smooth="yes"/>
      <point x="226" y="342" type="line"/>
      <point x="72" y="652" type="line" smooth="yes"/>
      <point x="70" y="656"/>
      <point x="69" y="660"/>
      <point x="69" y="664" type="curve" smooth="yes"/>
      <point x="69" y="678"/>
      <point x="81" y="692"/>
      <point x="98" y="692" type="curve" smooth="yes"/>
      <point x="108" y="692"/>
      <point x="117" y="687"/>
      <point x="122" y="677" type="curve" smooth="yes"/>
      <point x="276" y="368" type="line"/>
      <point x="445" y="679" type="line" smooth="yes"/>
      <point x="450" y="688"/>
      <point x="460" y="694"/>
    </contour>
  </outline>
</glyph>
<glyph name="copyright" format="1">
  <advance width="544"/>
  <unicode hex="00A9"/>
  <outline>
    <contour>
      <point x="272" y="236" type="curve" smooth="yes"/>
      <point x="150" y="236"/>
      <point x="50" y="338"/>
      <point x="50" y="463" type="curve" smooth="yes"/>
      <point x="50" y="588"/>
      <point x="150" y="690"/>
      <point x="272" y="690" type="curve" smooth="yes"/>
      <point x="394" y="690"/>
      <point x="494" y="588"/>
      <point x="494" y="463" type="curve" smooth="yes"/>
      <point x="494" y="338"/>
      <point x="394" y="236"/>
    </contour>
    <contour>
      <point x="272" y="644" type="curve" smooth="yes"/>
      <point x="175" y="644"/>
      <point x="96" y="563"/>
      <point x="96" y="463" type="curve" smooth="yes"/>
      <point x="96" y="363"/>
      <point x="175" y="282"/>
      <point x="272" y="282" type="curve" smooth="yes"/>
      <point x="369" y="282"/>
      <point x="448" y="363"/>
      <point x="448" y="463" type="curve" smooth="yes"/>
      <point x="448" y="563"/>
      <point x="369" y="644"/>
    </contour>
    <contour>
      <point x="376" y="403" type="curve"/>
      <point x="357" y="376"/>
      <point x="322" y="348"/>
      <point x="264" y="348" type="curve" smooth="yes"/>
      <point x="200" y="348"/>
      <point x="146" y="401"/>
      <point x="146" y="464" type="curve" smooth="yes"/>
      <point x="146" y="541"/>
      <point x="197" y="591"/>
      <point x="274" y="591" type="curve" smooth="yes"/>
      <point x="306" y="591"/>
      <point x="332" y="577"/>
      <point x="349" y="565" type="curve"/>
      <point x="357" y="558"/>
      <point x="361" y="552"/>
      <point x="361" y="544" type="curve" smooth="yes"/>
      <point x="361" y="531"/>
      <point x="351" y="521"/>
      <point x="338" y="521" type="curve" smooth="yes"/>
      <point x="332" y="521"/>
      <point x="327" y="523"/>
      <point x="321" y="528" type="curve" smooth="yes"/>
      <point x="311" y="536"/>
      <point x="294" y="545"/>
      <point x="274" y="545" type="curve" smooth="yes"/>
      <point x="201" y="545"/>
      <point x="193" y="489"/>
      <point x="193" y="464" type="curve" smooth="yes"/>
      <point x="193" y="422"/>
      <point x="230" y="394"/>
      <point x="264" y="394" type="curve" smooth="yes"/>
      <point x="293" y="394"/>
      <point x="325" y="405"/>
      <point x="336" y="427" type="curve" smooth="yes"/>
      <point x="343" y="439"/>
      <point x="351" y="443"/>
      <point x="359" y="443" type="curve" smooth="yes"/>
      <point x="372" y="443"/>
      <point x="382" y="433"/>
      <point x="382" y="420" type="curve" smooth="yes"/>
      <point x="382" y="416"/>
      <point x="381" y="412"/>
    </contour>
  </outline>
</glyph>
<glyph name="registered" format="1">
  <advance width="544"/>
  <unicode hex="00AE"/>
  <outline>
    <contour>
      <point x="272" y="236" type="curve" smooth="yes"/>
      <point x="149" y="236"/>
      <point x="50" y="338"/>
      <point x="50" y="463" type="curve" smooth="yes"/>
      <point x="50" y="588"/>
      <point x="149" y="690"/>
      <point x="272" y="690" type="curve" smooth="yes"/>
      <point x="394" y="690"/>
      <point x="494" y="588"/>
      <point x="494" y="463" type="curve" smooth="yes"/>
      <point x="494" y="338"/>
      <point x="394" y="236"/>
    </contour>
    <contour>
      <point x="272" y="644" type="curve" smooth="yes"/>
      <point x="175" y="644"/>
      <point x="96" y="563"/>
      <point x="96" y="463" type="curve" smooth="yes"/>
      <point x="96" y="363"/>
      <point x="175" y="282"/>
      <point x="272" y="282" type="curve" smooth="yes"/>
      <point x="369" y="282"/>
      <point x="448" y="363"/>
      <point x="448" y="463" type="curve" smooth="yes"/>
      <point x="448" y="563"/>
      <point x="369" y="644"/>
    </contour>
    <contour>
      <point x="388" y="520" type="curve" smooth="yes"/>
      <point x="388" y="477"/>
      <point x="335" y="457"/>
      <point x="288" y="447" type="curve"/>
      <point x="350" y="405" type="line" smooth="yes"/>
      <point x="357" y="401"/>
      <point x="361" y="393"/>
      <point x="361" y="385" type="curve" smooth="yes"/>
      <point x="361" y="372"/>
      <point x="351" y="362"/>
      <point x="338" y="362" type="curve" smooth="yes"/>
      <point x="333" y="362"/>
      <point x="328" y="364"/>
      <point x="325" y="366" type="curve" smooth="yes"/>
      <point x="222" y="437" type="line"/>
      <point x="213" y="384" type="line" smooth="yes"/>
      <point x="211" y="372"/>
      <point x="202" y="363"/>
      <point x="190" y="363" type="curve" smooth="yes"/>
      <point x="176" y="363"/>
      <point x="165" y="376"/>
      <point x="167" y="390" type="curve" smooth="yes"/>
      <point x="196" y="567" type="line" smooth="yes"/>
      <point x="199" y="585"/>
      <point x="199" y="590"/>
      <point x="273" y="590" type="curve" smooth="yes"/>
      <point x="347" y="590"/>
      <point x="388" y="563"/>
    </contour>
    <contour>
      <point x="230" y="485" type="line"/>
      <point x="292" y="491"/>
      <point x="342" y="510"/>
      <point x="342" y="520" type="curve" smooth="yes"/>
      <point x="342" y="538"/>
      <point x="300" y="544"/>
      <point x="265" y="544" type="curve" smooth="yes"/>
      <point x="256" y="544"/>
      <point x="247" y="544"/>
      <point x="239" y="543" type="curve"/>
    </contour>
  </outline>
</glyph>
<glyph name="macron" format="1">
  <advance width="500"/>
  <unicode hex="00AF"/>
  <outline>
    <contour>
      <point x="354" y="600" type="curve" smooth="yes"/>
      <point x="145" y="600" type="line" smooth="yes"/>
      <point x="131" y="600"/>
      <point x="120" y="612"/>
      <point x="120" y="626" type="curve" smooth="yes"/>
      <point x="120" y="640"/>
      <point x="131" y="651"/>
      <point x="145" y="651" type="curve" smooth="yes"/>
      <point x="354" y="651" type="line" smooth="yes"/>
      <point x="368" y="651"/>
      <point x="379" y="640"/>
      <point x="379" y="626" type="curve" smooth="yes"/>
      <point x="379" y="612"/>
      <point x="368" y="600"/>
    </contour>
  </outline>
</glyph>
<glyph name="degree" format="1">
  <advance width="243"/>
  <unicode hex="00B0"/>
  <outline>
    <contour>
      <point x="122" y="464" type="curve" smooth="yes"/>
      <point x="55" y="464"/>
      <point x="0" y="519"/>
      <point x="0" y="586" type="curve" smooth="yes"/>
      <point x="0" y="653"/>
      <point x="55" y="708"/>
      <point x="122" y="708" type="curve" smooth="yes"/>
      <point x="189" y="708"/>
      <point x="243" y="653"/>
      <point x="243" y="586" type="curve" smooth="yes"/>
      <point x="243" y="519"/>
      <point x="189" y="464"/>
    </contour>
    <contour>
      <point x="122" y="662" type="curve" smooth="yes"/>
      <point x="80" y="662"/>
      <point x="45" y="628"/>
      <point x="45" y="586" type="curve" smooth="yes"/>
      <point x="45" y="544"/>
      <point x="80" y="510"/>
      <point x="122" y="510" type="curve" smooth="yes"/>
      <point x="164" y="510"/>
      <point x="198" y="544"/>
      <point x="198" y="586" type="curve" smooth="yes"/>
      <point x="198" y="628"/>
      <point x="164" y="662"/>
    </contour>
  </outline>
</glyph>
<glyph name="acute" format="1">
  <advance width="500"/>
  <unicode hex="00B4"/>
  <outline>
    <contour>
      <point x="337" y="666" type="curve" smooth="yes"/>
      <point x="199" y="572" type="line" smooth="yes"/>
      <point x="192" y="567"/>
      <point x="184" y="563"/>
      <point x="178" y="563" type="curve" smooth="yes"/>
      <point x="164" y="563"/>
      <point x="152" y="575"/>
      <point x="152" y="590" type="curve" smooth="yes"/>
      <point x="152" y="596"/>
      <point x="153" y="603"/>
      <point x="158" y="607" type="curve" smooth="yes"/>
      <point x="284" y="710" type="line" smooth="yes"/>
      <point x="292" y="717"/>
      <point x="302" y="725"/>
      <point x="313" y="725" type="curve" smooth="yes"/>
      <point x="332" y="725"/>
      <point x="347" y="709"/>
      <point x="347" y="689" type="curve" smooth="yes"/>
      <point x="347" y="680"/>
      <point x="344" y="671"/>
    </contour>
  </outline>
</glyph>
<glyph name="mu" format="1">
  <advance width="500"/>
  <unicode hex="00B5"/>
  <outline>
    <contour>
      <point x="65" y="256" type="curve" smooth="yes"/>
      <point x="64.8053" y="263.498"/>
      <point x="64.7148" y="271.166"/>
      <point x="64.7148" y="278.936" type="curve" smooth="yes"/>
      <point x="64.7148" y="350.961"/>
      <point x="72.4869" y="431.7"/>
      <point x="77" y="466" type="curve" smooth="yes"/>
      <point x="81" y="495"/>
      <point x="90" y="500"/>
      <point x="104" y="500" type="curve" smooth="yes"/>
      <point x="118.492" y="500"/>
      <point x="132.051" y="489.732"/>
      <point x="132.051" y="475.51" type="curve" smooth="yes"/>
      <point x="132.051" y="449.8"/>
      <point x="119" y="385.363"/>
      <point x="119" y="292" type="curve" smooth="yes"/>
      <point x="119" y="106"/>
      <point x="136" y="46"/>
      <point x="216" y="46" type="curve" smooth="yes"/>
      <point x="285" y="46"/>
      <point x="355" y="94"/>
      <point x="376" y="118" type="curve" smooth="yes"/>
      <point x="389" y="133"/>
      <point x="389" y="161"/>
      <point x="389" y="161" type="curve"/>
      <point x="394" y="475" type="line" smooth="yes"/>
      <point x="394" y="490"/>
      <point x="406" y="500"/>
      <point x="420" y="500" type="curve" smooth="yes"/>
      <point x="434" y="500"/>
      <point x="446" y="490"/>
      <point x="446" y="475" type="curve" smooth="yes"/>
      <point x="446" y="28" type="line" smooth="yes"/>
      <point x="446" y="13"/>
      <point x="432" y="0"/>
      <point x="416" y="0" type="curve" smooth="yes"/>
      <point x="397" y="0"/>
      <point x="385" y="15"/>
      <point x="385" y="33" type="curve" smooth="yes"/>
      <point x="385" y="76" type="line"/>
      <point x="360" y="40"/>
      <point x="293" y="-3"/>
      <point x="216" y="-3" type="curve" smooth="yes"/>
      <point x="164" y="-3"/>
      <point x="132" y="18"/>
      <point x="132" y="18" type="curve"/>
      <point x="135" y="-26"/>
      <point x="144" y="-101"/>
      <point x="152" y="-149" type="curve" smooth="yes"/>
      <point x="152.377" y="-150.885"/>
      <point x="152.564" y="-152.801"/>
      <point x="152.564" y="-154.712" type="curve" smooth="yes"/>
      <point x="152.564" y="-168.004"/>
      <point x="143.487" y="-181"/>
      <point x="126" y="-181" type="curve" smooth="yes"/>
      <point x="113" y="-181"/>
      <point x="101" y="-172"/>
      <point x="99" y="-159" type="curve" smooth="yes"/>
      <point x="93" y="-122"/>
      <point x="86" y="-83"/>
      <point x="80" y="0" type="curve" smooth="yes"/>
      <point x="77" y="41"/>
      <point x="68" y="158"/>
    </contour>
  </outline>
</glyph>
<glyph name="periodcentered" format="1">
  <advance width="172"/>
  <unicode hex="00B7"/>
  <outline>
    <contour>
      <point x="82" y="210" type="curve" smooth="yes"/>
      <point x="63" y="210"/>
      <point x="50" y="227"/>
      <point x="50" y="248" type="curve" smooth="yes"/>
      <point x="50" y="271"/>
      <point x="69" y="293"/>
      <point x="90" y="293" type="curve" smooth="yes"/>
      <point x="108" y="293"/>
      <point x="122" y="277"/>
      <point x="122" y="257" type="curve" smooth="yes"/>
      <point x="122" y="231"/>
      <point x="103" y="210"/>
    </contour>
  </outline>
</glyph>
<glyph name="ordmasculine" format="1">
  <advance width="277"/>
  <unicode hex="00BA"/>
  <outline>
    <contour>
      <point x="129" y="347" type="curve" smooth="yes"/>
      <point x="60" y="347"/>
      <point x="0" y="409"/>
      <point x="0" y="491" type="curve" smooth="yes"/>
      <point x="0" y="572"/>
      <point x="56" y="663"/>
      <point x="148" y="663" type="curve" smooth="yes"/>
      <point x="217" y="663"/>
      <point x="277" y="604"/>
      <point x="277" y="515" type="curve" smooth="yes"/>
      <point x="277" y="449"/>
      <point x="229" y="347"/>
    </contour>
    <contour>
      <point x="145" y="618" type="curve" smooth="yes"/>
      <point x="97" y="618"/>
      <point x="51" y="562"/>
      <point x="51" y="494" type="curve" smooth="yes"/>
      <point x="51" y="439"/>
      <point x="84" y="392"/>
      <point x="129" y="392" type="curve" smooth="yes"/>
      <point x="176" y="392"/>
      <point x="226" y="444"/>
      <point x="226" y="515" type="curve" smooth="yes"/>
      <point x="226" y="567"/>
      <point x="191" y="618"/>
    </contour>
  </outline>
</glyph>
<glyph name="Adieresis" format="1">
  <advance width="624"/>
  <unicode hex="00C4"/>
  <outline>
    <contour>
      <point x="294" y="777" type="curve" smooth="yes"/>
      <point x="294" y="753"/>
      <point x="272" y="733"/>
      <point x="243" y="733" type="curve" smooth="yes"/>
      <point x="218" y="733"/>
      <point x="198" y="749"/>
      <point x="198" y="772" type="curve" smooth="yes"/>
      <point x="198" y="795"/>
      <point x="221" y="816"/>
      <point x="249" y="816" type="curve" smooth="yes"/>
      <point x="272" y="816"/>
      <point x="294" y="799"/>
    </contour>
    <contour>
      <point x="453" y="777" type="curve" smooth="yes"/>
      <point x="453" y="753"/>
      <point x="431" y="733"/>
      <point x="402" y="733" type="curve" smooth="yes"/>
      <point x="377" y="733"/>
      <point x="357" y="749"/>
      <point x="357" y="772" type="curve" smooth="yes"/>
      <point x="357" y="795"/>
      <point x="380" y="816"/>
      <point x="408" y="816" type="curve" smooth="yes"/>
      <point x="431" y="816"/>
      <point x="453" y="799"/>
    </contour>
    <contour>
      <point x="354" y="670" type="curve" smooth="yes"/>
      <point x="572" y="37" type="line" smooth="yes"/>
      <point x="573" y="34"/>
      <point x="573" y="31"/>
      <point x="573" y="28" type="curve" smooth="yes"/>
      <point x="573" y="13"/>
      <point x="562" y="-1"/>
      <point x="545" y="-1" type="curve" smooth="yes"/>
      <point x="533" y="-1"/>
      <point x="522" y="6"/>
      <point x="518" y="18" type="curve" smooth="yes"/>
      <point x="434" y="262" type="line"/>
      <point x="179" y="206" type="line"/>
      <point x="105" y="18" type="line" smooth="yes"/>
      <point x="101" y="7"/>
      <point x="90" y="0"/>
      <point x="79" y="0" type="curve" smooth="yes"/>
      <point x="62" y="0"/>
      <point x="50" y="15"/>
      <point x="50" y="29" type="curve" smooth="yes"/>
      <point x="50" y="32"/>
      <point x="51" y="36"/>
      <point x="52" y="39" type="curve" smooth="yes"/>
      <point x="112" y="192" type="line"/>
      <point x="96" y="188"/>
      <point x="94" y="188"/>
      <point x="92" y="188" type="curve" smooth="yes"/>
      <point x="76" y="188"/>
      <point x="63" y="200"/>
      <point x="63" y="217" type="curve" smooth="yes"/>
      <point x="63" y="230"/>
      <point x="72" y="241"/>
      <point x="85" y="244" type="curve" smooth="yes"/>
      <point x="137" y="256" type="line"/>
      <point x="300" y="671" type="line" smooth="yes"/>
      <point x="305" y="682"/>
      <point x="316" y="689"/>
      <point x="328" y="689" type="curve" smooth="yes"/>
      <point x="339" y="689"/>
      <point x="350" y="681"/>
    </contour>
    <contour>
      <point x="204" y="270" type="line"/>
      <point x="415" y="316" type="line"/>
      <point x="325" y="578" type="line"/>
    </contour>
  </outline>
</glyph>
<glyph name="Aring" format="1">
  <advance width="624"/>
  <unicode hex="00C5"/>
  <outline>
    <contour>
      <point x="322" y="721" type="curve" smooth="yes"/>
      <point x="260" y="721"/>
      <point x="208" y="766"/>
      <point x="208" y="823" type="curve" smooth="yes"/>
      <point x="208" y="891"/>
      <point x="276" y="940"/>
      <point x="344" y="940" type="curve" smooth="yes"/>
      <point x="404" y="940"/>
      <point x="457" y="895"/>
      <point x="457" y="837" type="curve" smooth="yes"/>
      <point x="457" y="768"/>
      <point x="389" y="721"/>
    </contour>
    <contour>
      <point x="340" y="893" type="curve" smooth="yes"/>
      <point x="286" y="893"/>
      <point x="250" y="853"/>
      <point x="250" y="823" type="curve" smooth="yes"/>
      <point x="250" y="788"/>
      <point x="285" y="767"/>
      <point x="331" y="767" type="curve" smooth="yes"/>
      <point x="366" y="767"/>
      <point x="415" y="793"/>
      <point x="415" y="835" type="curve" smooth="yes"/>
      <point x="415" y="864"/>
      <point x="383" y="893"/>
    </contour>
    <contour>
      <point x="354" y="670" type="curve" smooth="yes"/>
      <point x="572" y="37" type="line" smooth="yes"/>
      <point x="573" y="34"/>
      <point x="573" y="31"/>
      <point x="573" y="28" type="curve" smooth="yes"/>
      <point x="573" y="13"/>
      <point x="562" y="-1"/>
      <point x="545" y="-1" type="curve" smooth="yes"/>
      <point x="533" y="-1"/>
      <point x="522" y="6"/>
      <point x="518" y="18" type="curve" smooth="yes"/>
      <point x="434" y="262" type="line"/>
      <point x="179" y="206" type="line"/>
      <point x="105" y="18" type="line" smooth="yes"/>
      <point x="101" y="7"/>
      <point x="90" y="0"/>
      <point x="79" y="0" type="curve" smooth="yes"/>
      <point x="62" y="0"/>
      <point x="50" y="15"/>
      <point x="50" y="29" type="curve" smooth="yes"/>
      <point x="50" y="32"/>
      <point x="51" y="36"/>
      <point x="52" y="39" type="curve" smooth="yes"/>
      <point x="112" y="192" type="line"/>
      <point x="96" y="188"/>
      <point x="94" y="188"/>
      <point x="92" y="188" type="curve" smooth="yes"/>
      <point x="76" y="188"/>
      <point x="63" y="200"/>
      <point x="63" y="217" type="curve" smooth="yes"/>
      <point x="63" y="230"/>
      <point x="72" y="241"/>
      <point x="85" y="244" type="curve" smooth="yes"/>
      <point x="137" y="256" type="line"/>
      <point x="300" y="671" type="line" smooth="yes"/>
      <point x="305" y="682"/>
      <point x="316" y="689"/>
      <point x="328" y="689" type="curve" smooth="yes"/>
      <point x="339" y="689"/>
      <point x="350" y="681"/>
    </contour>
    <contour>
      <point x="204" y="270" type="line"/>
      <point x="415" y="316" type="line"/>
      <point x="325" y="578" type="line"/>
    </contour>
  </outline>
</glyph>
<glyph name="Ccedilla" format="1">
  <advance width="632"/>
  <unicode hex="00C7"/>
  <outline>
    <contour>
      <point x="264" y="-33" type="curve" smooth="yes"/>
      <point x="269" y="-17"/>
      <point x="274" y="-5"/>
      <point x="277" y="4" type="curve"/>
      <point x="148" y="32"/>
      <point x="50" y="148"/>
      <point x="50" y="296" type="curve" smooth="yes"/>
      <point x="50" y="500"/>
      <point x="208" y="684"/>
      <point x="346" y="684" type="curve" smooth="yes"/>
      <point x="415" y="684"/>
      <point x="461" y="664"/>
      <point x="492" y="644" type="curve"/>
      <point x="496" y="653"/>
      <point x="506" y="659"/>
      <point x="517" y="659" type="curve" smooth="yes"/>
      <point x="533" y="659"/>
      <point x="545" y="647"/>
      <point x="545" y="631" type="curve" smooth="yes"/>
      <point x="545" y="567" type="line" smooth="yes"/>
      <point x="545" y="551"/>
      <point x="533" y="538"/>
      <point x="517" y="538" type="curve" smooth="yes"/>
      <point x="501" y="538"/>
      <point x="488" y="551"/>
      <point x="488" y="567" type="curve" smooth="yes"/>
      <point x="488" y="572" type="line"/>
      <point x="468" y="593"/>
      <point x="431" y="627"/>
      <point x="346" y="627" type="curve" smooth="yes"/>
      <point x="234" y="627"/>
      <point x="107" y="460"/>
      <point x="107" y="296" type="curve" smooth="yes"/>
      <point x="107" y="124"/>
      <point x="248" y="55"/>
      <point x="338" y="55" type="curve" smooth="yes"/>
      <point x="410" y="55"/>
      <point x="477" y="81"/>
      <point x="530" y="150" type="curve" smooth="yes"/>
      <point x="537" y="159"/>
      <point x="544" y="161"/>
      <point x="552" y="161" type="curve" smooth="yes"/>
      <point x="567" y="161"/>
      <point x="581" y="151"/>
      <point x="581" y="133" type="curve" smooth="yes"/>
      <point x="581" y="127"/>
      <point x="580" y="121"/>
      <point x="576" y="116" type="curve" smooth="yes"/>
      <point x="519" y="40"/>
      <point x="434" y="-2"/>
      <point x="338" y="-2" type="curve" smooth="yes"/>
      <point x="329" y="-2"/>
      <point x="320" y="-2"/>
      <point x="312" y="-1" type="curve"/>
      <point x="311" y="-19" type="line"/>
      <point x="379" y="-19"/>
      <point x="413" y="-62"/>
      <point x="413" y="-110" type="curve" smooth="yes"/>
      <point x="413" y="-160"/>
      <point x="372" y="-201"/>
      <point x="322" y="-201" type="curve" smooth="yes"/>
      <point x="290" y="-201"/>
      <point x="243" y="-179"/>
      <point x="243" y="-146" type="curve" smooth="yes"/>
      <point x="243" y="-138"/>
      <point x="252" y="-128"/>
      <point x="264" y="-128" type="curve" smooth="yes"/>
      <point x="272" y="-128"/>
      <point x="277" y="-133"/>
      <point x="282" y="-139" type="curve" smooth="yes"/>
      <point x="290" y="-148"/>
      <point x="299" y="-159"/>
      <point x="322" y="-159" type="curve" smooth="yes"/>
      <point x="349" y="-159"/>
      <point x="371" y="-137"/>
      <point x="371" y="-110" type="curve" smooth="yes"/>
      <point x="371" y="-83"/>
      <point x="349" y="-61"/>
      <point x="322" y="-61" type="curve" smooth="yes"/>
      <point x="307" y="-61"/>
      <point x="298" y="-67"/>
      <point x="291" y="-71" type="curve" smooth="yes"/>
      <point x="287" y="-74"/>
      <point x="283" y="-76"/>
      <point x="279" y="-76" type="curve" smooth="yes"/>
      <point x="268" y="-76"/>
      <point x="258" y="-68"/>
      <point x="258" y="-56" type="curve" smooth="yes"/>
      <point x="258" y="-50"/>
      <point x="260" y="-43"/>
    </contour>
  </outline>
</glyph>
<glyph name="Igrave" format="1">
  <advance width="433"/>
  <unicode hex="00CC"/>
  <outline>
    <contour>
      <point x="246" y="56" type="line"/>
      <point x="345" y="56" type="line" smooth="yes"/>
      <point x="362" y="56"/>
      <point x="373" y="44"/>
      <point x="373" y="28" type="curve" smooth="yes"/>
      <point x="373" y="12"/>
      <point x="361" y="-1"/>
      <point x="345" y="-1" type="curve" smooth="yes"/>
      <point x="89" y="-1" type="line" smooth="yes"/>
      <point x="73" y="-1"/>
      <point x="60" y="12"/>
      <point x="60" y="28" type="curve" smooth="yes"/>
      <point x="60" y="44"/>
      <point x="73" y="56"/>
      <point x="89" y="56" type="curve" smooth="yes"/>
      <point x="189" y="56" type="line"/>
      <point x="189" y="624" type="line"/>
      <point x="89" y="624" type="line" smooth="yes"/>
      <point x="73" y="624"/>
      <point x="60" y="637"/>
      <point x="60" y="653" type="curve" smooth="yes"/>
      <point x="60" y="669"/>
      <point x="73" y="681"/>
      <point x="89" y="681" type="curve" smooth="yes"/>
      <point x="345" y="681" type="line" smooth="yes"/>
      <point x="361" y="681"/>
      <point x="373" y="669"/>
      <point x="373" y="653" type="curve" smooth="yes"/>
      <point x="373" y="637"/>
      <point x="361" y="624"/>
      <point x="345" y="624" type="curve" smooth="yes"/>
      <point x="246" y="624" type="line"/>
    </contour>
    <contour>
      <point x="251" y="725" type="curve" smooth="yes"/>
      <point x="133" y="846" type="line" smooth="yes"/>
      <point x="126" y="853"/>
      <point x="122" y="861"/>
      <point x="122" y="871" type="curve" smooth="yes"/>
      <point x="122" y="889"/>
      <point x="139" y="905"/>
      <point x="157" y="905" type="curve" smooth="yes"/>
      <point x="168" y="905"/>
      <point x="179" y="898"/>
      <point x="186" y="890" type="curve" smooth="yes"/>
      <point x="291" y="760" type="line" smooth="yes"/>
      <point x="296" y="753"/>
      <point x="298" y="748"/>
      <point x="298" y="742" type="curve" smooth="yes"/>
      <point x="298" y="727"/>
      <point x="284" y="716"/>
      <point x="270" y="716" type="curve" smooth="yes"/>
      <point x="262" y="716"/>
      <point x="256" y="720"/>
    </contour>
  </outline>
</glyph>
<glyph name="Icircumflex" format="1">
  <advance width="433"/>
  <unicode hex="00CE"/>
  <outline>
    <contour>
      <point x="246" y="56" type="line"/>
      <point x="345" y="56" type="line" smooth="yes"/>
      <point x="362" y="56"/>
      <point x="373" y="44"/>
      <point x="373" y="28" type="curve" smooth="yes"/>
      <point x="373" y="12"/>
      <point x="361" y="-1"/>
      <point x="345" y="-1" type="curve" smooth="yes"/>
      <point x="89" y="-1" type="line" smooth="yes"/>
      <point x="73" y="-1"/>
      <point x="60" y="12"/>
      <point x="60" y="28" type="curve" smooth="yes"/>
      <point x="60" y="44"/>
      <point x="73" y="56"/>
      <point x="89" y="56" type="curve" smooth="yes"/>
      <point x="189" y="56" type="line"/>
      <point x="189" y="624" type="line"/>
      <point x="89" y="624" type="line" smooth="yes"/>
      <point x="73" y="624"/>
      <point x="60" y="637"/>
      <point x="60" y="653" type="curve" smooth="yes"/>
      <point x="60" y="669"/>
      <point x="73" y="681"/>
      <point x="89" y="681" type="curve" smooth="yes"/>
      <point x="345" y="681" type="line" smooth="yes"/>
      <point x="361" y="681"/>
      <point x="373" y="669"/>
      <point x="373" y="653" type="curve" smooth="yes"/>
      <point x="373" y="637"/>
      <point x="361" y="624"/>
      <point x="345" y="624" type="curve" smooth="yes"/>
      <point x="246" y="624" type="line"/>
    </contour>
    <contour>
      <point x="253" y="887" type="curve" smooth="yes"/>
      <point x="363" y="777" type="line" smooth="yes"/>
      <point x="369" y="772"/>
      <point x="372" y="765"/>
      <point x="372" y="757" type="curve" smooth="yes"/>
      <point x="372" y="743"/>
      <point x="360" y="731"/>
      <point x="346" y="731" type="curve" smooth="yes"/>
      <point x="339" y="731"/>
      <point x="332" y="733"/>
      <point x="327" y="738" type="curve" smooth="yes"/>
      <point x="231" y="825" type="line"/>
      <point x="116" y="736" type="line" smooth="yes"/>
      <point x="111" y="732"/>
      <point x="105" y="731"/>
      <point x="99" y="731" type="curve" smooth="yes"/>
      <point x="85" y="731"/>
      <point x="73" y="742"/>
      <point x="73" y="757" type="curve" smooth="yes"/>
      <point x="73" y="765"/>
      <point x="76" y="773"/>
      <point x="83" y="778" type="curve" smooth="yes"/>
      <point x="214" y="888" type="line" smooth="yes"/>
      <point x="220" y="893"/>
      <point x="227" y="895"/>
      <point x="233" y="895" type="curve" smooth="yes"/>
      <point x="240" y="895"/>
      <point x="247" y="892"/>
    </contour>
  </outline>
</glyph>
<glyph name="Udieresis" format="1">
  <advance width="683"/>
  <unicode hex="00DC"/>
  <outline>
    <contour>
      <point x="616" y="653" type="curve" smooth="yes"/>
      <point x="617.851" y="594.691"/>
      <point x="619.916" y="536.168"/>
      <point x="619.916" y="477.233" type="curve" smooth="yes"/>
      <point x="619.916" y="408.815"/>
      <point x="617.133" y="339.84"/>
      <point x="608" y="270" type="curve" smooth="yes"/>
      <point x="587" y="110"/>
      <point x="510" y="0"/>
      <point x="333" y="0" type="curve" smooth="yes"/>
      <point x="165" y="0"/>
      <point x="76" y="125"/>
      <point x="67" y="367" type="curve" smooth="yes"/>
      <point x="65.4914" y="407.356"/>
      <point x="64.9785" y="446.005"/>
      <point x="64.9785" y="483.055" type="curve" smooth="yes"/>
      <point x="64.9785" y="544.238"/>
      <point x="66.3772" y="601.059"/>
      <point x="67" y="654" type="curve" smooth="yes"/>
      <point x="67" y="670"/>
      <point x="81" y="681"/>
      <point x="95" y="681" type="curve" smooth="yes"/>
      <point x="110" y="681"/>
      <point x="123" y="669"/>
      <point x="123" y="653" type="curve" smooth="yes"/>
      <point x="121.903" y="604.176"/>
      <point x="121.107" y="555.051"/>
      <point x="121.107" y="505.295" type="curve" smooth="yes"/>
      <point x="121.107" y="464.352"/>
      <point x="121.646" y="422.982"/>
      <point x="123" y="381" type="curve" smooth="yes"/>
      <point x="128" y="236"/>
      <point x="159" y="49"/>
      <point x="335" y="49" type="curve" smooth="yes"/>
      <point x="470" y="49"/>
      <point x="536" y="139"/>
      <point x="552" y="277" type="curve" smooth="yes"/>
      <point x="559.348" y="344.826"/>
      <point x="560.945" y="412.972"/>
      <point x="560.945" y="483.423" type="curve" smooth="yes"/>
      <point x="560.945" y="537.616"/>
      <point x="560" y="593.174"/>
      <point x="560" y="651" type="curve" smooth="yes"/>
      <point x="560" y="667"/>
      <point x="570" y="681"/>
      <point x="588" y="681" type="curve" smooth="yes"/>
      <point x="603" y="681"/>
      <point x="616" y="668"/>
    </contour>
    <contour>
      <point x="312" y="777" type="curve" smooth="yes"/>
      <point x="312" y="753"/>
      <point x="290" y="733"/>
      <point x="261" y="733" type="curve" smooth="yes"/>
      <point x="236" y="733"/>
      <point x="216" y="749"/>
      <point x="216" y="772" type="curve" smooth="yes"/>
      <point x="216" y="795"/>
      <point x="239" y="816"/>
      <point x="267" y="816" type="curve" smooth="yes"/>
      <point x="290" y="816"/>
      <point x="312" y="799"/>
    </contour>
    <contour>
      <point x="471" y="777" type="curve" smooth="yes"/>
      <point x="471" y="753"/>
      <point x="449" y="733"/>
      <point x="420" y="733" type="curve" smooth="yes"/>
      <point x="395" y="733"/>
      <point x="375" y="749"/>
      <point x="375" y="772" type="curve" smooth="yes"/>
      <point x="375" y="795"/>
      <point x="398" y="816"/>
      <point x="426" y="816" type="curve" smooth="yes"/>
      <point x="449" y="816"/>
      <point x="471" y="799"/>
    </contour>
  </outline>
</glyph>
<glyph name="Yacute" format="1">
  <advance width="593"/>
  <unicode hex="00DD"/>
  <outline>
    <contour>
      <point x="564" y="681" type="curve" smooth="yes"/>
      <point x="578" y="681"/>
      <point x="592" y="669"/>
      <point x="592" y="653" type="curve" smooth="yes"/>
      <point x="592" y="648"/>
      <point x="591" y="644"/>
      <point x="584" y="632" type="curve" smooth="yes"/>
      <point x="217" y="14" type="line" smooth="yes"/>
      <point x="212" y="5"/>
      <point x="203" y="0"/>
      <point x="193" y="0" type="curve" smooth="yes"/>
      <point x="177" y="0"/>
      <point x="165" y="14"/>
      <point x="165" y="28" type="curve" smooth="yes"/>
      <point x="165" y="34"/>
      <point x="168" y="41"/>
      <point x="171" y="46" type="curve" smooth="yes"/>
      <point x="271" y="214" type="line"/>
      <point x="26" y="635" type="line" smooth="yes"/>
      <point x="22" y="642"/>
      <point x="20" y="648"/>
      <point x="20" y="653" type="curve" smooth="yes"/>
      <point x="20" y="668"/>
      <point x="33" y="681"/>
      <point x="49" y="681" type="curve" smooth="yes"/>
      <point x="58" y="681"/>
      <point x="67" y="676"/>
      <point x="72" y="667" type="curve" smooth="yes"/>
      <point x="304" y="269" type="line"/>
      <point x="540" y="667" type="line" smooth="yes"/>
      <point x="545" y="676"/>
      <point x="554" y="681"/>
    </contour>
    <contour>
      <point x="404" y="853" type="curve" smooth="yes"/>
      <point x="266" y="759" type="line" smooth="yes"/>
      <point x="259" y="754"/>
      <point x="251" y="750"/>
      <point x="245" y="750" type="curve" smooth="yes"/>
      <point x="231" y="750"/>
      <point x="219" y="762"/>
      <point x="219" y="777" type="curve" smooth="yes"/>
      <point x="219" y="783"/>
      <point x="220" y="790"/>
      <point x="225" y="794" type="curve" smooth="yes"/>
      <point x="351" y="897" type="line" smooth="yes"/>
      <point x="359" y="904"/>
      <point x="369" y="912"/>
      <point x="380" y="912" type="curve" smooth="yes"/>
      <point x="399" y="912"/>
      <point x="414" y="896"/>
      <point x="414" y="876" type="curve" smooth="yes"/>
      <point x="414" y="867"/>
      <point x="411" y="858"/>
    </contour>
  </outline>
</glyph>
<glyph name="Thorn" format="1">
  <advance width="547"/>
  <unicode hex="00DE"/>
  <outline>
    <contour>
      <point x="118" y="572" type="line"/>
      <point x="266" y="572"/>
      <point x="474" y="553"/>
      <point x="474" y="375" type="curve" smooth="yes"/>
      <point x="474" y="198"/>
      <point x="258" y="146"/>
      <point x="116" y="143" type="curve"/>
      <point x="116" y="25" type="line" smooth="yes"/>
      <point x="116" y="11"/>
      <point x="105" y="0"/>
      <point x="90" y="0" type="curve" smooth="yes"/>
      <point x="76" y="0"/>
      <point x="65" y="11"/>
      <point x="65" y="26" type="curve" smooth="yes"/>
      <point x="67" y="655" type="line" smooth="yes"/>
      <point x="67" y="669"/>
      <point x="78" y="680"/>
      <point x="92" y="680" type="curve" smooth="yes"/>
      <point x="106" y="680"/>
      <point x="118" y="669"/>
      <point x="118" y="654" type="curve" smooth="yes"/>
    </contour>
    <contour>
      <point x="117" y="198" type="line"/>
      <point x="219" y="199"/>
      <point x="423" y="236"/>
      <point x="423" y="375" type="curve" smooth="yes"/>
      <point x="423" y="466"/>
      <point x="324" y="519"/>
      <point x="154" y="519" type="curve" smooth="yes"/>
      <point x="140" y="519"/>
      <point x="128" y="519"/>
      <point x="118" y="518" type="curve"/>
    </contour>
  </outline>
</glyph>
<glyph name="agrave" format="1">
  <advance width="505"/>
  <unicode hex="00E0"/>
  <outline>
    <contour>
      <point x="440" y="463" type="curve"/>
      <point x="440" y="20" type="line" smooth="yes"/>
      <point x="440" y="4"/>
      <point x="428" y="-10"/>
      <point x="412" y="-10" type="curve" smooth="yes"/>
      <point x="393" y="-10"/>
      <point x="384" y="5"/>
      <point x="384" y="22" type="curve" smooth="yes"/>
      <point x="384" y="45" type="line"/>
      <point x="348" y="23"/>
      <point x="293" y="-2"/>
      <point x="238" y="-2" type="curve" smooth="yes"/>
      <point x="130" y="-2"/>
      <point x="50" y="85"/>
      <point x="50" y="214" type="curve" smooth="yes"/>
      <point x="50" y="318"/>
      <point x="115" y="504"/>
      <point x="289" y="504" type="curve" smooth="yes"/>
      <point x="363" y="504"/>
      <point x="425" y="471"/>
    </contour>
    <contour>
      <point x="382" y="111" type="curve"/>
      <point x="386" y="428" type="line"/>
      <point x="367" y="436"/>
      <point x="326" y="449"/>
      <point x="292" y="449" type="curve" smooth="yes"/>
      <point x="155" y="449"/>
      <point x="107" y="299"/>
      <point x="107" y="216" type="curve" smooth="yes"/>
      <point x="107" y="146"/>
      <point x="141" y="53"/>
      <point x="236" y="53" type="curve" smooth="yes"/>
      <point x="297" y="53"/>
      <point x="359" y="95"/>
    </contour>
    <contour>
      <point x="328" y="567" type="curve" smooth="yes"/>
      <point x="210" y="688" type="line" smooth="yes"/>
      <point x="203" y="695"/>
      <point x="199" y="703"/>
      <point x="199" y="713" type="curve" smooth="yes"/>
      <point x="199" y="731"/>
      <point x="216" y="747"/>
      <point x="234" y="747" type="curve" smooth="yes"/>
      <point x="245" y="747"/>
      <point x="256" y="740"/>
      <point x="263" y="732" type="curve" smooth="yes"/>
      <point x="368" y="602" type="line" smooth="yes"/>
      <point x="373" y="595"/>
      <point x="375" y="590"/>
      <point x="375" y="584" type="curve" smooth="yes"/>
      <point x="375" y="569"/>
      <point x="361" y="558"/>
      <point x="347" y="558" type="curve" smooth="yes"/>
      <point x="339" y="558"/>
      <point x="333" y="562"/>
    </contour>
  </outline>
</glyph>
<glyph name="acircumflex" format="1">
  <advance width="505"/>
  <unicode hex="00E2"/>
  <outline>
    <contour>
      <point x="440" y="463" type="curve"/>
      <point x="440" y="20" type="line" smooth="yes"/>
      <point x="440" y="4"/>
      <point x="428" y="-10"/>
      <point x="412" y="-10" type="curve" smooth="yes"/>
      <point x="393" y="-10"/>
      <point x="384" y="5"/>
      <point x="384" y="22" type="curve" smooth="yes"/>
      <point x="384" y="45" type="line"/>
      <point x="348" y="23"/>
      <point x="293" y="-2"/>
      <point x="238" y="-2" type="curve" smooth="yes"/>
      <point x="130" y="-2"/>
      <point x="50" y="85"/>
      <point x="50" y="214" type="curve" smooth="yes"/>
      <point x="50" y="318"/>
      <point x="115" y="504"/>
      <point x="289" y="504" type="curve" smooth="yes"/>
      <point x="363" y="504"/>
      <point x="425" y="471"/>
    </contour>
    <contour>
      <point x="382" y="111" type="curve"/>
      <point x="386" y="428" type="line"/>
      <point x="367" y="436"/>
      <point x="326" y="449"/>
      <point x="292" y="449" type="curve" smooth="yes"/>
      <point x="155" y="449"/>
      <point x="107" y="299"/>
      <point x="107" y="216" type="curve" smooth="yes"/>
      <point x="107" y="146"/>
      <point x="141" y="53"/>
      <point x="236" y="53" type="curve" smooth="yes"/>
      <point x="297" y="53"/>
      <point x="359" y="95"/>
    </contour>
    <contour>
      <point x="327" y="730" type="curve" smooth="yes"/>
      <point x="437" y="620" type="line" smooth="yes"/>
      <point x="443" y="615"/>
      <point x="446" y="608"/>
      <point x="446" y="600" type="curve" smooth="yes"/>
      <point x="446" y="586"/>
      <point x="434" y="574"/>
      <point x="420" y="574" type="curve" smooth="yes"/>
      <point x="413" y="574"/>
      <point x="406" y="576"/>
      <point x="401" y="581" type="curve" smooth="yes"/>
      <point x="305" y="668" type="line"/>
      <point x="190" y="579" type="line" smooth="yes"/>
      <point x="185" y="575"/>
      <point x="179" y="574"/>
      <point x="173" y="574" type="curve" smooth="yes"/>
      <point x="159" y="574"/>
      <point x="147" y="585"/>
      <point x="147" y="600" type="curve" smooth="yes"/>
      <point x="147" y="608"/>
      <point x="150" y="616"/>
      <point x="157" y="621" type="curve" smooth="yes"/>
      <point x="288" y="731" type="line" smooth="yes"/>
      <point x="294" y="736"/>
      <point x="301" y="738"/>
      <point x="307" y="738" type="curve" smooth="yes"/>
      <point x="314" y="738"/>
      <point x="321" y="735"/>
    </contour>
  </outline>
</glyph>
<glyph name="aring" format="1">
  <advance width="505"/>
  <unicode hex="00E5"/>
  <outline>
    <contour>
      <point x="440" y="463" type="curve"/>
      <point x="440" y="20" type="line" smooth="yes"/>
      <point x="440" y="4"/>
      <point x="428" y="-10"/>
      <point x="412" y="-10" type="curve" smooth="yes"/>
      <point x="393" y="-10"/>
      <point x="384" y="5"/>
      <point x="384" y="22" type="curve" smooth="yes"/>
      <point x="384" y="45" type="line"/>
      <point x="348" y="23"/>
      <point x="293" y="-2"/>
      <point x="238" y="-2" type="curve" smooth="yes"/>
      <point x="130" y="-2"/>
      <point x="50" y="85"/>
      <point x="50" y="214" type="curve" smooth="yes"/>
      <point x="50" y="318"/>
      <point x="115" y="504"/>
      <point x="289" y="504" type="curve" smooth="yes"/>
      <point x="363" y="504"/>
      <point x="425" y="471"/>
    </contour>
    <contour>
      <point x="382" y="111" type="curve"/>
      <point x="386" y="428" type="line"/>
      <point x="367" y="436"/>
      <point x="326" y="449"/>
      <point x="292" y="449" type="curve" smooth="yes"/>
      <point x="155" y="449"/>
      <point x="107" y="299"/>
      <point x="107" y="216" type="curve" smooth="yes"/>
      <point x="107" y="146"/>
      <point x="141" y="53"/>
      <point x="236" y="53" type="curve" smooth="yes"/>
      <point x="297" y="53"/>
      <point x="359" y="95"/>
    </contour>
    <contour>
      <point x="292" y="563" type="curve" smooth="yes"/>
      <point x="230" y="563"/>
      <point x="178" y="608"/>
      <point x="178" y="665" type="curve" smooth="yes"/>
      <point x="178" y="733"/>
      <point x="246" y="782"/>
      <point x="314" y="782" type="curve" smooth="yes"/>
      <point x="374" y="782"/>
      <point x="427" y="737"/>
      <point x="427" y="679" type="curve" smooth="yes"/>
      <point x="427" y="610"/>
      <point x="359" y="563"/>
    </contour>
    <contour>
      <point x="310" y="735" type="curve" smooth="yes"/>
      <point x="256" y="735"/>
      <point x="220" y="695"/>
      <point x="220" y="665" type="curve" smooth="yes"/>
      <point x="220" y="630"/>
      <point x="255" y="609"/>
      <point x="301" y="609" type="curve" smooth="yes"/>
      <point x="336" y="609"/>
      <point x="385" y="635"/>
      <point x="385" y="677" type="curve" smooth="yes"/>
      <point x="385" y="706"/>
      <point x="353" y="735"/>
    </contour>
  </outline>
</glyph>
<glyph name="ae" format="1">
  <advance width="832"/>
  <unicode hex="00E6"/>
  <outline>
    <contour>
      <point x="426" y="458" type="curve"/>
      <point x="426" y="398" type="line"/>
      <point x="470" y="455"/>
      <point x="535" y="483"/>
      <point x="595" y="483" type="curve" smooth="yes"/>
      <point x="715" y="483"/>
      <point x="772" y="397"/>
      <point x="772" y="354" type="curve" smooth="yes"/>
      <point x="772" y="343"/>
      <point x="766" y="334"/>
      <point x="750" y="325" type="curve" smooth="yes"/>
      <point x="441" y="147" type="line"/>
      <point x="478" y="78"/>
      <point x="538" y="52"/>
      <point x="619" y="52" type="curve" smooth="yes"/>
      <point x="662" y="52"/>
      <point x="710" y="77"/>
      <point x="737" y="108" type="curve" smooth="yes"/>
      <point x="741" y="113"/>
      <point x="748" y="116"/>
      <point x="755" y="116" type="curve" smooth="yes"/>
      <point x="770" y="116"/>
      <point x="781" y="105"/>
      <point x="781" y="90" type="curve" smooth="yes"/>
      <point x="781" y="83"/>
      <point x="778" y="76"/>
      <point x="774" y="72" type="curve" smooth="yes"/>
      <point x="739" y="32"/>
      <point x="673" y="0"/>
      <point x="612" y="0" type="curve" smooth="yes"/>
      <point x="535" y="0"/>
      <point x="472" y="27"/>
      <point x="427" y="82" type="curve"/>
      <point x="427" y="27" type="line" smooth="yes"/>
      <point x="427" y="14"/>
      <point x="414" y="0"/>
      <point x="400" y="0" type="curve" smooth="yes"/>
      <point x="383" y="0"/>
      <point x="372" y="14"/>
      <point x="372" y="27" type="curve" smooth="yes"/>
      <point x="372" y="53" type="line"/>
      <point x="338" y="32"/>
      <point x="285" y="8"/>
      <point x="233" y="8" type="curve" smooth="yes"/>
      <point x="129" y="8"/>
      <point x="50" y="86"/>
      <point x="50" y="214" type="curve" smooth="yes"/>
      <point x="50" y="380"/>
      <point x="156" y="498"/>
      <point x="275" y="498" type="curve" smooth="yes"/>
      <point x="340" y="498"/>
      <point x="410" y="470"/>
    </contour>
    <contour>
      <point x="370" y="117" type="curve"/>
      <point x="375" y="424" type="line"/>
      <point x="358" y="432"/>
      <point x="317" y="445"/>
      <point x="283" y="445" type="curve" smooth="yes"/>
      <point x="150" y="445"/>
      <point x="104" y="298"/>
      <point x="104" y="217" type="curve" smooth="yes"/>
      <point x="104" y="131"/>
      <point x="150" y="61"/>
      <point x="229" y="61" type="curve" smooth="yes"/>
      <point x="280" y="61"/>
      <point x="343" y="95"/>
    </contour>
    <contour>
      <point x="595" y="430" type="curve" smooth="yes"/>
      <point x="498" y="430"/>
      <point x="422" y="345"/>
      <point x="422" y="229" type="curve" smooth="yes"/>
      <point x="422" y="218"/>
      <point x="422" y="209"/>
      <point x="424" y="198" type="curve"/>
      <point x="718" y="361" type="line"/>
      <point x="693" y="411"/>
      <point x="660" y="430"/>
    </contour>
  </outline>
</glyph>
<glyph name="ccedilla" format="1">
  <advance width="509"/>
  <unicode hex="00E7"/>
  <outline>
    <contour>
      <point x="221" y="-33" type="curve" smooth="yes"/>
      <point x="233" y="2" type="line"/>
      <point x="133" y="18"/>
      <point x="50" y="105"/>
      <point x="50" y="216" type="curve" smooth="yes"/>
      <point x="50" y="265"/>
      <point x="64" y="309"/>
      <point x="74" y="335" type="curve" smooth="yes"/>
      <point x="100" y="401"/>
      <point x="175" y="500"/>
      <point x="272" y="500" type="curve" smooth="yes"/>
      <point x="346" y="500"/>
      <point x="384" y="474"/>
      <point x="422" y="430" type="curve" smooth="yes"/>
      <point x="426" y="426"/>
      <point x="429" y="418"/>
      <point x="429" y="411" type="curve" smooth="yes"/>
      <point x="429" y="396"/>
      <point x="417" y="384"/>
      <point x="402" y="384" type="curve" smooth="yes"/>
      <point x="394" y="384"/>
      <point x="387" y="388"/>
      <point x="382" y="393" type="curve" smooth="yes"/>
      <point x="355" y="426"/>
      <point x="326" y="448"/>
      <point x="274" y="448" type="curve" smooth="yes"/>
      <point x="207" y="448"/>
      <point x="146" y="373"/>
      <point x="123" y="316" type="curve" smooth="yes"/>
      <point x="108" y="278"/>
      <point x="103" y="245"/>
      <point x="103" y="218" type="curve" smooth="yes"/>
      <point x="103" y="90"/>
      <point x="218" y="52"/>
      <point x="262" y="52" type="curve" smooth="yes"/>
      <point x="334" y="52"/>
      <point x="377" y="84"/>
      <point x="406" y="123" type="curve" smooth="yes"/>
      <point x="410" y="129"/>
      <point x="419" y="139"/>
      <point x="432" y="139" type="curve" smooth="yes"/>
      <point x="447" y="139"/>
      <point x="459" y="127"/>
      <point x="459" y="112" type="curve" smooth="yes"/>
      <point x="459" y="105"/>
      <point x="455" y="99"/>
      <point x="451" y="93" type="curve" smooth="yes"/>
      <point x="418" y="43"/>
      <point x="351" y="3"/>
      <point x="277" y="0" type="curve" smooth="yes"/>
      <point x="269" y="0" type="line"/>
      <point x="268" y="-19" type="line"/>
      <point x="336" y="-19"/>
      <point x="370" y="-62"/>
      <point x="370" y="-110" type="curve" smooth="yes"/>
      <point x="370" y="-160"/>
      <point x="329" y="-201"/>
      <point x="279" y="-201" type="curve" smooth="yes"/>
      <point x="247" y="-201"/>
      <point x="200" y="-179"/>
      <point x="200" y="-146" type="curve" smooth="yes"/>
      <point x="200" y="-138"/>
      <point x="209" y="-128"/>
      <point x="221" y="-128" type="curve" smooth="yes"/>
      <point x="229" y="-128"/>
      <point x="234" y="-133"/>
      <point x="239" y="-139" type="curve" smooth="yes"/>
      <point x="247" y="-148"/>
      <point x="256" y="-159"/>
      <point x="279" y="-159" type="curve" smooth="yes"/>
      <point x="306" y="-159"/>
      <point x="328" y="-137"/>
      <point x="328" y="-110" type="curve" smooth="yes"/>
      <point x="328" y="-83"/>
      <point x="306" y="-61"/>
      <point x="279" y="-61" type="curve" smooth="yes"/>
      <point x="264" y="-61"/>
      <point x="255" y="-67"/>
      <point x="248" y="-71" type="curve" smooth="yes"/>
      <point x="244" y="-74"/>
      <point x="240" y="-76"/>
      <point x="236" y="-76" type="curve" smooth="yes"/>
      <point x="225" y="-76"/>
      <point x="215" y="-68"/>
      <point x="215" y="-56" type="curve" smooth="yes"/>
      <point x="215" y="-50"/>
      <point x="217" y="-43"/>
    </contour>
  </outline>
</glyph>
<glyph name="edieresis" format="1">
  <advance width="521"/>
  <unicode hex="00EB"/>
  <outline>
    <contour>
      <point x="471" y="90" type="curve" smooth="yes"/>
      <point x="471" y="83"/>
      <point x="468" y="76"/>
      <point x="464" y="72" type="curve" smooth="yes"/>
      <point x="429" y="32"/>
      <point x="361" y="0"/>
      <point x="300" y="0" type="curve" smooth="yes"/>
      <point x="147" y="0"/>
      <point x="51" y="114"/>
      <point x="51" y="238" type="curve" smooth="yes"/>
      <point x="51" y="376"/>
      <point x="139" y="499"/>
      <point x="275" y="499" type="curve" smooth="yes"/>
      <point x="404" y="499"/>
      <point x="462" y="409"/>
      <point x="462" y="366" type="curve" smooth="yes"/>
      <point x="462" y="355"/>
      <point x="456" y="346"/>
      <point x="440" y="337" type="curve" smooth="yes"/>
      <point x="122" y="155" type="line"/>
      <point x="159" y="86"/>
      <point x="218" y="52"/>
      <point x="299" y="52" type="curve" smooth="yes"/>
      <point x="342" y="52"/>
      <point x="400" y="77"/>
      <point x="427" y="108" type="curve" smooth="yes"/>
      <point x="431" y="113"/>
      <point x="438" y="116"/>
      <point x="445" y="116" type="curve" smooth="yes"/>
      <point x="460" y="116"/>
      <point x="471" y="105"/>
    </contour>
    <contour>
      <point x="275" y="446" type="curve" smooth="yes"/>
      <point x="173" y="446"/>
      <point x="102" y="353"/>
      <point x="102" y="237" type="curve" smooth="yes"/>
      <point x="102" y="226"/>
      <point x="102" y="217"/>
      <point x="104" y="206" type="curve"/>
      <point x="408" y="373" type="line"/>
      <point x="390" y="420"/>
      <point x="350" y="446"/>
    </contour>
    <contour>
      <point x="259" y="620" type="curve" smooth="yes"/>
      <point x="259" y="596"/>
      <point x="237" y="576"/>
      <point x="208" y="576" type="curve" smooth="yes"/>
      <point x="183" y="576"/>
      <point x="163" y="592"/>
      <point x="163" y="615" type="curve" smooth="yes"/>
      <point x="163" y="638"/>
      <point x="186" y="659"/>
      <point x="214" y="659" type="curve" smooth="yes"/>
      <point x="237" y="659"/>
      <point x="259" y="642"/>
    </contour>
    <contour>
      <point x="418" y="620" type="curve" smooth="yes"/>
      <point x="418" y="596"/>
      <point x="396" y="576"/>
      <point x="367" y="576" type="curve" smooth="yes"/>
      <point x="342" y="576"/>
      <point x="322" y="592"/>
      <point x="322" y="615" type="curve" smooth="yes"/>
      <point x="322" y="638"/>
      <point x="345" y="659"/>
      <point x="373" y="659" type="curve" smooth="yes"/>
      <point x="396" y="659"/>
      <point x="418" y="642"/>
    </contour>
  </outline>
</glyph>
<glyph name="iacute" format="1">
  <advance width="194"/>
  <unicode hex="00ED"/>
  <outline>
    <contour>
      <point x="129" y="467" type="curve"/>
      <point x="129" y="467"/>
      <point x="123" y="29"/>
      <point x="123" y="29" type="curve" smooth="yes"/>
      <point x="123" y="13"/>
      <point x="110" y="0"/>
      <point x="94" y="0" type="curve" smooth="yes"/>
      <point x="78" y="0"/>
      <point x="65" y="13"/>
      <point x="65" y="29" type="curve"/>
      <point x="65" y="29"/>
      <point x="71" y="467"/>
      <point x="71" y="467" type="curve" smooth="yes"/>
      <point x="71" y="483"/>
      <point x="84" y="496"/>
      <point x="100" y="496" type="curve" smooth="yes"/>
      <point x="116" y="496"/>
      <point x="129" y="483"/>
    </contour>
    <contour>
      <point x="190" y="666" type="curve" smooth="yes"/>
      <point x="52" y="572" type="line" smooth="yes"/>
      <point x="45" y="567"/>
      <point x="37" y="563"/>
      <point x="31" y="563" type="curve" smooth="yes"/>
      <point x="17" y="563"/>
      <point x="5" y="575"/>
      <point x="5" y="590" type="curve" smooth="yes"/>
      <point x="5" y="596"/>
      <point x="6" y="603"/>
      <point x="11" y="607" type="curve" smooth="yes"/>
      <point x="137" y="710" type="line" smooth="yes"/>
      <point x="145" y="717"/>
      <point x="155" y="725"/>
      <point x="166" y="725" type="curve" smooth="yes"/>
      <point x="185" y="725"/>
      <point x="200" y="709"/>
      <point x="200" y="689" type="curve" smooth="yes"/>
      <point x="200" y="680"/>
      <point x="197" y="671"/>
    </contour>
  </outline>
</glyph>
<glyph name="icircumflex" format="1">
  <advance width="234"/>
  <unicode hex="00EE"/>
  <outline>
    <contour>
      <point x="153" y="467" type="curve"/>
      <point x="153" y="467"/>
      <point x="147" y="29"/>
      <point x="147" y="29" type="curve" smooth="yes"/>
      <point x="147" y="13"/>
      <point x="134" y="0"/>
      <point x="118" y="0" type="curve" smooth="yes"/>
      <point x="102" y="0"/>
      <point x="89" y="13"/>
      <point x="89" y="29" type="curve"/>
      <point x="89" y="29"/>
      <point x="95" y="467"/>
      <point x="95" y="467" type="curve" smooth="yes"/>
      <point x="95" y="483"/>
      <point x="108" y="496"/>
      <point x="124" y="496" type="curve" smooth="yes"/>
      <point x="140" y="496"/>
      <point x="153" y="483"/>
    </contour>
    <contour>
      <point x="156" y="730" type="curve" smooth="yes"/>
      <point x="266" y="620" type="line" smooth="yes"/>
      <point x="272" y="615"/>
      <point x="275" y="608"/>
      <point x="275" y="600" type="curve" smooth="yes"/>
      <point x="275" y="586"/>
      <point x="263" y="574"/>
      <point x="249" y="574" type="curve" smooth="yes"/>
      <point x="242" y="574"/>
      <point x="235" y="576"/>
      <point x="230" y="581" type="curve" smooth="yes"/>
      <point x="134" y="668" type="line"/>
      <point x="19" y="579" type="line" smooth="yes"/>
      <point x="14" y="575"/>
      <point x="8" y="574"/>
      <point x="2" y="574" type="curve" smooth="yes"/>
      <point x="-12" y="574"/>
      <point x="-24" y="585"/>
      <point x="-24" y="600" type="curve" smooth="yes"/>
      <point x="-24" y="608"/>
      <point x="-21" y="616"/>
      <point x="-14" y="621" type="curve" smooth="yes"/>
      <point x="117" y="731" type="line" smooth="yes"/>
      <point x="123" y="736"/>
      <point x="130" y="738"/>
      <point x="136" y="738" type="curve" smooth="yes"/>
      <point x="143" y="738"/>
      <point x="150" y="735"/>
    </contour>
  </outline>
</glyph>
<glyph name="eth" format="1">
  <advance width="482"/>
  <unicode hex="00F0"/>
  <outline>
    <contour>
      <point x="275" y="584" type="curve"/>
      <point x="356" y="498"/>
      <point x="432" y="379"/>
      <point x="432" y="256" type="curve" smooth="yes"/>
      <point x="432" y="129"/>
      <point x="350" y="1"/>
      <point x="215" y="1" type="curve" smooth="yes"/>
      <point x="122" y="1"/>
      <point x="50" y="72"/>
      <point x="50" y="178" type="curve" smooth="yes"/>
      <point x="50" y="335"/>
      <point x="161" y="430"/>
      <point x="323" y="436" type="curve"/>
      <point x="295" y="483"/>
      <point x="260" y="525"/>
      <point x="230" y="558" type="curve"/>
      <point x="144" y="510"/>
      <point x="121" y="488"/>
      <point x="111" y="488" type="curve" smooth="yes"/>
      <point x="100" y="488"/>
      <point x="92" y="497"/>
      <point x="92" y="508" type="curve" smooth="yes"/>
      <point x="92" y="516"/>
      <point x="97" y="522"/>
      <point x="106" y="529" type="curve" smooth="yes"/>
      <point x="124" y="543"/>
      <point x="157" y="561"/>
      <point x="201" y="588" type="curve"/>
      <point x="176" y="614"/>
      <point x="154" y="624"/>
      <point x="154" y="641" type="curve" smooth="yes"/>
      <point x="154" y="655"/>
      <point x="167" y="667"/>
      <point x="180" y="667" type="curve" smooth="yes"/>
      <point x="186" y="667"/>
      <point x="191" y="665"/>
      <point x="196" y="661" type="curve" smooth="yes"/>
      <point x="198" y="660"/>
      <point x="211" y="650"/>
      <point x="247" y="614" type="curve"/>
      <point x="279" y="632"/>
      <point x="353" y="671"/>
      <point x="367" y="671" type="curve" smooth="yes"/>
      <point x="376" y="671"/>
      <point x="386" y="664"/>
      <point x="386" y="652" type="curve" smooth="yes"/>
      <point x="386" y="646"/>
      <point x="384" y="640"/>
      <point x="376" y="636" type="curve" smooth="yes"/>
      <point x="343" y="620"/>
      <point x="305" y="601"/>
    </contour>
    <contour>
      <point x="215" y="52" type="curve" smooth="yes"/>
      <point x="320" y="52"/>
      <point x="381" y="153"/>
      <point x="381" y="259" type="curve" smooth="yes"/>
      <point x="381" y="302"/>
      <point x="368" y="346"/>
      <point x="349" y="386" type="curve"/>
      <point x="221" y="386"/>
      <point x="101" y="330"/>
      <point x="101" y="177" type="curve" smooth="yes"/>
      <point x="101" y="100"/>
      <point x="150" y="52"/>
    </contour>
  </outline>
</glyph>
<glyph name="ntilde" format="1">
  <advance width="535"/>
  <unicode hex="00F1"/>
  <outline>
    <contour>
      <point x="121" y="473" type="curve" smooth="yes"/>
      <point x="121" y="292" type="line"/>
      <point x="141" y="406"/>
      <point x="222" y="499"/>
      <point x="328" y="499" type="curve" smooth="yes"/>
      <point x="452.152" y="499"/>
      <point x="470.008" y="388.987"/>
      <point x="470.008" y="152.297" type="curve" smooth="yes"/>
      <point x="470.008" y="114.458"/>
      <point x="469.551" y="73.3819"/>
      <point x="469" y="29" type="curve" smooth="yes"/>
      <point x="469" y="13"/>
      <point x="459" y="0"/>
      <point x="443" y="0" type="curve" smooth="yes"/>
      <point x="428" y="0"/>
      <point x="416" y="13"/>
      <point x="416" y="28" type="curve" smooth="yes"/>
      <point x="411" y="305"/>
      <point x="430" y="445"/>
      <point x="325" y="445" type="curve" smooth="yes"/>
      <point x="281" y="445"/>
      <point x="228" y="424"/>
      <point x="175" y="326" type="curve" smooth="yes"/>
      <point x="141" y="264"/>
      <point x="122" y="181"/>
      <point x="121" y="111" type="curve" smooth="yes"/>
      <point x="120" y="30" type="line" smooth="yes"/>
      <point x="120" y="13"/>
      <point x="110" y="0"/>
      <point x="93" y="0" type="curve" smooth="yes"/>
      <point x="78" y="0"/>
      <point x="65" y="12"/>
      <point x="65" y="26" type="curve" smooth="yes"/>
      <point x="65" y="473" type="line" smooth="yes"/>
      <point x="65" y="488"/>
      <point x="78" y="500"/>
      <point x="93" y="500" type="curve" smooth="yes"/>
      <point x="108" y="500"/>
      <point x="121" y="488"/>
    </contour>
    <contour>
      <point x="416" y="676" type="curve" smooth="yes"/>
      <point x="420" y="686"/>
      <point x="430" y="693"/>
      <point x="440" y="693" type="curve" smooth="yes"/>
      <point x="454" y="693"/>
      <point x="466" y="682"/>
      <point x="466" y="669" type="curve" smooth="yes"/>
      <point x="466" y="664"/>
      <point x="465" y="661"/>
      <point x="463" y="655" type="curve" smooth="yes"/>
      <point x="452" y="624"/>
      <point x="421" y="556"/>
      <point x="356" y="556" type="curve" smooth="yes"/>
      <point x="311" y="556"/>
      <point x="287" y="588"/>
      <point x="267" y="616" type="curve" smooth="yes"/>
      <point x="248" y="642"/>
      <point x="237" y="664"/>
      <point x="220" y="664" type="curve" smooth="yes"/>
      <point x="207" y="664"/>
      <point x="181" y="647"/>
      <point x="165" y="598" type="curve" smooth="yes"/>
      <point x="161" y="585"/>
      <point x="152" y="579"/>
      <point x="140" y="579" type="curve" smooth="yes"/>
      <point x="126" y="579"/>
      <point x="114" y="590"/>
      <point x="114" y="604" type="curve" smooth="yes"/>
      <point x="114" y="619"/>
      <point x="124" y="636"/>
      <point x="130" y="647" type="curve" smooth="yes"/>
      <point x="152" y="685"/>
      <point x="183" y="706"/>
      <point x="220" y="706" type="curve" smooth="yes"/>
      <point x="265" y="706"/>
      <point x="289" y="673"/>
      <point x="309" y="646" type="curve" smooth="yes"/>
      <point x="328" y="620"/>
      <point x="339" y="598"/>
      <point x="356" y="598" type="curve" smooth="yes"/>
      <point x="386" y="598"/>
      <point x="405" y="647"/>
    </contour>
  </outline>
</glyph>
<glyph name="ograve" format="1">
  <advance width="535"/>
  <unicode hex="00F2"/>
  <outline>
    <contour>
      <point x="252" y="0" type="curve" smooth="yes"/>
      <point x="137" y="0"/>
      <point x="50" y="104"/>
      <point x="50" y="230" type="curve" smooth="yes"/>
      <point x="50" y="376"/>
      <point x="157" y="500"/>
      <point x="283" y="500" type="curve" smooth="yes"/>
      <point x="397" y="500"/>
      <point x="485" y="394"/>
      <point x="485" y="270" type="curve" smooth="yes"/>
      <point x="485" y="123"/>
      <point x="378" y="0"/>
    </contour>
    <contour>
      <point x="278" y="452" type="curve" smooth="yes"/>
      <point x="185" y="452"/>
      <point x="107" y="349"/>
      <point x="107" y="232" type="curve" smooth="yes"/>
      <point x="107" y="133"/>
      <point x="165" y="48"/>
      <point x="252" y="48" type="curve" smooth="yes"/>
      <point x="343" y="48"/>
      <point x="427" y="149"/>
      <point x="427" y="265" type="curve" smooth="yes"/>
      <point x="427" y="365"/>
      <point x="361" y="452"/>
    </contour>
    <contour>
      <point x="334" y="567" type="curve" smooth="yes"/>
      <point x="216" y="688" type="line" smooth="yes"/>
      <point x="209" y="695"/>
      <point x="205" y="703"/>
      <point x="205" y="713" type="curve" smooth="yes"/>
      <point x="205" y="731"/>
      <point x="222" y="747"/>
      <point x="240" y="747" type="curve" smooth="yes"/>
      <point x="251" y="747"/>
      <point x="262" y="740"/>
      <point x="269" y="732" type="curve" smooth="yes"/>
      <point x="374" y="602" type="line" smooth="yes"/>
      <point x="379" y="595"/>
      <point x="381" y="590"/>
      <point x="381" y="584" type="curve" smooth="yes"/>
      <point x="381" y="569"/>
      <point x="367" y="558"/>
      <point x="353" y="558" type="curve" smooth="yes"/>
      <point x="345" y="558"/>
      <point x="339" y="562"/>
    </contour>
  </outline>
</glyph>
<glyph name="ocircumflex" format="1">
  <advance width="535"/>
  <unicode hex="00F4"/>
  <outline>
    <contour>
      <point x="252" y="0" type="curve" smooth="yes"/>
      <point x="137" y="0"/>
      <point x="50" y="104"/>
      <point x="50" y="230" type="curve" smooth="yes"/>
      <point x="50" y="376"/>
      <point x="157" y="500"/>
      <point x="283" y="500" type="curve" smooth="yes"/>
      <point x="397" y="500"/>
      <point x="485" y="394"/>
      <point x="485" y="270" type="curve" smooth="yes"/>
      <point x="485" y="123"/>
      <point x="378" y="0"/>
    </contour>
    <contour>
      <point x="278" y="452" type="curve" smooth="yes"/>
      <point x="185" y="452"/>
      <point x="107" y="349"/>
      <point x="107" y="232" type="curve" smooth="yes"/>
      <point x="107" y="133"/>
      <point x="165" y="48"/>
      <point x="252" y="48" type="curve" smooth="yes"/>
      <point x="343" y="48"/>
      <point x="427" y="149"/>
      <point x="427" y="265" type="curve" smooth="yes"/>
      <point x="427" y="365"/>
      <point x="361" y="452"/>
    </contour>
    <contour>
      <point x="335" y="730" type="curve" smooth="yes"/>
      <point x="445" y="620" type="line" smooth="yes"/>
      <point x="451" y="615"/>
      <point x="454" y="608"/>
      <point x="454" y="600" type="curve" smooth="yes"/>
      <point x="454" y="586"/>
      <point x="442" y="574"/>
      <point x="428" y="574" type="curve" smooth="yes"/>
      <point x="421" y="574"/>
      <point x="414" y="576"/>
      <point x="409" y="581" type="curve" smooth="yes"/>
      <point x="313" y="668" type="line"/>
      <point x="198" y="579" type="line" smooth="yes"/>
      <point x="193" y="575"/>
      <point x="187" y="574"/>
      <point x="181" y="574" type="curve" smooth="yes"/>
      <point x="167" y="574"/>
      <point x="155" y="585"/>
      <point x="155" y="600" type="curve" smooth="yes"/>
      <point x="155" y="608"/>
      <point x="158" y="616"/>
      <point x="165" y="621" type="curve" smooth="yes"/>
      <point x="296" y="731" type="line" smooth="yes"/>
      <point x="302" y="736"/>
      <point x="309" y="738"/>
      <point x="315" y="738" type="curve" smooth="yes"/>
      <point x="322" y="738"/>
      <point x="329" y="735"/>
    </contour>
  </outline>
</glyph>
<glyph name="divide" format="1">
  <advance width="433"/>
  <unicode hex="00F7"/>
  <outline>
    <contour>
      <point x="345" y="217" type="curve" smooth="yes"/>
      <point x="88" y="217" type="line" smooth="yes"/>
      <point x="74" y="217"/>
      <point x="61" y="229"/>
      <point x="61" y="243" type="curve" smooth="yes"/>
      <point x="61" y="258"/>
      <point x="74" y="269"/>
      <point x="88" y="269" type="curve" smooth="yes"/>
      <point x="345" y="269" type="line" smooth="yes"/>
      <point x="360" y="269"/>
      <point x="372" y="258"/>
      <point x="372" y="243" type="curve" smooth="yes"/>
      <point x="372" y="229"/>
      <point x="360" y="217"/>
    </contour>
    <contour>
      <point x="221" y="300" type="curve" smooth="yes"/>
      <point x="205" y="300"/>
      <point x="194" y="314"/>
      <point x="194" y="332" type="curve" smooth="yes"/>
      <point x="194" y="351"/>
      <point x="209" y="370"/>
      <point x="228" y="370" type="curve" smooth="yes"/>
      <point x="242" y="370"/>
      <point x="254" y="357"/>
      <point x="254" y="341" type="curve" smooth="yes"/>
      <point x="254" y="318"/>
      <point x="239" y="300"/>
    </contour>
    <contour>
      <point x="205" y="116" type="curve" smooth="yes"/>
      <point x="189" y="116"/>
      <point x="178" y="130"/>
      <point x="178" y="148" type="curve" smooth="yes"/>
      <point x="178" y="167"/>
      <point x="193" y="186"/>
      <point x="212" y="186" type="curve" smooth="yes"/>
      <point x="226" y="186"/>
      <point x="238" y="173"/>
      <point x="238" y="157" type="curve" smooth="yes"/>
      <point x="238" y="134"/>
      <point x="223" y="116"/>
    </contour>
  </outline>
</glyph>
<glyph name="ugrave" format="1">
  <advance width="512"/>
  <unicode hex="00F9"/>
  <outline>
    <contour>
      <point x="447" y="475" type="curve" smooth="yes"/>
      <point x="447" y="28" type="line" smooth="yes"/>
      <point x="447" y="13"/>
      <point x="433" y="0"/>
      <point x="417" y="0" type="curve" smooth="yes"/>
      <point x="398" y="0"/>
      <point x="386" y="15"/>
      <point x="386" y="33" type="curve" smooth="yes"/>
      <point x="386" y="76" type="line"/>
      <point x="361" y="40"/>
      <point x="294" y="-3"/>
      <point x="217" y="-3" type="curve" smooth="yes"/>
      <point x="65" y="-3"/>
      <point x="67" y="143"/>
      <point x="66" y="291" type="curve" smooth="yes"/>
      <point x="65.9422" y="295.449"/>
      <point x="65.9145" y="299.842"/>
      <point x="65.9145" y="304.176" type="curve" smooth="yes"/>
      <point x="65.9145" y="374.86"/>
      <point x="73.2889" y="430.196"/>
      <point x="78" y="466" type="curve" smooth="yes"/>
      <point x="82" y="495"/>
      <point x="91" y="500"/>
      <point x="105" y="500" type="curve" smooth="yes"/>
      <point x="119.492" y="500"/>
      <point x="133.051" y="489.732"/>
      <point x="133.051" y="475.51" type="curve" smooth="yes"/>
      <point x="133.051" y="449.8"/>
      <point x="120" y="385.363"/>
      <point x="120" y="292" type="curve" smooth="yes"/>
      <point x="120" y="287.262"/>
      <point x="119.997" y="282.521"/>
      <point x="119.997" y="277.785" type="curve" smooth="yes"/>
      <point x="119.997" y="160.556"/>
      <point x="121.845" y="46"/>
      <point x="217" y="46" type="curve" smooth="yes"/>
      <point x="286" y="46"/>
      <point x="356" y="94"/>
      <point x="377" y="118" type="curve" smooth="yes"/>
      <point x="390" y="133"/>
      <point x="390" y="161"/>
      <point x="390" y="161" type="curve"/>
      <point x="395" y="475" type="line" smooth="yes"/>
      <point x="395" y="490"/>
      <point x="407" y="500"/>
      <point x="421" y="500" type="curve" smooth="yes"/>
      <point x="435" y="500"/>
      <point x="447" y="490"/>
    </contour>
    <contour>
      <point x="308" y="563" type="curve" smooth="yes"/>
      <point x="190" y="684" type="line" smooth="yes"/>
      <point x="183" y="691"/>
      <point x="179" y="699"/>
      <point x="179" y="709" type="curve" smooth="yes"/>
      <point x="179" y="727"/>
      <point x="196" y="743"/>
      <point x="214" y="743" type="curve" smooth="yes"/>
      <point x="225" y="743"/>
      <point x="236" y="736"/>
      <point x="243" y="728" type="curve" smooth="yes"/>
      <point x="348" y="598" type="line" smooth="yes"/>
      <point x="353" y="591"/>
      <point x="355" y="586"/>
      <point x="355" y="580" type="curve" smooth="yes"/>
      <point x="355" y="565"/>
      <point x="341" y="554"/>
      <point x="327" y="554" type="curve" smooth="yes"/>
      <point x="319" y="554"/>
      <point x="313" y="558"/>
    </contour>
  </outline>
</glyph>
<glyph name="uacute" format="1">
  <advance width="512"/>
  <unicode hex="00FA"/>
  <outline>
    <contour>
      <point x="447" y="475" type="curve" smooth="yes"/>
      <point x="447" y="28" type="line" smooth="yes"/>
      <point x="447" y="13"/>
      <point x="433" y="0"/>
      <point x="417" y="0" type="curve" smooth="yes"/>
      <point x="398" y="0"/>
      <point x="386" y="15"/>
      <point x="386" y="33" type="curve" smooth="yes"/>
      <point x="386" y="76" type="line"/>
      <point x="361" y="40"/>
      <point x="294" y="-3"/>
      <point x="217" y="-3" type="curve" smooth="yes"/>
      <point x="65" y="-3"/>
      <point x="67" y="143"/>
      <point x="66" y="291" type="curve" smooth="yes"/>
      <point x="65.9422" y="295.449"/>
      <point x="65.9145" y="299.842"/>
      <point x="65.9145" y="304.176" type="curve" smooth="yes"/>
      <point x="65.9145" y="374.86"/>
      <point x="73.2889" y="430.196"/>
      <point x="78" y="466" type="curve" smooth="yes"/>
      <point x="82" y="495"/>
      <point x="91" y="500"/>
      <point x="105" y="500" type="curve" smooth="yes"/>
      <point x="119.492" y="500"/>
      <point x="133.051" y="489.732"/>
      <point x="133.051" y="475.51" type="curve" smooth="yes"/>
      <point x="133.051" y="449.8"/>
      <point x="120" y="385.363"/>
      <point x="120" y="292" type="curve" smooth="yes"/>
      <point x="120" y="287.262"/>
      <point x="119.997" y="282.521"/>
      <point x="119.997" y="277.785" type="curve" smooth="yes"/>
      <point x="119.997" y="160.556"/>
      <point x="121.845" y="46"/>
      <point x="217" y="46" type="curve" smooth="yes"/>
      <point x="286" y="46"/>
      <point x="356" y="94"/>
      <point x="377" y="118" type="curve" smooth="yes"/>
      <point x="390" y="133"/>
      <point x="390" y="161"/>
      <point x="390" y="161" type="curve"/>
      <point x="395" y="475" type="line" smooth="yes"/>
      <point x="395" y="490"/>
      <point x="407" y="500"/>
      <point x="421" y="500" type="curve" smooth="yes"/>
      <point x="435" y="500"/>
      <point x="447" y="490"/>
    </contour>
    <contour>
      <point x="386" y="663" type="curve" smooth="yes"/>
      <point x="248" y="569" type="line" smooth="yes"/>
      <point x="241" y="564"/>
      <point x="233" y="560"/>
      <point x="227" y="560" type="curve" smooth="yes"/>
      <point x="213" y="560"/>
      <point x="201" y="572"/>
      <point x="201" y="587" type="curve" smooth="yes"/>
      <point x="201" y="593"/>
      <point x="202" y="600"/>
      <point x="207" y="604" type="curve" smooth="yes"/>
      <point x="333" y="707" type="line" smooth="yes"/>
      <point x="341" y="714"/>
      <point x="351" y="722"/>
      <point x="362" y="722" type="curve" smooth="yes"/>
      <point x="381" y="722"/>
      <point x="396" y="706"/>
      <point x="396" y="686" type="curve" smooth="yes"/>
      <point x="396" y="677"/>
      <point x="393" y="668"/>
    </contour>
  </outline>
</glyph>
<glyph name="yacute" format="1">
  <advance width="489"/>
  <unicode hex="00FD"/>
  <outline>
    <contour>
      <point x="467" y="461" type="curve" smooth="yes"/>
      <point x="173" y="-179" type="line" smooth="yes"/>
      <point x="169" y="-189"/>
      <point x="159" y="-197"/>
      <point x="146" y="-197" type="curve" smooth="yes"/>
      <point x="131" y="-197"/>
      <point x="118" y="-184"/>
      <point x="118" y="-168" type="curve" smooth="yes"/>
      <point x="118" y="-164"/>
      <point x="119" y="-160"/>
      <point x="121" y="-156" type="curve" smooth="yes"/>
      <point x="220" y="61" type="line"/>
      <point x="24" y="456" type="line" smooth="yes"/>
      <point x="22" y="460"/>
      <point x="20" y="466"/>
      <point x="20" y="471" type="curve" smooth="yes"/>
      <point x="20" y="487"/>
      <point x="32" y="500"/>
      <point x="48" y="500" type="curve" smooth="yes"/>
      <point x="60" y="500"/>
      <point x="70" y="491"/>
      <point x="75" y="481" type="curve" smooth="yes"/>
      <point x="251" y="127" type="line"/>
      <point x="414" y="483" type="line" smooth="yes"/>
      <point x="418" y="493"/>
      <point x="428" y="501"/>
      <point x="441" y="501" type="curve" smooth="yes"/>
      <point x="456" y="501"/>
      <point x="469" y="489"/>
      <point x="469" y="473" type="curve" smooth="yes"/>
      <point x="469" y="469"/>
      <point x="469" y="465"/>
    </contour>
    <contour>
      <point x="353" y="666" type="curve" smooth="yes"/>
      <point x="215" y="572" type="line" smooth="yes"/>
      <point x="208" y="567"/>
      <point x="200" y="563"/>
      <point x="194" y="563" type="curve" smooth="yes"/>
      <point x="180" y="563"/>
      <point x="168" y="575"/>
      <point x="168" y="590" type="curve" smooth="yes"/>
      <point x="168" y="596"/>
      <point x="169" y="603"/>
      <point x="174" y="607" type="curve" smooth="yes"/>
      <point x="300" y="710" type="line" smooth="yes"/>
      <point x="308" y="717"/>
      <point x="318" y="725"/>
      <point x="329" y="725" type="curve" smooth="yes"/>
      <point x="348" y="725"/>
      <point x="363" y="709"/>
      <point x="363" y="689" type="curve" smooth="yes"/>
      <point x="363" y="680"/>
      <point x="360" y="671"/>
    </contour>
  </outline>
</glyph>
<glyph name="thorn" format="1">
  <advance width="520"/>
  <unicode hex="00FE"/>
  <outline>
    <contour>
      <point x="309" y="490" type="curve"/>
      <point x="420" y="485"/>
      <point x="470" y="376"/>
      <point x="470" y="271" type="curve" smooth="yes"/>
      <point x="470" y="157"/>
      <point x="427" y="8"/>
      <point x="251" y="8" type="curve" smooth="yes"/>
      <point x="199" y="8"/>
      <point x="152" y="24"/>
      <point x="121" y="36" type="curve"/>
      <point x="121" y="-167" type="line" smooth="yes"/>
      <point x="121" y="-182"/>
      <point x="108" y="-195"/>
      <point x="93" y="-195" type="curve" smooth="yes"/>
      <point x="78" y="-195"/>
      <point x="65" y="-182"/>
      <point x="65" y="-167" type="curve" smooth="yes"/>
      <point x="65" y="660" type="line" smooth="yes"/>
      <point x="65" y="676"/>
      <point x="77" y="689"/>
      <point x="93" y="689" type="curve" smooth="yes"/>
      <point x="109" y="689"/>
      <point x="121" y="676"/>
      <point x="121" y="660" type="curve" smooth="yes"/>
      <point x="121" y="421" type="line"/>
      <point x="162" y="459"/>
      <point x="220" y="490"/>
    </contour>
    <contour>
      <point x="257" y="65" type="curve" smooth="yes"/>
      <point x="379" y="65"/>
      <point x="420" y="151"/>
      <point x="420" y="271" type="curve" smooth="yes"/>
      <point x="420" y="333"/>
      <point x="395" y="441"/>
      <point x="301" y="441" type="curve" smooth="yes"/>
      <point x="196" y="441"/>
      <point x="138" y="378"/>
      <point x="121" y="353" type="curve"/>
      <point x="121" y="99" type="line"/>
      <point x="140" y="90"/>
      <point x="198" y="65"/>
    </contour>
  </outline>
</glyph>
<glyph name="Abreve" format="1">
  <advance width="624"/>
  <unicode hex="0102"/>
  <outline>
    <contour>
      <point x="163" y="852" type="curve" smooth="yes"/>
      <point x="163" y="860"/>
      <point x="165" y="871"/>
      <point x="180" y="871" type="curve" smooth="yes"/>
      <point x="191" y="871"/>
      <point x="199" y="860"/>
      <point x="203" y="853" type="curve" smooth="yes"/>
      <point x="228" y="803"/>
      <point x="286" y="786"/>
      <point x="323" y="786" type="curve" smooth="yes"/>
      <point x="374" y="786"/>
      <point x="409" y="806"/>
      <point x="429" y="855" type="curve" smooth="yes"/>
      <point x="434" y="867"/>
      <point x="439" y="876"/>
      <point x="452" y="876" type="curve" smooth="yes"/>
      <point x="461" y="876"/>
      <point x="469" y="868"/>
      <point x="469" y="859" type="curve" smooth="yes"/>
      <point x="469" y="814"/>
      <point x="416" y="740"/>
      <point x="321" y="740" type="curve" smooth="yes"/>
      <point x="203" y="740"/>
      <point x="163" y="831"/>
    </contour>
    <contour>
      <point x="354" y="670" type="curve" smooth="yes"/>
      <point x="572" y="37" type="line" smooth="yes"/>
      <point x="573" y="34"/>
      <point x="573" y="31"/>
      <point x="573" y="28" type="curve" smooth="yes"/>
      <point x="573" y="13"/>
      <point x="562" y="-1"/>
      <point x="545" y="-1" type="curve" smooth="yes"/>
      <point x="533" y="-1"/>
      <point x="522" y="6"/>
      <point x="518" y="18" type="curve" smooth="yes"/>
      <point x="434" y="262" type="line"/>
      <point x="179" y="206" type="line"/>
      <point x="105" y="18" type="line" smooth="yes"/>
      <point x="101" y="7"/>
      <point x="90" y="0"/>
      <point x="79" y="0" type="curve" smooth="yes"/>
      <point x="62" y="0"/>
      <point x="50" y="15"/>
      <point x="50" y="29" type="curve" smooth="yes"/>
      <point x="50" y="32"/>
      <point x="51" y="36"/>
      <point x="52" y="39" type="curve" smooth="yes"/>
      <point x="112" y="192" type="line"/>
      <point x="96" y="188"/>
      <point x="94" y="188"/>
      <point x="92" y="188" type="curve" smooth="yes"/>
      <point x="76" y="188"/>
      <point x="63" y="200"/>
      <point x="63" y="217" type="curve" smooth="yes"/>
      <point x="63" y="230"/>
      <point x="72" y="241"/>
      <point x="85" y="244" type="curve" smooth="yes"/>
      <point x="137" y="256" type="line"/>
      <point x="300" y="671" type="line" smooth="yes"/>
      <point x="305" y="682"/>
      <point x="316" y="689"/>
      <point x="328" y="689" type="curve" smooth="yes"/>
      <point x="339" y="689"/>
      <point x="350" y="681"/>
    </contour>
    <contour>
      <point x="204" y="270" type="line"/>
      <point x="415" y="316" type="line"/>
      <point x="325" y="578" type="line"/>
    </contour>
  </outline>
</glyph>
<glyph name="aogonek" format="1">
  <advance width="505"/>
  <unicode hex="0105"/>
  <outline>
    <contour>
      <point x="408" y="-201" type="curve" smooth="yes"/>
      <point x="349" y="-200"/>
      <point x="305" y="-158"/>
      <point x="305" y="-100" type="curve" smooth="yes"/>
      <point x="305" y="-47"/>
      <point x="344" y="-5"/>
      <point x="385" y="23" type="curve"/>
      <point x="384" y="26"/>
      <point x="384" y="29"/>
      <point x="384" y="32" type="curve" smooth="yes"/>
      <point x="384" y="55" type="line"/>
      <point x="348" y="33"/>
      <point x="293" y="8"/>
      <point x="238" y="8" type="curve" smooth="yes"/>
      <point x="130" y="8"/>
      <point x="50" y="95"/>
      <point x="50" y="224" type="curve" smooth="yes"/>
      <point x="50" y="328"/>
      <point x="115" y="514"/>
      <point x="289" y="514" type="curve" smooth="yes"/>
      <point x="363" y="514"/>
      <point x="425" y="481"/>
      <point x="440" y="473" type="curve"/>
      <point x="440" y="30" type="line" smooth="yes"/>
      <point x="440" y="12"/>
      <point x="425" y="0"/>
      <point x="410" y="-11" type="curve" smooth="yes"/>
      <point x="384" y="-30"/>
      <point x="347" y="-57"/>
      <point x="347" y="-101" type="curve" smooth="yes"/>
      <point x="347" y="-135"/>
      <point x="374" y="-158"/>
      <point x="408" y="-158" type="curve" smooth="yes"/>
      <point x="428" y="-158"/>
      <point x="450" y="-151"/>
      <point x="470" y="-135" type="curve" smooth="yes"/>
      <point x="474" y="-132"/>
      <point x="478" y="-131"/>
      <point x="483" y="-131" type="curve" smooth="yes"/>
      <point x="493" y="-131"/>
      <point x="504" y="-141"/>
      <point x="504" y="-152" type="curve" smooth="yes"/>
      <point x="504" y="-181"/>
      <point x="436" y="-201"/>
    </contour>
    <contour>
      <point x="382" y="121" type="curve"/>
      <point x="386" y="438" type="line"/>
      <point x="367" y="446"/>
      <point x="326" y="459"/>
      <point x="292" y="459" type="curve" smooth="yes"/>
      <point x="155" y="459"/>
      <point x="107" y="309"/>
      <point x="107" y="226" type="curve" smooth="yes"/>
      <point x="107" y="156"/>
      <point x="141" y="63"/>
      <point x="236" y="63" type="curve" smooth="yes"/>
      <point x="297" y="63"/>
      <point x="359" y="105"/>
    </contour>
  </outline>
</glyph>
<glyph name="Cacute" format="1">
  <advance width="632"/>
  <unicode hex="0106"/>
  <outline>
    <contour>
      <point x="552" y="161" type="curve" smooth="yes"/>
      <point x="567" y="161"/>
      <point x="581" y="151"/>
      <point x="581" y="133" type="curve" smooth="yes"/>
      <point x="581" y="127"/>
      <point x="580" y="121"/>
      <point x="576" y="116" type="curve" smooth="yes"/>
      <point x="519" y="40"/>
      <point x="434" y="-2"/>
      <point x="338" y="-2" type="curve" smooth="yes"/>
      <point x="181" y="-2"/>
      <point x="50" y="126"/>
      <point x="50" y="296" type="curve" smooth="yes"/>
      <point x="50" y="500"/>
      <point x="208" y="684"/>
      <point x="346" y="684" type="curve" smooth="yes"/>
      <point x="415" y="684"/>
      <point x="461" y="664"/>
      <point x="492" y="644" type="curve"/>
      <point x="496" y="653"/>
      <point x="506" y="659"/>
      <point x="517" y="659" type="curve" smooth="yes"/>
      <point x="533" y="659"/>
      <point x="545" y="647"/>
      <point x="545" y="631" type="curve" smooth="yes"/>
      <point x="545" y="567" type="line" smooth="yes"/>
      <point x="545" y="551"/>
      <point x="533" y="538"/>
      <point x="517" y="538" type="curve" smooth="yes"/>
      <point x="501" y="538"/>
      <point x="488" y="551"/>
      <point x="488" y="567" type="curve" smooth="yes"/>
      <point x="488" y="572" type="line"/>
      <point x="468" y="593"/>
      <point x="431" y="627"/>
      <point x="346" y="627" type="curve" smooth="yes"/>
      <point x="234" y="627"/>
      <point x="107" y="460"/>
      <point x="107" y="296" type="curve" smooth="yes"/>
      <point x="107" y="124"/>
      <point x="248" y="55"/>
      <point x="338" y="55" type="curve" smooth="yes"/>
      <point x="410" y="55"/>
      <point x="477" y="81"/>
      <point x="530" y="150" type="curve" smooth="yes"/>
      <point x="537" y="159"/>
      <point x="544" y="161"/>
    </contour>
    <contour>
      <point x="435" y="853" type="curve" smooth="yes"/>
      <point x="297" y="759" type="line" smooth="yes"/>
      <point x="290" y="754"/>
      <point x="282" y="750"/>
      <point x="276" y="750" type="curve" smooth="yes"/>
      <point x="262" y="750"/>
      <point x="250" y="762"/>
      <point x="250" y="777" type="curve" smooth="yes"/>
      <point x="250" y="783"/>
      <point x="251" y="790"/>
      <point x="256" y="794" type="curve" smooth="yes"/>
      <point x="382" y="897" type="line" smooth="yes"/>
      <point x="390" y="904"/>
      <point x="400" y="912"/>
      <point x="411" y="912" type="curve" smooth="yes"/>
      <point x="430" y="912"/>
      <point x="445" y="896"/>
      <point x="445" y="876" type="curve" smooth="yes"/>
      <point x="445" y="867"/>
      <point x="442" y="858"/>
    </contour>
  </outline>
</glyph>
<glyph name="ccircumflex" format="1">
  <advance width="509"/>
  <unicode hex="0109"/>
  <outline>
    <contour>
      <point x="459" y="112" type="curve" smooth="yes"/>
      <point x="459" y="105"/>
      <point x="455" y="99"/>
      <point x="451" y="93" type="curve" smooth="yes"/>
      <point x="418" y="43"/>
      <point x="351" y="3"/>
      <point x="277" y="0" type="curve" smooth="yes"/>
      <point x="273.459" y="-0.18006"/>
      <point x="269.926" y="-0.26916"/>
      <point x="266.403" y="-0.26916" type="curve" smooth="yes"/>
      <point x="152.556" y="-0.26916"/>
      <point x="50" y="92.8113"/>
      <point x="50" y="216" type="curve" smooth="yes"/>
      <point x="50" y="265"/>
      <point x="64" y="309"/>
      <point x="74" y="335" type="curve" smooth="yes"/>
      <point x="100" y="401"/>
      <point x="175" y="500"/>
      <point x="272" y="500" type="curve" smooth="yes"/>
      <point x="346" y="500"/>
      <point x="384" y="474"/>
      <point x="422" y="430" type="curve" smooth="yes"/>
      <point x="426" y="426"/>
      <point x="429" y="418"/>
      <point x="429" y="411" type="curve" smooth="yes"/>
      <point x="429" y="396"/>
      <point x="417" y="384"/>
      <point x="402" y="384" type="curve" smooth="yes"/>
      <point x="394" y="384"/>
      <point x="387" y="388"/>
      <point x="382" y="393" type="curve" smooth="yes"/>
      <point x="355" y="426"/>
      <point x="326" y="448"/>
      <point x="274" y="448" type="curve" smooth="yes"/>
      <point x="207" y="448"/>
      <point x="146" y="373"/>
      <point x="123" y="316" type="curve" smooth="yes"/>
      <point x="108" y="278"/>
      <point x="103" y="245"/>
      <point x="103" y="218" type="curve" smooth="yes"/>
      <point x="103" y="90"/>
      <point x="218" y="52"/>
      <point x="262" y="52" type="curve" smooth="yes"/>
      <point x="334" y="52"/>
      <point x="377" y="84"/>
      <point x="406" y="123" type="curve" smooth="yes"/>
      <point x="410" y="129"/>
      <point x="419" y="139"/>
      <point x="432" y="139" type="curve" smooth="yes"/>
      <point x="447" y="139"/>
      <point x="459" y="127"/>
    </contour>
    <contour>
      <point x="297" y="730" type="curve" smooth="yes"/>
      <point x="407" y="620" type="line" smooth="yes"/>
      <point x="413" y="615"/>
      <point x="416" y="608"/>
      <point x="416" y="600" type="curve" smooth="yes"/>
      <point x="416" y="586"/>
      <point x="404" y="574"/>
      <point x="390" y="574" type="curve" smooth="yes"/>
      <point x="383" y="574"/>
      <point x="376" y="576"/>
      <point x="371" y="581" type="curve" smooth="yes"/>
      <point x="275" y="668" type="line"/>
      <point x="160" y="579" type="line" smooth="yes"/>
      <point x="155" y="575"/>
      <point x="149" y="574"/>
      <point x="143" y="574" type="curve" smooth="yes"/>
      <point x="129" y="574"/>
      <point x="117" y="585"/>
      <point x="117" y="600" type="curve" smooth="yes"/>
      <point x="117" y="608"/>
      <point x="120" y="616"/>
      <point x="127" y="621" type="curve" smooth="yes"/>
      <point x="258" y="731" type="line" smooth="yes"/>
      <point x="264" y="736"/>
      <point x="271" y="738"/>
      <point x="277" y="738" type="curve" smooth="yes"/>
      <point x="284" y="738"/>
      <point x="291" y="735"/>
    </contour>
  </outline>
</glyph>
<glyph name="eogonek" format="1">
  <advance width="521"/>
  <unicode hex="0119"/>
  <outline>
    <contour>
      <point x="322" y="-201" type="curve" smooth="yes"/>
      <point x="263" y="-200"/>
      <point x="219" y="-158"/>
      <point x="219" y="-100" type="curve" smooth="yes"/>
      <point x="219" y="-59"/>
      <point x="242" y="-25"/>
      <point x="271" y="1" type="curve"/>
      <point x="135" y="14"/>
      <point x="51" y="122"/>
      <point x="51" y="238" type="curve" smooth="yes"/>
      <point x="51" y="376"/>
      <point x="139" y="499"/>
      <point x="275" y="499" type="curve" smooth="yes"/>
      <point x="404" y="499"/>
      <point x="462" y="409"/>
      <point x="462" y="366" type="curve" smooth="yes"/>
      <point x="462" y="355"/>
      <point x="456" y="346"/>
      <point x="440" y="337" type="curve" smooth="yes"/>
      <point x="122" y="155" type="line"/>
      <point x="159" y="86"/>
      <point x="218" y="52"/>
      <point x="299" y="52" type="curve" smooth="yes"/>
      <point x="342" y="52"/>
      <point x="400" y="77"/>
      <point x="427" y="108" type="curve" smooth="yes"/>
      <point x="431" y="113"/>
      <point x="438" y="116"/>
      <point x="445" y="116" type="curve" smooth="yes"/>
      <point x="460" y="116"/>
      <point x="471" y="105"/>
      <point x="471" y="90" type="curve" smooth="yes"/>
      <point x="471" y="83"/>
      <point x="468" y="76"/>
      <point x="464" y="72" type="curve" smooth="yes"/>
      <point x="442" y="46"/>
      <point x="406" y="29"/>
      <point x="370" y="12" type="curve" smooth="yes"/>
      <point x="315" y="-15"/>
      <point x="261" y="-42"/>
      <point x="261" y="-101" type="curve" smooth="yes"/>
      <point x="261" y="-135"/>
      <point x="288" y="-158"/>
      <point x="322" y="-158" type="curve" smooth="yes"/>
      <point x="342" y="-158"/>
      <point x="364" y="-151"/>
      <point x="384" y="-135" type="curve" smooth="yes"/>
      <point x="388" y="-132"/>
      <point x="392" y="-131"/>
      <point x="397" y="-131" type="curve" smooth="yes"/>
      <point x="407" y="-131"/>
      <point x="418" y="-141"/>
      <point x="418" y="-152" type="curve" smooth="yes"/>
      <point x="418" y="-181"/>
      <point x="350" y="-201"/>
    </contour>
    <contour>
      <point x="275" y="446" type="curve" smooth="yes"/>
      <point x="173" y="446"/>
      <point x="102" y="353"/>
      <point x="102" y="237" type="curve" smooth="yes"/>
      <point x="102" y="226"/>
      <point x="102" y="217"/>
      <point x="104" y="206" type="curve"/>
      <point x="408" y="373" type="line"/>
      <point x="390" y="420"/>
      <point x="350" y="446"/>
    </contour>
  </outline>
</glyph>
<glyph name="gcircumflex" format="1">
  <advance width="521"/>
  <unicode hex="011D"/>
  <outline>
    <contour>
      <point x="117" y="-170" type="curve" smooth="yes"/>
      <point x="104" y="-167"/>
      <point x="95" y="-156"/>
      <point x="95" y="-143" type="curve" smooth="yes"/>
      <point x="95" y="-127"/>
      <point x="108" y="-115"/>
      <point x="123" y="-115" type="curve" smooth="yes"/>
      <point x="142" y="-115"/>
      <point x="163" y="-129"/>
      <point x="239" y="-129" type="curve" smooth="yes"/>
      <point x="348" y="-129"/>
      <point x="386" y="-69"/>
      <point x="389" y="23" type="curve" smooth="yes"/>
      <point x="391" y="78" type="line"/>
      <point x="355" y="29"/>
      <point x="306" y="1"/>
      <point x="249" y="-1" type="curve" smooth="yes"/>
      <point x="134" y="-1"/>
      <point x="51" y="105"/>
      <point x="51" y="241" type="curve" smooth="yes"/>
      <point x="51" y="374"/>
      <point x="153" y="500"/>
      <point x="288" y="500" type="curve" smooth="yes"/>
      <point x="335" y="500"/>
      <point x="373" y="483"/>
      <point x="399" y="468" type="curve"/>
      <point x="399" y="492"/>
      <point x="404" y="511"/>
      <point x="428" y="511" type="curve" smooth="yes"/>
      <point x="443" y="511"/>
      <point x="456" y="498"/>
      <point x="456" y="482" type="curve" smooth="yes"/>
      <point x="445" y="19" type="line" smooth="yes"/>
      <point x="442" y="-122"/>
      <point x="357" y="-185"/>
      <point x="240" y="-185" type="curve" smooth="yes"/>
      <point x="192" y="-185"/>
      <point x="148" y="-177"/>
    </contour>
    <contour>
      <point x="395" y="267" type="curve" smooth="yes"/>
      <point x="395" y="412" type="line"/>
      <point x="373" y="431"/>
      <point x="331" y="445"/>
      <point x="292" y="445" type="curve" smooth="yes"/>
      <point x="187" y="445"/>
      <point x="101" y="356"/>
      <point x="101" y="237" type="curve" smooth="yes"/>
      <point x="101" y="165"/>
      <point x="140" y="52"/>
      <point x="241" y="52" type="curve" smooth="yes"/>
      <point x="310" y="52"/>
      <point x="395" y="102"/>
    </contour>
    <contour>
      <point x="307" y="730" type="curve" smooth="yes"/>
      <point x="417" y="620" type="line" smooth="yes"/>
      <point x="423" y="615"/>
      <point x="426" y="608"/>
      <point x="426" y="600" type="curve" smooth="yes"/>
      <point x="426" y="586"/>
      <point x="414" y="574"/>
      <point x="400" y="574" type="curve" smooth="yes"/>
      <point x="393" y="574"/>
      <point x="386" y="576"/>
      <point x="381" y="581" type="curve" smooth="yes"/>
      <point x="285" y="668" type="line"/>
      <point x="170" y="579" type="line" smooth="yes"/>
      <point x="165" y="575"/>
      <point x="159" y="574"/>
      <point x="153" y="574" type="curve" smooth="yes"/>
      <point x="139" y="574"/>
      <point x="127" y="585"/>
      <point x="127" y="600" type="curve" smooth="yes"/>
      <point x="127" y="608"/>
      <point x="130" y="616"/>
      <point x="137" y="621" type="curve" smooth="yes"/>
      <point x="268" y="731" type="line" smooth="yes"/>
      <point x="274" y="736"/>
      <point x="281" y="738"/>
      <point x="287" y="738" type="curve" smooth="yes"/>
      <point x="294" y="738"/>
      <point x="301" y="735"/>
    </contour>
  </outline>
</glyph>
<glyph name="Hcircumflex" format="1">
  <advance width="685"/>
  <unicode hex="0124"/>
  <outline>
    <contour>
      <point x="377" y="887" type="curve" smooth="yes"/>
      <point x="487" y="777" type="line" smooth="yes"/>
      <point x="493" y="772"/>
      <point x="496" y="765"/>
      <point x="496" y="757" type="curve" smooth="yes"/>
      <point x="496" y="743"/>
      <point x="484" y="731"/>
      <point x="470" y="731" type="curve" smooth="yes"/>
      <point x="463" y="731"/>
      <point x="456" y="733"/>
      <point x="451" y="738" type="curve" smooth="yes"/>
      <point x="355" y="825" type="line"/>
      <point x="240" y="736" type="line" smooth="yes"/>
      <point x="235" y="732"/>
      <point x="229" y="731"/>
      <point x="223" y="731" type="curve" smooth="yes"/>
      <point x="209" y="731"/>
      <point x="197" y="742"/>
      <point x="197" y="757" type="curve" smooth="yes"/>
      <point x="197" y="765"/>
      <point x="200" y="773"/>
      <point x="207" y="778" type="curve" smooth="yes"/>
      <point x="338" y="888" type="line" smooth="yes"/>
      <point x="344" y="893"/>
      <point x="351" y="895"/>
      <point x="357" y="895" type="curve" smooth="yes"/>
      <point x="364" y="895"/>
      <point x="371" y="892"/>
    </contour>
    <contour>
      <point x="592" y="681" type="curve" smooth="yes"/>
      <point x="607" y="681"/>
      <point x="620" y="669"/>
      <point x="620" y="653" type="curve" smooth="yes"/>
      <point x="620" y="28" type="line" smooth="yes"/>
      <point x="620" y="13"/>
      <point x="607" y="0"/>
      <point x="592" y="0" type="curve" smooth="yes"/>
      <point x="576" y="0"/>
      <point x="563" y="13"/>
      <point x="563" y="28" type="curve" smooth="yes"/>
      <point x="563" y="349" type="line"/>
      <point x="122" y="288" type="line"/>
      <point x="122" y="28" type="line" smooth="yes"/>
      <point x="122" y="13"/>
      <point x="109" y="0"/>
      <point x="93" y="0" type="curve" smooth="yes"/>
      <point x="77" y="0"/>
      <point x="65" y="13"/>
      <point x="65" y="28" type="curve" smooth="yes"/>
      <point x="65" y="653" type="line" smooth="yes"/>
      <point x="65" y="669"/>
      <point x="77" y="681"/>
      <point x="93" y="681" type="curve" smooth="yes"/>
      <point x="109" y="681"/>
      <point x="122" y="669"/>
      <point x="122" y="653" type="curve" smooth="yes"/>
      <point x="122" y="346" type="line"/>
      <point x="563" y="407" type="line"/>
      <point x="563" y="653" type="line" smooth="yes"/>
      <point x="563" y="669"/>
      <point x="576" y="681"/>
    </contour>
  </outline>
</glyph>
<glyph name="Jcircumflex" format="1">
  <advance width="472"/>
  <unicode hex="0134"/>
  <outline>
    <contour>
      <point x="356" y="887" type="curve" smooth="yes"/>
      <point x="466" y="777" type="line" smooth="yes"/>
      <point x="472" y="772"/>
      <point x="475" y="765"/>
      <point x="475" y="757" type="curve" smooth="yes"/>
      <point x="475" y="743"/>
      <point x="463" y="731"/>
      <point x="449" y="731" type="curve" smooth="yes"/>
      <point x="442" y="731"/>
      <point x="435" y="733"/>
      <point x="430" y="738" type="curve" smooth="yes"/>
      <point x="334" y="825" type="line"/>
      <point x="219" y="736" type="line" smooth="yes"/>
      <point x="214" y="732"/>
      <point x="208" y="731"/>
      <point x="202" y="731" type="curve" smooth="yes"/>
      <point x="188" y="731"/>
      <point x="176" y="742"/>
      <point x="176" y="757" type="curve" smooth="yes"/>
      <point x="176" y="765"/>
      <point x="179" y="773"/>
      <point x="186" y="778" type="curve" smooth="yes"/>
      <point x="317" y="888" type="line" smooth="yes"/>
      <point x="323" y="893"/>
      <point x="330" y="895"/>
      <point x="336" y="895" type="curve" smooth="yes"/>
      <point x="343" y="895"/>
      <point x="350" y="892"/>
    </contour>
    <contour>
      <point x="219" y="677" type="curve" smooth="yes"/>
      <point x="424" y="677" type="line" smooth="yes"/>
      <point x="439" y="677"/>
      <point x="452" y="664"/>
      <point x="452" y="649" type="curve" smooth="yes"/>
      <point x="452" y="633"/>
      <point x="439" y="620"/>
      <point x="424" y="620" type="curve" smooth="yes"/>
      <point x="399" y="620" type="line"/>
      <point x="399" y="159" type="line" smooth="yes"/>
      <point x="399" y="86"/>
      <point x="354" y="0"/>
      <point x="228" y="0" type="curve" smooth="yes"/>
      <point x="71" y="0"/>
      <point x="50" y="128"/>
      <point x="50" y="169" type="curve" smooth="yes"/>
      <point x="50" y="186"/>
      <point x="61" y="200"/>
      <point x="79" y="200" type="curve" smooth="yes"/>
      <point x="95" y="200"/>
      <point x="107" y="187"/>
      <point x="107" y="171" type="curve" smooth="yes"/>
      <point x="107" y="150"/>
      <point x="112" y="57"/>
      <point x="228" y="57" type="curve" smooth="yes"/>
      <point x="331" y="57"/>
      <point x="342" y="128"/>
      <point x="342" y="159" type="curve" smooth="yes"/>
      <point x="342" y="620" type="line"/>
      <point x="219" y="620" type="line" smooth="yes"/>
      <point x="203" y="620"/>
      <point x="190" y="633"/>
      <point x="190" y="649" type="curve" smooth="yes"/>
      <point x="190" y="664"/>
      <point x="203" y="677"/>
    </contour>
  </outline>
</glyph>
<glyph name="jcircumflex" format="1">
  <advance width="333"/>
  <unicode hex="0135"/>
  <outline>
    <contour>
      <point x="258" y="474" type="curve" smooth="yes"/>
      <point x="258" y="454"/>
      <point x="264" y="28"/>
      <point x="264" y="-2" type="curve" smooth="yes"/>
      <point x="264" y="-66"/>
      <point x="244" y="-181"/>
      <point x="144" y="-181" type="curve" smooth="yes"/>
      <point x="47" y="-181"/>
      <point x="-1" y="-58"/>
      <point x="-8" y="-38" type="curve" smooth="yes"/>
      <point x="-9" y="-35"/>
      <point x="-10" y="-31"/>
      <point x="-10" y="-28" type="curve" smooth="yes"/>
      <point x="-10" y="-14"/>
      <point x="2" y="-1"/>
      <point x="19" y="-1" type="curve" smooth="yes"/>
      <point x="31" y="-1"/>
      <point x="42" y="-9"/>
      <point x="46" y="-21" type="curve" smooth="yes"/>
      <point x="63" y="-66"/>
      <point x="97" y="-130"/>
      <point x="144" y="-130" type="curve" smooth="yes"/>
      <point x="206" y="-130"/>
      <point x="209" y="-28"/>
      <point x="209" y="-7" type="curve" smooth="yes"/>
      <point x="209" y="21"/>
      <point x="202" y="440"/>
      <point x="202" y="473" type="curve" smooth="yes"/>
      <point x="202" y="489"/>
      <point x="213" y="502"/>
      <point x="230" y="502" type="curve" smooth="yes"/>
      <point x="245" y="502"/>
      <point x="258" y="489"/>
    </contour>
    <contour>
      <point x="257" y="730" type="curve" smooth="yes"/>
      <point x="367" y="620" type="line" smooth="yes"/>
      <point x="373" y="615"/>
      <point x="376" y="608"/>
      <point x="376" y="600" type="curve" smooth="yes"/>
      <point x="376" y="586"/>
      <point x="364" y="574"/>
      <point x="350" y="574" type="curve" smooth="yes"/>
      <point x="343" y="574"/>
      <point x="336" y="576"/>
      <point x="331" y="581" type="curve" smooth="yes"/>
      <point x="235" y="668" type="line"/>
      <point x="120" y="579" type="line" smooth="yes"/>
      <point x="115" y="575"/>
      <point x="109" y="574"/>
      <point x="103" y="574" type="curve" smooth="yes"/>
      <point x="89" y="574"/>
      <point x="77" y="585"/>
      <point x="77" y="600" type="curve" smooth="yes"/>
      <point x="77" y="608"/>
      <point x="80" y="616"/>
      <point x="87" y="621" type="curve" smooth="yes"/>
      <point x="218" y="731" type="line" smooth="yes"/>
      <point x="224" y="736"/>
      <point x="231" y="738"/>
      <point x="237" y="738" type="curve" smooth="yes"/>
      <point x="244" y="738"/>
      <point x="251" y="735"/>
    </contour>
  </outline>
</glyph>
<glyph name="lacute" format="1">
  <advance width="226"/>
  <unicode hex="013A"/>
  <outline>
    <contour>
      <point x="141" y="663" type="curve" smooth="yes"/>
      <point x="141" y="25" type="line" smooth="yes"/>
      <point x="141" y="11"/>
      <point x="127" y="0"/>
      <point x="113" y="0" type="curve" smooth="yes"/>
      <point x="99" y="0"/>
      <point x="85" y="11"/>
      <point x="85" y="25" type="curve" smooth="yes"/>
      <point x="85" y="663" type="line" smooth="yes"/>
      <point x="85" y="678"/>
      <point x="97" y="690"/>
      <point x="113" y="690" type="curve" smooth="yes"/>
      <point x="128" y="690"/>
      <point x="141" y="678"/>
    </contour>
    <contour>
      <point x="210" y="824" type="curve" smooth="yes"/>
      <point x="72" y="730" type="line" smooth="yes"/>
      <point x="65" y="725"/>
      <point x="57" y="721"/>
      <point x="51" y="721" type="curve" smooth="yes"/>
      <point x="37" y="721"/>
      <point x="25" y="733"/>
      <point x="25" y="748" type="curve" smooth="yes"/>
      <point x="25" y="754"/>
      <point x="26" y="761"/>
      <point x="31" y="765" type="curve" smooth="yes"/>
      <point x="157" y="868" type="line" smooth="yes"/>
      <point x="165" y="875"/>
      <point x="175" y="883"/>
      <point x="186" y="883" type="curve" smooth="yes"/>
      <point x="205" y="883"/>
      <point x="220" y="867"/>
      <point x="220" y="847" type="curve" smooth="yes"/>
      <point x="220" y="838"/>
      <point x="217" y="829"/>
    </contour>
  </outline>
</glyph>
<glyph name="lcaron" format="1">
  <advance width="257"/>
  <unicode hex="013E"/>
  <outline>
    <contour>
      <point x="237" y="690" type="curve" smooth="yes"/>
      <point x="255" y="690"/>
      <point x="269" y="673"/>
      <point x="269" y="658" type="curve" smooth="yes"/>
      <point x="269" y="639"/>
      <point x="265" y="630"/>
      <point x="250" y="594" type="curve" smooth="yes"/>
      <point x="226" y="536"/>
      <point x="225" y="520"/>
      <point x="206" y="520" type="curve" smooth="yes"/>
      <point x="193" y="520"/>
      <point x="183" y="530"/>
      <point x="183" y="542" type="curve" smooth="yes"/>
      <point x="183" y="545"/>
      <point x="184" y="548"/>
      <point x="185" y="551" type="curve" smooth="yes"/>
      <point x="209" y="615" type="line"/>
      <point x="202" y="622"/>
      <point x="197" y="633"/>
      <point x="197" y="645" type="curve" smooth="yes"/>
      <point x="197" y="669"/>
      <point x="216" y="690"/>
    </contour>
    <contour>
      <point x="141" y="663" type="curve" smooth="yes"/>
      <point x="141" y="25" type="line" smooth="yes"/>
      <point x="141" y="11"/>
      <point x="127" y="0"/>
      <point x="113" y="0" type="curve" smooth="yes"/>
      <point x="99" y="0"/>
      <point x="85" y="11"/>
      <point x="85" y="25" type="curve" smooth="yes"/>
      <point x="85" y="663" type="line" smooth="yes"/>
      <point x="85" y="678"/>
      <point x="97" y="690"/>
      <point x="113" y="690" type="curve" smooth="yes"/>
      <point x="128" y="690"/>
      <point x="141" y="678"/>
    </contour>
  </outline>
</glyph>
<glyph name="Nacute" format="1">
  <advance width="619"/>
  <unicode hex="0143"/>
  <outline>
    <contour>
      <point x="526" y="0" type="curve" smooth="yes"/>
      <point x="517" y="0"/>
      <point x="508" y="4"/>
      <point x="503" y="12" type="curve" smooth="yes"/>
      <point x="122" y="563" type="line"/>
      <point x="121" y="28" type="line" smooth="yes"/>
      <point x="121" y="12"/>
      <point x="109" y="0"/>
      <point x="93" y="0" type="curve" smooth="yes"/>
      <point x="78" y="0"/>
      <point x="65" y="13"/>
      <point x="65" y="28" type="curve" smooth="yes"/>
      <point x="66" y="653" type="line" smooth="yes"/>
      <point x="66" y="667"/>
      <point x="77" y="681"/>
      <point x="93" y="681" type="curve" smooth="yes"/>
      <point x="102" y="681"/>
      <point x="111" y="677"/>
      <point x="117" y="669" type="curve" smooth="yes"/>
      <point x="498" y="117" type="line"/>
      <point x="498" y="654" type="line" smooth="yes"/>
      <point x="498" y="669"/>
      <point x="510" y="682"/>
      <point x="526" y="682" type="curve" smooth="yes"/>
      <point x="541" y="682"/>
      <point x="554" y="669"/>
      <point x="554" y="654" type="curve" smooth="yes"/>
      <point x="554" y="28" type="line" smooth="yes"/>
      <point x="554" y="13"/>
      <point x="542" y="0"/>
    </contour>
    <contour>
      <point x="418" y="869" type="curve" smooth="yes"/>
      <point x="280" y="775" type="line" smooth="yes"/>
      <point x="273" y="770"/>
      <point x="265" y="766"/>
      <point x="259" y="766" type="curve" smooth="yes"/>
      <point x="245" y="766"/>
      <point x="233" y="778"/>
      <point x="233" y="793" type="curve" smooth="yes"/>
      <point x="233" y="799"/>
      <point x="234" y="806"/>
      <point x="239" y="810" type="curve" smooth="yes"/>
      <point x="365" y="913" type="line" smooth="yes"/>
      <point x="373" y="920"/>
      <point x="383" y="928"/>
      <point x="394" y="928" type="curve" smooth="yes"/>
      <point x="413" y="928"/>
      <point x="428" y="912"/>
      <point x="428" y="892" type="curve" smooth="yes"/>
      <point x="428" y="883"/>
      <point x="425" y="874"/>
    </contour>
  </outline>
</glyph>
<glyph name="nacute" format="1">
  <advance width="535"/>
  <unicode hex="0144"/>
  <outline>
    <contour>
      <point x="121" y="473" type="curve" smooth="yes"/>
      <point x="121" y="292" type="line"/>
      <point x="141" y="406"/>
      <point x="222" y="499"/>
      <point x="328" y="499" type="curve" smooth="yes"/>
      <point x="452.152" y="499"/>
      <point x="470.008" y="388.987"/>
      <point x="470.008" y="152.297" type="curve" smooth="yes"/>
      <point x="470.008" y="114.458"/>
      <point x="469.551" y="73.3819"/>
      <point x="469" y="29" type="curve" smooth="yes"/>
      <point x="469" y="13"/>
      <point x="459" y="0"/>
      <point x="443" y="0" type="curve" smooth="yes"/>
      <point x="428" y="0"/>
      <point x="416" y="13"/>
      <point x="416" y="28" type="curve" smooth="yes"/>
      <point x="411" y="305"/>
      <point x="430" y="445"/>
      <point x="325" y="445" type="curve" smooth="yes"/>
      <point x="281" y="445"/>
      <point x="228" y="424"/>
      <point x="175" y="326" type="curve" smooth="yes"/>
      <point x="141" y="264"/>
      <point x="122" y="181"/>
      <point x="121" y="111" type="curve" smooth="yes"/>
      <point x="120" y="30" type="line" smooth="yes"/>
      <point x="120" y="13"/>
      <point x="110" y="0"/>
      <point x="93" y="0" type="curve" smooth="yes"/>
      <point x="78" y="0"/>
      <point x="65" y="12"/>
      <point x="65" y="26" type="curve" smooth="yes"/>
      <point x="65" y="473" type="line" smooth="yes"/>
      <point x="65" y="488"/>
      <point x="78" y="500"/>
      <point x="93" y="500" type="curve" smooth="yes"/>
      <point x="108" y="500"/>
      <point x="121" y="488"/>
    </contour>
    <contour>
      <point x="406" y="666" type="curve" smooth="yes"/>
      <point x="268" y="572" type="line" smooth="yes"/>
      <point x="261" y="567"/>
      <point x="253" y="563"/>
      <point x="247" y="563" type="curve" smooth="yes"/>
      <point x="233" y="563"/>
      <point x="221" y="575"/>
      <point x="221" y="590" type="curve" smooth="yes"/>
      <point x="221" y="596"/>
      <point x="222" y="603"/>
      <point x="227" y="607" type="curve" smooth="yes"/>
      <point x="353" y="710" type="line" smooth="yes"/>
      <point x="361" y="717"/>
      <point x="371" y="725"/>
      <point x="382" y="725" type="curve" smooth="yes"/>
      <point x="401" y="725"/>
      <point x="416" y="709"/>
      <point x="416" y="689" type="curve" smooth="yes"/>
      <point x="416" y="680"/>
      <point x="413" y="671"/>
    </contour>
  </outline>
</glyph>
<glyph name="Ncaron" format="1">
  <advance width="619"/>
  <unicode hex="0147"/>
  <outline>
    <contour>
      <point x="526" y="0" type="curve" smooth="yes"/>
      <point x="517" y="0"/>
      <point x="508" y="4"/>
      <point x="503" y="12" type="curve" smooth="yes"/>
      <point x="122" y="563" type="line"/>
      <point x="121" y="28" type="line" smooth="yes"/>
      <point x="121" y="12"/>
      <point x="109" y="0"/>
      <point x="93" y="0" type="curve" smooth="yes"/>
      <point x="78" y="0"/>
      <point x="65" y="13"/>
      <point x="65" y="28" type="curve" smooth="yes"/>
      <point x="66" y="653" type="line" smooth="yes"/>
      <point x="66" y="667"/>
      <point x="77" y="681"/>
      <point x="93" y="681" type="curve" smooth="yes"/>
      <point x="102" y="681"/>
      <point x="111" y="677"/>
      <point x="117" y="669" type="curve" smooth="yes"/>
      <point x="498" y="117" type="line"/>
      <point x="498" y="654" type="line" smooth="yes"/>
      <point x="498" y="669"/>
      <point x="510" y="682"/>
      <point x="526" y="682" type="curve" smooth="yes"/>
      <point x="541" y="682"/>
      <point x="554" y="669"/>
      <point x="554" y="654" type="curve" smooth="yes"/>
      <point x="554" y="28" type="line" smooth="yes"/>
      <point x="554" y="13"/>
      <point x="542" y="0"/>
    </contour>
    <contour>
      <point x="288" y="730" type="curve" smooth="yes"/>
      <point x="178" y="840" type="line" smooth="yes"/>
      <point x="172" y="845"/>
      <point x="169" y="852"/>
      <point x="169" y="860" type="curve" smooth="yes"/>
      <point x="169" y="874"/>
      <point x="181" y="886"/>
      <point x="195" y="886" type="curve" smooth="yes"/>
      <point x="202" y="886"/>
      <point x="209" y="884"/>
      <point x="214" y="879" type="curve" smooth="yes"/>
      <point x="310" y="792" type="line"/>
      <point x="425" y="881" type="line" smooth="yes"/>
      <point x="430" y="885"/>
      <point x="436" y="886"/>
      <point x="442" y="886" type="curve" smooth="yes"/>
      <point x="456" y="886"/>
      <point x="468" y="875"/>
      <point x="468" y="860" type="curve" smooth="yes"/>
      <point x="468" y="852"/>
      <point x="465" y="844"/>
      <point x="458" y="839" type="curve" smooth="yes"/>
      <point x="327" y="729" type="line" smooth="yes"/>
      <point x="321" y="724"/>
      <point x="314" y="722"/>
      <point x="308" y="722" type="curve" smooth="yes"/>
      <point x="301" y="722"/>
      <point x="294" y="725"/>
    </contour>
  </outline>
</glyph>
<glyph name="ncaron" format="1">
  <advance width="535"/>
  <unicode hex="0148"/>
  <outline>
    <contour>
      <point x="121" y="473" type="curve" smooth="yes"/>
      <point x="121" y="292" type="line"/>
      <point x="141" y="406"/>
      <point x="222" y="499"/>
      <point x="328" y="499" type="curve" smooth="yes"/>
      <point x="452.152" y="499"/>
      <point x="470.008" y="388.987"/>
      <point x="470.008" y="152.297" type="curve" smooth="yes"/>
      <point x="470.008" y="114.458"/>
      <point x="469.551" y="73.3819"/>
      <point x="469" y="29" type="curve" smooth="yes"/>
      <point x="469" y="13"/>
      <point x="459" y="0"/>
      <point x="443" y="0" type="curve" smooth="yes"/>
      <point x="428" y="0"/>
      <point x="416" y="13"/>
      <point x="416" y="28" type="curve" smooth="yes"/>
      <point x="411" y="305"/>
      <point x="430" y="445"/>
      <point x="325" y="445" type="curve" smooth="yes"/>
      <point x="281" y="445"/>
      <point x="228" y="424"/>
      <point x="175" y="326" type="curve" smooth="yes"/>
      <point x="141" y="264"/>
      <point x="122" y="181"/>
      <point x="121" y="111" type="curve" smooth="yes"/>
      <point x="120" y="30" type="line" smooth="yes"/>
      <point x="120" y="13"/>
      <point x="110" y="0"/>
      <point x="93" y="0" type="curve" smooth="yes"/>
      <point x="78" y="0"/>
      <point x="65" y="12"/>
      <point x="65" y="26" type="curve" smooth="yes"/>
      <point x="65" y="473" type="line" smooth="yes"/>
      <point x="65" y="488"/>
      <point x="78" y="500"/>
      <point x="93" y="500" type="curve" smooth="yes"/>
      <point x="108" y="500"/>
      <point x="121" y="488"/>
    </contour>
    <contour>
      <point x="266" y="573" type="curve" smooth="yes"/>
      <point x="156" y="683" type="line" smooth="yes"/>
      <point x="150" y="688"/>
      <point x="147" y="695"/>
      <point x="147" y="703" type="curve" smooth="yes"/>
      <point x="147" y="717"/>
      <point x="159" y="729"/>
      <point x="173" y="729" type="curve" smooth="yes"/>
      <point x="180" y="729"/>
      <point x="187" y="727"/>
      <point x="192" y="722" type="curve" smooth="yes"/>
      <point x="288" y="635" type="line"/>
      <point x="403" y="724" type="line" smooth="yes"/>
      <point x="408" y="728"/>
      <point x="414" y="729"/>
      <point x="420" y="729" type="curve" smooth="yes"/>
      <point x="434" y="729"/>
      <point x="446" y="718"/>
      <point x="446" y="703" type="curve" smooth="yes"/>
      <point x="446" y="695"/>
      <point x="443" y="687"/>
      <point x="436" y="682" type="curve" smooth="yes"/>
      <point x="305" y="572" type="line" smooth="yes"/>
      <point x="299" y="567"/>
      <point x="292" y="565"/>
      <point x="286" y="565" type="curve" smooth="yes"/>
      <point x="279" y="565"/>
      <point x="272" y="568"/>
    </contour>
  </outline>
</glyph>
<glyph name="ohungarumlaut" format="1">
  <advance width="535"/>
  <unicode hex="0151"/>
  <outline>
    <contour>
      <point x="252" y="0" type="curve" smooth="yes"/>
      <point x="137" y="0"/>
      <point x="50" y="104"/>
      <point x="50" y="230" type="curve" smooth="yes"/>
      <point x="50" y="376"/>
      <point x="157" y="500"/>
      <point x="283" y="500" type="curve" smooth="yes"/>
      <point x="397" y="500"/>
      <point x="485" y="394"/>
      <point x="485" y="270" type="curve" smooth="yes"/>
      <point x="485" y="123"/>
      <point x="378" y="0"/>
    </contour>
    <contour>
      <point x="278" y="452" type="curve" smooth="yes"/>
      <point x="185" y="452"/>
      <point x="107" y="349"/>
      <point x="107" y="232" type="curve" smooth="yes"/>
      <point x="107" y="133"/>
      <point x="165" y="48"/>
      <point x="252" y="48" type="curve" smooth="yes"/>
      <point x="343" y="48"/>
      <point x="427" y="149"/>
      <point x="427" y="265" type="curve" smooth="yes"/>
      <point x="427" y="365"/>
      <point x="361" y="452"/>
    </contour>
    <contour>
      <point x="313" y="665" type="curve" smooth="yes"/>
      <point x="175" y="571" type="line" smooth="yes"/>
      <point x="168" y="566"/>
      <point x="160" y="562"/>
      <point x="154" y="562" type="curve" smooth="yes"/>
      <point x="140" y="562"/>
      <point x="128" y="574"/>
      <point x="128" y="589" type="curve" smooth="yes"/>
      <point x="128" y="595"/>
      <point x="129" y="602"/>
      <point x="134" y="606" type="curve" smooth="yes"/>
      <point x="260" y="709" type="line" smooth="yes"/>
      <point x="268" y="716"/>
      <point x="278" y="724"/>
      <point x="289" y="724" type="curve" smooth="yes"/>
      <point x="308" y="724"/>
      <point x="323" y="708"/>
      <point x="323" y="688" type="curve" smooth="yes"/>
      <point x="323" y="679"/>
      <point x="320" y="670"/>
    </contour>
    <contour>
      <point x="473" y="665" type="curve" smooth="yes"/>
      <point x="335" y="571" type="line" smooth="yes"/>
      <point x="328" y="566"/>
      <point x="320" y="562"/>
      <point x="314" y="562" type="curve" smooth="yes"/>
      <point x="300" y="562"/>
      <point x="288" y="574"/>
      <point x="288" y="589" type="curve" smooth="yes"/>
      <point x="288" y="595"/>
      <point x="289" y="602"/>
      <point x="294" y="606" type="curve" smooth="yes"/>
      <point x="420" y="709" type="line" smooth="yes"/>
      <point x="428" y="716"/>
      <point x="438" y="724"/>
      <point x="449" y="724" type="curve" smooth="yes"/>
      <point x="468" y="724"/>
      <point x="483" y="708"/>
      <point x="483" y="688" type="curve" smooth="yes"/>
      <point x="483" y="679"/>
      <point x="480" y="670"/>
    </contour>
  </outline>
</glyph>
<glyph name="OE" format="1">
  <advance width="1098"/>
  <unicode hex="0152"/>
  <outline>
    <contour>
      <point x="610" y="57" type="line"/>
      <point x="1008" y="57" type="line" smooth="yes"/>
      <point x="1024" y="57"/>
      <point x="1036" y="45"/>
      <point x="1036" y="29" type="curve" smooth="yes"/>
      <point x="1036" y="13"/>
      <point x="1024" y="0"/>
      <point x="1008" y="0" type="curve" smooth="yes"/>
      <point x="582" y="0" type="line" smooth="yes"/>
      <point x="566" y="0"/>
      <point x="553" y="13"/>
      <point x="553" y="29" type="curve" smooth="yes"/>
      <point x="553" y="172" type="line"/>
      <point x="500" y="69"/>
      <point x="409" y="0"/>
      <point x="309" y="0" type="curve" smooth="yes"/>
      <point x="164" y="0"/>
      <point x="60" y="145"/>
      <point x="60" y="315" type="curve" smooth="yes"/>
      <point x="60" y="515"/>
      <point x="195" y="684"/>
      <point x="351" y="684" type="curve" smooth="yes"/>
      <point x="430" y="684"/>
      <point x="508" y="638"/>
      <point x="553" y="557" type="curve"/>
      <point x="553" y="654" type="line" smooth="yes"/>
      <point x="553" y="670"/>
      <point x="566" y="682"/>
      <point x="582" y="682" type="curve" smooth="yes"/>
      <point x="1010" y="682" type="line" smooth="yes"/>
      <point x="1026" y="682"/>
      <point x="1038" y="670"/>
      <point x="1038" y="654" type="curve" smooth="yes"/>
      <point x="1038" y="638"/>
      <point x="1026" y="625"/>
      <point x="1010" y="625" type="curve" smooth="yes"/>
      <point x="610" y="625" type="line"/>
      <point x="610" y="381" type="line"/>
      <point x="961" y="381" type="line" smooth="yes"/>
      <point x="977" y="381"/>
      <point x="989" y="369"/>
      <point x="989" y="353" type="curve" smooth="yes"/>
      <point x="989" y="337"/>
      <point x="977" y="324"/>
      <point x="961" y="324" type="curve" smooth="yes"/>
      <point x="610" y="324" type="line"/>
    </contour>
    <contour>
      <point x="309" y="52" type="curve" smooth="yes"/>
      <point x="460" y="52"/>
      <point x="547" y="232"/>
      <point x="547" y="365" type="curve" smooth="yes"/>
      <point x="547" y="500"/>
      <point x="463" y="632"/>
      <point x="344" y="632" type="curve" smooth="yes"/>
      <point x="221" y="632"/>
      <point x="113" y="491"/>
      <point x="113" y="315" type="curve" smooth="yes"/>
      <point x="113" y="171"/>
      <point x="195" y="52"/>
    </contour>
  </outline>
</glyph>
<glyph name="oe" format="1">
  <advance width="877"/>
  <unicode hex="0153"/>
  <outline>
    <contour>
      <point x="415" y="244" type="curve" smooth="yes"/>
      <point x="415" y="361"/>
      <point x="350" y="437"/>
      <point x="271" y="437" type="curve" smooth="yes"/>
      <point x="181" y="437"/>
      <point x="106" y="335"/>
      <point x="106" y="224" type="curve" smooth="yes"/>
      <point x="106" y="120"/>
      <point x="168" y="46"/>
      <point x="246" y="46" type="curve" smooth="yes"/>
      <point x="343" y="46"/>
      <point x="415" y="161"/>
    </contour>
    <contour>
      <point x="660" y="0" type="curve" smooth="yes"/>
      <point x="562" y="0"/>
      <point x="487" y="44"/>
      <point x="442" y="134" type="curve"/>
      <point x="401" y="52"/>
      <point x="327" y="0"/>
      <point x="246" y="0" type="curve" smooth="yes"/>
      <point x="134" y="0"/>
      <point x="50" y="101"/>
      <point x="50" y="220" type="curve" smooth="yes"/>
      <point x="50" y="347"/>
      <point x="141" y="484"/>
      <point x="276" y="484" type="curve" smooth="yes"/>
      <point x="350" y="484"/>
      <point x="421" y="434"/>
      <point x="451" y="361" type="curve"/>
      <point x="492" y="444"/>
      <point x="572" y="483"/>
      <point x="643" y="483" type="curve" smooth="yes"/>
      <point x="763" y="483"/>
      <point x="820" y="397"/>
      <point x="820" y="354" type="curve" smooth="yes"/>
      <point x="820" y="343"/>
      <point x="814" y="334"/>
      <point x="798" y="325" type="curve" smooth="yes"/>
      <point x="489" y="147" type="line"/>
      <point x="526" y="78"/>
      <point x="586" y="52"/>
      <point x="667" y="52" type="curve" smooth="yes"/>
      <point x="710" y="52"/>
      <point x="758" y="77"/>
      <point x="785" y="108" type="curve" smooth="yes"/>
      <point x="789" y="113"/>
      <point x="796" y="116"/>
      <point x="803" y="116" type="curve" smooth="yes"/>
      <point x="818" y="116"/>
      <point x="829" y="105"/>
      <point x="829" y="90" type="curve" smooth="yes"/>
      <point x="829" y="83"/>
      <point x="826" y="76"/>
      <point x="822" y="72" type="curve" smooth="yes"/>
      <point x="787" y="32"/>
      <point x="721" y="0"/>
    </contour>
    <contour>
      <point x="643" y="430" type="curve" smooth="yes"/>
      <point x="546" y="430"/>
      <point x="470" y="345"/>
      <point x="470" y="229" type="curve" smooth="yes"/>
      <point x="470" y="218"/>
      <point x="470" y="209"/>
      <point x="472" y="198" type="curve"/>
      <point x="766" y="361" type="line"/>
      <point x="741" y="411"/>
      <point x="708" y="430"/>
    </contour>
  </outline>
</glyph>
<glyph name="racute" format="1">
  <advance width="416"/>
  <unicode hex="0155"/>
  <outline>
    <contour>
      <point x="349" y="666" type="curve" smooth="yes"/>
      <point x="211" y="572" type="line" smooth="yes"/>
      <point x="204" y="567"/>
      <point x="196" y="563"/>
      <point x="190" y="563" type="curve" smooth="yes"/>
      <point x="176" y="563"/>
      <point x="164" y="575"/>
      <point x="164" y="590" type="curve" smooth="yes"/>
      <point x="164" y="596"/>
      <point x="165" y="603"/>
      <point x="170" y="607" type="curve" smooth="yes"/>
      <point x="296" y="710" type="line" smooth="yes"/>
      <point x="304" y="717"/>
      <point x="314" y="725"/>
      <point x="325" y="725" type="curve" smooth="yes"/>
      <point x="344" y="725"/>
      <point x="359" y="709"/>
      <point x="359" y="689" type="curve" smooth="yes"/>
      <point x="359" y="680"/>
      <point x="356" y="671"/>
    </contour>
    <contour>
      <point x="376" y="422" type="curve" smooth="yes"/>
      <point x="376" y="389" type="line" smooth="yes"/>
      <point x="376" y="374"/>
      <point x="364" y="362"/>
      <point x="348" y="362" type="curve" smooth="yes"/>
      <point x="328" y="362"/>
      <point x="322" y="377"/>
      <point x="322" y="390" type="curve" smooth="yes"/>
      <point x="322" y="415" type="line" smooth="yes"/>
      <point x="322" y="432"/>
      <point x="315" y="447"/>
      <point x="286" y="447" type="curve" smooth="yes"/>
      <point x="238" y="447"/>
      <point x="193" y="407"/>
      <point x="156" y="357" type="curve" smooth="yes"/>
      <point x="137" y="332"/>
      <point x="122" y="285"/>
      <point x="122" y="253" type="curve" smooth="yes"/>
      <point x="121" y="26" type="line" smooth="yes"/>
      <point x="121" y="12"/>
      <point x="108" y="0"/>
      <point x="93" y="0" type="curve" smooth="yes"/>
      <point x="79" y="0"/>
      <point x="65" y="12"/>
      <point x="65" y="26" type="curve" smooth="yes"/>
      <point x="65" y="472" type="line" smooth="yes"/>
      <point x="65" y="487"/>
      <point x="78" y="499"/>
      <point x="93" y="499" type="curve" smooth="yes"/>
      <point x="109" y="499"/>
      <point x="122" y="487"/>
      <point x="122" y="472" type="curve" smooth="yes"/>
      <point x="122" y="376" type="line"/>
      <point x="152" y="430"/>
      <point x="207" y="502"/>
      <point x="295" y="502" type="curve" smooth="yes"/>
      <point x="358" y="502"/>
      <point x="376" y="458"/>
    </contour>
  </outline>
</glyph>
